<svg width="124" height="48" viewBox="0 0 124 48" fill="none" xmlns="http://www.w3.org/2000/svg">
<path d="M0 24C0 10.7452 10.7452 0 24 0H100C113.255 0 124 10.7452 124 24V24C124 37.2548 113.255 48 100 48H24C10.7452 48 0 37.2548 0 24V24Z" fill="#2D2926"/>
<path d="M25.5881 30V18.64H29.4441C30.6494 18.64 31.6521 18.896 32.4521 19.408C33.2627 19.9093 33.8707 20.592 34.2761 21.456C34.6814 22.3093 34.8841 23.2587 34.8841 24.304C34.8841 25.456 34.6601 26.4587 34.2121 27.312C33.7641 28.1653 33.1347 28.8267 32.3241 29.296C31.5134 29.7653 30.5534 30 29.4441 30H25.5881ZM33.7641 24.304C33.7641 23.3973 33.5934 22.592 33.2521 21.888C32.9214 21.184 32.4307 20.6347 31.7801 20.24C31.1401 19.8347 30.3614 19.632 29.4441 19.632H26.7081V29.008H29.4441C30.3827 29.008 31.1721 28.8 31.8121 28.384C32.4521 27.968 32.9374 27.408 33.2681 26.704C33.5987 26 33.7641 25.2 33.7641 24.304ZM40.4016 30.16C39.6016 30.16 38.8869 29.9627 38.2576 29.568C37.6282 29.1733 37.1322 28.6453 36.7696 27.984C36.4069 27.3227 36.2256 26.5973 36.2256 25.808C36.2256 25.0293 36.4016 24.3147 36.7536 23.664C37.1162 23.0133 37.6122 22.496 38.2416 22.112C38.8709 21.7173 39.5856 21.52 40.3856 21.52C41.2069 21.52 41.9269 21.7173 42.5456 22.112C43.1642 22.5067 43.6442 23.0293 43.9856 23.68C44.3376 24.32 44.5136 25.024 44.5136 25.792C44.5136 25.9627 44.5082 26.1067 44.4976 26.224H37.3616C37.4149 26.8213 37.5856 27.3547 37.8736 27.824C38.1616 28.2827 38.5296 28.6507 38.9776 28.928C39.4256 29.1947 39.9162 29.328 40.4496 29.328C40.9936 29.328 41.5056 29.1893 41.9856 28.912C42.4656 28.6347 42.8069 28.272 43.0096 27.824L43.9536 28.08C43.7829 28.4853 43.5162 28.848 43.1536 29.168C42.8016 29.4773 42.3909 29.7227 41.9216 29.904C41.4522 30.0747 40.9456 30.16 40.4016 30.16ZM37.3296 25.44H43.4896C43.4469 24.8427 43.2816 24.3147 42.9936 23.856C42.7056 23.3867 42.3376 23.024 41.8896 22.768C41.4416 22.5013 40.9456 22.368 40.4016 22.368C39.8576 22.368 39.3616 22.5013 38.9136 22.768C38.4656 23.024 38.0976 23.3867 37.8096 23.856C37.5322 24.3147 37.3722 24.8427 37.3296 25.44ZM48.9282 30.16C48.2455 30.16 47.6109 30.048 47.0242 29.824C46.4482 29.5893 45.9415 29.248 45.5042 28.8L45.9522 28.032C46.4215 28.4693 46.8909 28.7893 47.3602 28.992C47.8402 29.184 48.3469 29.28 48.8802 29.28C49.5202 29.28 50.0429 29.152 50.4482 28.896C50.8642 28.6293 51.0722 28.2507 51.0722 27.76C51.0722 27.4293 50.9709 27.1787 50.7682 27.008C50.5762 26.8267 50.2935 26.6827 49.9202 26.576C49.5575 26.4693 49.1202 26.3467 48.6082 26.208C48.0322 26.048 47.5469 25.8827 47.1522 25.712C46.7682 25.5307 46.4749 25.3067 46.2722 25.04C46.0802 24.7627 45.9842 24.4053 45.9842 23.968C45.9842 23.4347 46.1175 22.9867 46.3842 22.624C46.6615 22.2613 47.0349 21.9893 47.5042 21.808C47.9842 21.616 48.5175 21.52 49.1042 21.52C49.7442 21.52 50.3095 21.6213 50.8002 21.824C51.2909 22.0267 51.6909 22.3093 52.0002 22.672L51.4722 23.408C51.1842 23.0667 50.8269 22.816 50.4002 22.656C49.9842 22.4853 49.5309 22.4 49.0402 22.4C48.6989 22.4 48.3735 22.448 48.0642 22.544C47.7549 22.6293 47.4989 22.7787 47.2962 22.992C47.1042 23.1947 47.0082 23.4773 47.0082 23.84C47.0082 24.288 47.1735 24.5973 47.5042 24.768C47.8349 24.9387 48.3362 25.12 49.0082 25.312C49.6375 25.4827 50.1869 25.6533 50.6562 25.824C51.1255 25.9947 51.4882 26.224 51.7442 26.512C52.0002 26.7893 52.1282 27.1787 52.1282 27.68C52.1282 28.4587 51.8349 29.0667 51.2482 29.504C50.6615 29.9413 49.8882 30.16 48.9282 30.16ZM57.5426 30.16C56.7319 30.16 56.0119 29.9627 55.3826 29.568C54.7532 29.1627 54.2572 28.6347 53.8946 27.984C53.5319 27.3227 53.3506 26.5973 53.3506 25.808C53.3506 25.0187 53.5266 24.304 53.8786 23.664C54.2306 23.0133 54.7212 22.496 55.3506 22.112C55.9799 21.7173 56.7052 21.52 57.5266 21.52C58.3052 21.52 58.9879 21.7013 59.5746 22.064C60.1719 22.416 60.6199 22.896 60.9186 23.504L59.8626 23.84C59.6279 23.4133 59.2972 23.0827 58.8706 22.848C58.4546 22.6027 57.9906 22.48 57.4786 22.48C56.9132 22.48 56.4012 22.624 55.9426 22.912C55.4946 23.2 55.1319 23.6 54.8546 24.112C54.5879 24.6133 54.4546 25.1787 54.4546 25.808C54.4546 26.4373 54.5932 27.008 54.8706 27.52C55.1479 28.032 55.5159 28.4427 55.9746 28.752C56.4332 29.0507 56.9399 29.2 57.4946 29.2C57.8572 29.2 58.2092 29.136 58.5506 29.008C58.8919 28.88 59.1852 28.7093 59.4306 28.496C59.6759 28.272 59.8412 28.032 59.9266 27.776L60.9986 28.096C60.8492 28.4907 60.6039 28.848 60.2626 29.168C59.9212 29.4773 59.5159 29.7227 59.0466 29.904C58.5772 30.0747 58.0759 30.16 57.5426 30.16ZM62.0358 27.6C62.0358 27.088 62.1851 26.6453 62.4838 26.272C62.7825 25.888 63.1931 25.5893 63.7158 25.376C64.2491 25.1627 64.8625 25.056 65.5558 25.056C65.9611 25.056 66.3825 25.0933 66.8198 25.168C67.2571 25.232 67.6465 25.3227 67.9878 25.44V24.736C67.9878 24.032 67.7798 23.472 67.3638 23.056C66.9478 22.64 66.3718 22.432 65.6358 22.432C65.1985 22.432 64.7611 22.5173 64.3238 22.688C63.8865 22.848 63.4331 23.088 62.9638 23.408L62.5478 22.64C63.0918 22.2667 63.6251 21.9893 64.1478 21.808C64.6705 21.616 65.2038 21.52 65.7478 21.52C66.7718 21.52 67.5825 21.8133 68.1798 22.4C68.7771 22.9867 69.0758 23.7973 69.0758 24.832V28.688C69.0758 28.976 69.2091 29.1253 69.4758 29.136V30C69.2411 30.032 69.0758 30.0427 68.9798 30.032C68.7131 30.0213 68.5105 29.936 68.3718 29.776C68.2331 29.616 68.1585 29.4453 68.1478 29.264L68.1318 28.656C67.7585 29.136 67.2731 29.5093 66.6758 29.776C66.0785 30.032 65.4705 30.16 64.8518 30.16C64.3078 30.16 63.8225 30.048 63.3958 29.824C62.9691 29.5893 62.6331 29.28 62.3878 28.896C62.1531 28.5013 62.0358 28.0693 62.0358 27.6ZM67.6198 28.24C67.8651 27.952 67.9878 27.6853 67.9878 27.44V26.224C67.2518 25.936 66.4838 25.792 65.6838 25.792C64.9051 25.792 64.2758 25.9467 63.7958 26.256C63.3158 26.5653 63.0758 26.9867 63.0758 27.52C63.0758 27.9787 63.2518 28.3947 63.6038 28.768C63.9665 29.1413 64.4678 29.328 65.1078 29.328C65.6305 29.328 66.1158 29.2267 66.5638 29.024C67.0225 28.8213 67.3745 28.56 67.6198 28.24ZM75.5866 22.624C74.8612 22.6453 74.2212 22.848 73.6666 23.232C73.1226 23.616 72.7386 24.144 72.5146 24.816V30H71.4266V21.664H72.4506V23.664C72.7386 23.0773 73.1172 22.6027 73.5866 22.24C74.0666 21.8773 74.5732 21.6747 75.1066 21.632C75.2132 21.6213 75.3039 21.616 75.3786 21.616C75.4532 21.616 75.5226 21.6213 75.5866 21.632V22.624ZM80.1612 30.112C79.5852 30.112 79.0572 29.9947 78.5772 29.76C78.1079 29.5253 77.6972 29.2107 77.3452 28.816C77.0039 28.4107 76.7372 27.952 76.5452 27.44C76.3532 26.928 76.2572 26.4 76.2572 25.856C76.2572 25.0773 76.4225 24.3627 76.7532 23.712C77.0839 23.0507 77.5372 22.5227 78.1132 22.128C78.6999 21.7227 79.3719 21.52 80.1292 21.52C80.8439 21.52 81.4625 21.7013 81.9852 22.064C82.5185 22.4267 82.9665 22.8747 83.3292 23.408V21.664H84.3052V30.032C84.3052 30.8107 84.1185 31.4613 83.7452 31.984C83.3719 32.5067 82.8759 32.9013 82.2572 33.168C81.6385 33.4347 80.9612 33.568 80.2252 33.568C79.2652 33.568 78.4919 33.3973 77.9052 33.056C77.3292 32.7147 76.8545 32.256 76.4812 31.68L77.1532 31.152C77.4839 31.6747 77.9212 32.064 78.4652 32.32C79.0199 32.576 79.6065 32.704 80.2252 32.704C80.7692 32.704 81.2652 32.6027 81.7132 32.4C82.1719 32.208 82.5345 31.9147 82.8012 31.52C83.0785 31.1253 83.2172 30.6293 83.2172 30.032V28.384C82.8972 28.9067 82.4599 29.328 81.9052 29.648C81.3505 29.9573 80.7692 30.112 80.1612 30.112ZM80.4652 29.2C80.9025 29.2 81.3185 29.0987 81.7132 28.896C82.1079 28.6933 82.4385 28.4373 82.7052 28.128C82.9825 27.808 83.1532 27.4773 83.2172 27.136V24.56C83.0572 24.1547 82.8279 23.7973 82.5292 23.488C82.2305 23.168 81.8892 22.9227 81.5052 22.752C81.1212 22.5707 80.7319 22.48 80.3372 22.48C79.7185 22.48 79.1852 22.6507 78.7372 22.992C78.2999 23.3227 77.9585 23.7493 77.7132 24.272C77.4785 24.784 77.3612 25.3173 77.3612 25.872C77.3612 26.4693 77.4999 27.024 77.7772 27.536C78.0545 28.0373 78.4279 28.4427 78.8972 28.752C79.3665 29.0507 79.8892 29.2 80.4652 29.2ZM86.0358 27.6C86.0358 27.088 86.1851 26.6453 86.4838 26.272C86.7825 25.888 87.1931 25.5893 87.7158 25.376C88.2491 25.1627 88.8625 25.056 89.5558 25.056C89.9611 25.056 90.3825 25.0933 90.8198 25.168C91.2571 25.232 91.6465 25.3227 91.9878 25.44V24.736C91.9878 24.032 91.7798 23.472 91.3638 23.056C90.9478 22.64 90.3718 22.432 89.6358 22.432C89.1985 22.432 88.7611 22.5173 88.3238 22.688C87.8865 22.848 87.4331 23.088 86.9638 23.408L86.5478 22.64C87.0918 22.2667 87.6251 21.9893 88.1478 21.808C88.6705 21.616 89.2038 21.52 89.7478 21.52C90.7718 21.52 91.5825 21.8133 92.1798 22.4C92.7771 22.9867 93.0758 23.7973 93.0758 24.832V28.688C93.0758 28.976 93.2091 29.1253 93.4758 29.136V30C93.2411 30.032 93.0758 30.0427 92.9798 30.032C92.7131 30.0213 92.5105 29.936 92.3718 29.776C92.2331 29.616 92.1585 29.4453 92.1478 29.264L92.1318 28.656C91.7585 29.136 91.2731 29.5093 90.6758 29.776C90.0785 30.032 89.4705 30.16 88.8518 30.16C88.3078 30.16 87.8225 30.048 87.3958 29.824C86.9691 29.5893 86.6331 29.28 86.3878 28.896C86.1531 28.5013 86.0358 28.0693 86.0358 27.6ZM91.6198 28.24C91.8651 27.952 91.9878 27.6853 91.9878 27.44V26.224C91.2518 25.936 90.4838 25.792 89.6838 25.792C88.9051 25.792 88.2758 25.9467 87.7958 26.256C87.3158 26.5653 87.0758 26.9867 87.0758 27.52C87.0758 27.9787 87.2518 28.3947 87.6038 28.768C87.9665 29.1413 88.4678 29.328 89.1078 29.328C89.6305 29.328 90.1158 29.2267 90.5638 29.024C91.0225 28.8213 91.3745 28.56 91.6198 28.24ZM99.5866 22.624C98.8612 22.6453 98.2212 22.848 97.6666 23.232C97.1226 23.616 96.7386 24.144 96.5146 24.816V30H95.4266V21.664H96.4506V23.664C96.7386 23.0773 97.1172 22.6027 97.5866 22.24C98.0666 21.8773 98.5732 21.6747 99.1066 21.632C99.2132 21.6213 99.3039 21.616 99.3786 21.616C99.4532 21.616 99.5226 21.6213 99.5866 21.632V22.624Z" fill="white"/>
</svg>
