<svg width="40" height="40" viewBox="0 0 40 40" fill="none" xmlns="http://www.w3.org/2000/svg">
<g clip-path="url(#clip0)">
<path d="M26.364 3.64286C26.364 3.45536 26.4236 3.30134 26.543 3.1808C26.6623 3.06027 26.8147 3 27.0003 3H32.7276C33.0723 3 33.3706 3.12723 33.6225 3.3817C33.8744 3.63616 34.0003 3.9375 34.0003 4.28571V10.0714C34.0003 10.2589 33.9407 10.4129 33.8214 10.5335C33.7021 10.654 33.5496 10.7143 33.364 10.7143H32.0913C31.9056 10.7143 31.7532 10.654 31.6339 10.5335C31.5146 10.4129 31.4549 10.2589 31.4549 10.0714V7.37946L26.4038 12.5022C28.0742 14.6183 28.9094 17.0223 28.9094 19.7143C28.9094 22.6741 27.9317 25.2489 25.9762 27.4386C24.0207 29.6283 21.6045 30.8839 18.7276 31.2054V33.8571H20.6367C20.8223 33.8571 20.9748 33.9174 21.0941 34.0379C21.2134 34.1585 21.2731 34.3125 21.2731 34.5V35.7857C21.2731 35.9732 21.2134 36.1272 21.0941 36.2478C20.9748 36.3683 20.8223 36.4286 20.6367 36.4286H18.7276V38.3571C18.7276 38.5446 18.668 38.6987 18.5486 38.8192C18.4293 38.9397 18.2769 39 18.0913 39H16.8185C16.6329 39 16.4805 38.9397 16.3611 38.8192C16.2418 38.6987 16.1822 38.5446 16.1822 38.3571V36.4286H14.2731C14.0875 36.4286 13.935 36.3683 13.8157 36.2478C13.6964 36.1272 13.6367 35.9732 13.6367 35.7857V34.5C13.6367 34.3125 13.6964 34.1585 13.8157 34.0379C13.935 33.9174 14.0875 33.8571 14.2731 33.8571H16.1822V31.2054C14.2068 30.9911 12.4137 30.3013 10.8029 29.1362C9.19211 27.971 7.95584 26.4743 7.0941 24.6462C6.23235 22.8181 5.88103 20.8661 6.04012 18.7902C6.25224 16.058 7.31285 13.6908 9.22194 11.6886C11.131 9.68638 13.4312 8.53125 16.1225 8.22321C17.6869 8.03571 19.1983 8.16295 20.6566 8.60491C22.1149 9.04687 23.4274 9.73661 24.5941 10.6741L29.6651 5.57143H27.0003C26.8147 5.57143 26.6623 5.51116 26.543 5.39062C26.4236 5.27009 26.364 5.11607 26.364 4.92857V3.64286ZM17.4549 28.7143C19.9075 28.7143 22.0056 27.8337 23.7489 26.0725C25.4923 24.3114 26.364 22.192 26.364 19.7143C26.364 17.2366 25.4923 15.1172 23.7489 13.356C22.0056 11.5949 19.9075 10.7143 17.4549 10.7143C15.0022 10.7143 12.9042 11.5949 11.1609 13.356C9.41749 15.1172 8.5458 17.2366 8.5458 19.7143C8.5458 22.192 9.41749 24.3114 11.1609 26.0725C12.9042 27.8337 15.0022 28.7143 17.4549 28.7143Z" fill="black"/>
</g>
<defs>
<clipPath id="clip0">
<rect width="28" height="36" fill="white" transform="translate(6 3)"/>
</clipPath>
</defs>
</svg>
