<svg width="40" height="40" viewBox="0 0 40 40" fill="none" xmlns="http://www.w3.org/2000/svg">
<path d="M24.1412 8.71127C23.4475 8.71627 22.7588 8.75002 22.0312 8.94502C21.2387 9.16015 20.4867 9.50343 19.805 9.96127C18.8475 9.39877 17.92 8.93627 17.0312 8.82752C15.9275 8.69127 14.9025 8.76502 13.7112 8.79002C12.2987 8.81877 11.3775 9.54002 9.8825 10.1175C8.38875 10.6925 6.465 11.25 3.75 11.25H2.5V23.2813L3.20375 23.6325L5.5075 24.7663L13.7112 33.9063L13.75 33.945C14.6875 34.8725 15.9525 35.1025 17.07 35.0388C18.1888 34.9763 19.2388 34.6488 20.0775 34.1413C21.9238 33.0275 26.9525 29.5313 26.9525 29.5313L27.07 29.4525L27.1487 29.375C27.7437 28.7838 28.0425 28.0625 28.2425 27.305L33.0463 24.8825L36.64 23.6725L37.5 23.3975V11.25H36.25C34.1488 11.2644 32.0652 10.866 30.1175 10.0775C28.6225 9.49377 27.715 8.78002 26.2875 8.75002C25.525 8.73502 24.8325 8.70627 24.14 8.71127H24.1412ZM24.1788 11.2113C24.7413 11.2063 25.3912 11.2363 26.2112 11.25C26.3425 11.255 27.5437 11.7675 29.2188 12.4225C30.635 12.9788 32.6025 13.4725 35 13.6325V21.6013L32.1088 22.5788H32.0312L31.9525 22.6163L28.165 24.5313C27.964 23.9512 27.6447 23.4191 27.2275 22.9688L27.1487 22.8513L21.8362 16.3288L21.055 15.3513L20.0775 16.1325L16.7188 18.8675C15.5912 19.6488 14.6775 19.4238 13.75 18.985C13.4812 18.8575 13.4963 18.8188 13.2812 18.6725L18.985 13.945L19.0625 13.8675C20.7563 12.1875 21.7975 11.6063 22.695 11.3675C23.145 11.245 23.6187 11.2163 24.18 11.2113H24.1788ZM15.47 11.25C15.8871 11.2343 16.3047 11.2472 16.72 11.2888C17.0475 11.3275 17.4188 11.6063 17.7363 11.7188C17.6088 11.8363 17.5162 11.9038 17.3837 12.0313L17.3063 12.11L10.47 17.7725L9.415 18.6325L10.3525 19.6088C10.3525 19.6088 11.2563 20.5863 12.6575 21.25C14.0588 21.9138 16.2225 22.29 18.165 20.9375L18.2438 20.8588L20.665 18.8675L25.275 24.5313L25.3137 24.61L25.3525 24.6475C26.1775 25.4638 26.1587 26.7475 25.3525 27.5788C25.3425 27.5875 25.3625 27.6075 25.3525 27.6163C25.3425 27.6225 25.1775 27.72 25.1575 27.735L23.5162 25.5075L21.485 26.9925L23.0875 29.14C22.4375 29.58 22.145 29.81 21.4462 30.2738L19.7675 28.0075L17.735 29.4925L19.3375 31.64C19.195 31.7275 18.9025 31.9238 18.79 31.9925C18.395 32.2313 17.6325 32.5 16.9537 32.5388C16.315 32.5738 15.8263 32.4263 15.5875 32.2263L15.5488 32.1875L7.18875 22.93L7.0325 22.7338L5 21.7188V13.6325C7.3875 13.4763 9.37 13.0025 10.7812 12.4613C12.4512 11.8213 13.6438 11.2938 13.7888 11.2888L15.4688 11.25H15.47Z" fill="black"/>
</svg>
