<svg width="21" height="12" viewBox="0 0 21 12" fill="none" xmlns="http://www.w3.org/2000/svg">
<path d="M1.687 1.27299C1.59153 1.18277 1.47922 1.11225 1.35649 1.06543C1.23377 1.01861 1.10302 0.996429 0.971715 1.00014C0.840413 1.00386 0.711128 1.0334 0.591243 1.08708C0.471357 1.14076 0.363218 1.21752 0.272999 1.31299C0.182781 1.40846 0.112251 1.52077 0.0654356 1.6435C0.0186201 1.76623 -0.00356391 1.89698 0.00015044 2.02828C0.00386479 2.15958 0.0334046 2.28887 0.0870834 2.40875C0.140762 2.52864 0.217529 2.63678 0.313 2.72699L9.313 11.227C9.49867 11.4025 9.74449 11.5003 10 11.5003C10.2555 11.5003 10.5013 11.4025 10.687 11.227L19.688 2.72699C19.7856 2.63737 19.8643 2.52925 19.9198 2.40893C19.9752 2.2886 20.0062 2.15846 20.0109 2.02607C20.0156 1.89367 19.9939 1.76166 19.9472 1.63771C19.9004 1.51375 19.8295 1.40032 19.7386 1.304C19.6476 1.20768 19.5384 1.13039 19.4173 1.07662C19.2963 1.02285 19.1657 0.993682 19.0333 0.990797C18.9008 0.987912 18.7691 1.01137 18.6458 1.05982C18.5225 1.10826 18.4101 1.18072 18.315 1.27299L10 9.12499L1.687 1.27299Z" fill="white"/>
</svg>
