<svg width="37" height="13" viewBox="0 0 37 13" fill="none" xmlns="http://www.w3.org/2000/svg">
<path d="M0 0V12.7666H2.81538V4.21978H2.85368L8.54189 12.7666H11.5488V0H8.73341V8.56472H8.69511L2.98775 0H0Z" fill="#777779" fill-opacity="0.25"/>
<path d="M14.1958 0V12.7666H17.2027V8.65412L18.9264 7.027L23.0442 12.7666H26.8172L20.9566 5.04228L26.3 0H22.5462L17.2027 5.2926V0H14.1958Z" fill="#777779" fill-opacity="0.25"/>
<path d="M36.2722 2.34233V0.250326H28.7837L27.4622 7.17004H29.9137C30.1818 6.82436 30.4691 6.57403 30.7755 6.41907C31.082 6.25218 31.4778 6.16874 31.963 6.16874C32.3332 6.16874 32.6588 6.22834 32.9397 6.34755C33.2206 6.46675 33.4632 6.63363 33.6675 6.8482C33.8718 7.06276 34.025 7.31309 34.1272 7.59917C34.2293 7.88526 34.2804 8.18923 34.2804 8.51108C34.2804 8.821 34.2229 9.12497 34.108 9.42298C34.0059 9.70906 33.8527 9.96535 33.6484 10.1918C33.4568 10.4064 33.2142 10.5852 32.9206 10.7282C32.6397 10.8594 32.3205 10.9249 31.963 10.9249C31.3501 10.9249 30.8458 10.758 30.4499 10.4243C30.0541 10.0786 29.8243 9.61966 29.7605 9.04749H27.0408C27.0536 9.7031 27.1941 10.2812 27.4622 10.7819C27.7431 11.2706 28.1134 11.6819 28.573 12.0156C29.0327 12.3494 29.5562 12.5997 30.1435 12.7666C30.7436 12.9216 31.3692 12.9991 32.0204 12.9991C32.6971 13.011 33.3355 12.9097 33.9356 12.6951C34.5357 12.4686 35.0592 12.1527 35.5061 11.7474C35.9658 11.3421 36.3297 10.8653 36.5978 10.317C36.8659 9.75674 37 9.15477 37 8.51108C37 7.92698 36.9042 7.37865 36.7127 6.86608C36.534 6.34159 36.2658 5.88862 35.9083 5.50717C35.5636 5.12572 35.1359 4.82175 34.6251 4.59527C34.1144 4.36878 33.5271 4.25554 32.8631 4.25554C32.3269 4.25554 31.8481 4.33302 31.4267 4.48798C31.0054 4.63103 30.6095 4.87539 30.2393 5.22108L30.201 5.18532L30.7372 2.34233H36.2722Z" fill="#777779" fill-opacity="0.25"/>
</svg>
