<svg width="115" height="48" viewBox="0 0 115 48" fill="none" xmlns="http://www.w3.org/2000/svg">
<path d="M30.4308 30.08C29.5348 30.08 28.7775 29.92 28.1588 29.6C27.5401 29.28 27.0495 28.8533 26.6868 28.32C26.3241 27.776 26.0575 27.1627 25.8868 26.48C25.7268 25.7973 25.6468 25.0933 25.6468 24.368V18.64H26.7508V24.368C26.7508 24.9547 26.8095 25.5307 26.9268 26.096C27.0548 26.6613 27.2575 27.168 27.5348 27.616C27.8121 28.064 28.1855 28.4213 28.6548 28.688C29.1241 28.944 29.7108 29.072 30.4148 29.072C31.1401 29.072 31.7375 28.9387 32.2068 28.672C32.6868 28.3947 33.0601 28.032 33.3268 27.584C33.6041 27.136 33.8015 26.6347 33.9188 26.08C34.0361 25.5147 34.0948 24.944 34.0948 24.368V18.64H35.2148V24.368C35.2148 25.1253 35.1295 25.8507 34.9588 26.544C34.7881 27.2373 34.5108 27.8453 34.1268 28.368C33.7535 28.8907 33.2628 29.3067 32.6548 29.616C32.0468 29.9253 31.3055 30.08 30.4308 30.08ZM30.8148 17.088L30.0948 16.816L31.0388 15.328H32.1908L30.8148 17.088ZM44.5752 30H43.4872V25.344C43.4872 24.3627 43.3432 23.648 43.0552 23.2C42.7672 22.7413 42.3139 22.512 41.6952 22.512C41.2685 22.512 40.8472 22.6187 40.4312 22.832C40.0152 23.0347 39.6472 23.3173 39.3272 23.68C39.0179 24.032 38.7939 24.4373 38.6552 24.896V30H37.5672V21.664H38.5592V23.552C38.7832 23.1467 39.0765 22.7947 39.4392 22.496C39.8019 22.1867 40.2125 21.9467 40.6712 21.776C41.1299 21.6053 41.6045 21.52 42.0952 21.52C42.5539 21.52 42.9432 21.6053 43.2632 21.776C43.5832 21.9467 43.8392 22.192 44.0312 22.512C44.2232 22.8213 44.3619 23.2 44.4472 23.648C44.5325 24.0853 44.5752 24.576 44.5752 25.12V30ZM50.4953 30.16C49.898 30.16 49.3433 30.048 48.8313 29.824C48.3193 29.5893 47.8766 29.2747 47.5033 28.88C47.13 28.4747 46.8366 28.0107 46.6233 27.488C46.4206 26.9653 46.3193 26.4053 46.3193 25.808C46.3193 25.0293 46.4953 24.3147 46.8473 23.664C47.21 23.0133 47.706 22.496 48.3353 22.112C48.9646 21.7173 49.6793 21.52 50.4793 21.52C51.3006 21.52 52.0153 21.7173 52.6233 22.112C53.242 22.5067 53.7273 23.0293 54.0793 23.68C54.4313 24.32 54.6073 25.024 54.6073 25.792C54.6073 25.8773 54.6073 25.9627 54.6073 26.048C54.6073 26.1227 54.602 26.1813 54.5913 26.224H47.4553C47.5086 26.8213 47.674 27.3547 47.9513 27.824C48.2393 28.2827 48.6073 28.6507 49.0553 28.928C49.514 29.1947 50.01 29.328 50.5433 29.328C51.0873 29.328 51.5993 29.1893 52.0793 28.912C52.57 28.6347 52.9113 28.272 53.1033 27.824L54.0473 28.08C53.8766 28.4747 53.6153 28.832 53.2633 29.152C52.9113 29.472 52.4953 29.7227 52.0153 29.904C51.546 30.0747 51.0393 30.16 50.4953 30.16ZM47.4233 25.44H53.5833C53.5406 24.832 53.3753 24.2987 53.0873 23.84C52.81 23.3813 52.442 23.024 51.9833 22.768C51.5353 22.5013 51.0393 22.368 50.4953 22.368C49.9513 22.368 49.4553 22.5013 49.0073 22.768C48.5593 23.024 48.1913 23.3867 47.9033 23.856C47.626 24.3147 47.466 24.8427 47.4233 25.44ZM60.2078 29.6C60.1225 29.632 59.9891 29.6907 59.8078 29.776C59.6265 29.8613 59.4078 29.936 59.1518 30C58.8958 30.064 58.6185 30.096 58.3198 30.096C58.0105 30.096 57.7171 30.0373 57.4398 29.92C57.1731 29.8027 56.9598 29.6267 56.7998 29.392C56.6398 29.1467 56.5598 28.848 56.5598 28.496V22.528H55.4078V21.664H56.5598V18.848H57.6478V21.664H59.5678V22.528H57.6478V28.192C57.6691 28.4907 57.7758 28.7147 57.9678 28.864C58.1705 29.0133 58.3998 29.088 58.6558 29.088C58.9545 29.088 59.2265 29.04 59.4718 28.944C59.7171 28.8373 59.8665 28.7627 59.9198 28.72L60.2078 29.6ZM65.0266 30.16C64.4292 30.16 63.8746 30.048 63.3626 29.824C62.8506 29.5893 62.4079 29.2747 62.0346 28.88C61.6612 28.4747 61.3679 28.0107 61.1546 27.488C60.9519 26.9653 60.8506 26.4053 60.8506 25.808C60.8506 25.0293 61.0266 24.3147 61.3786 23.664C61.7412 23.0133 62.2372 22.496 62.8666 22.112C63.4959 21.7173 64.2106 21.52 65.0106 21.52C65.8319 21.52 66.5466 21.7173 67.1546 22.112C67.7732 22.5067 68.2586 23.0293 68.6106 23.68C68.9626 24.32 69.1386 25.024 69.1386 25.792C69.1386 25.8773 69.1386 25.9627 69.1386 26.048C69.1386 26.1227 69.1332 26.1813 69.1226 26.224H61.9866C62.0399 26.8213 62.2052 27.3547 62.4826 27.824C62.7706 28.2827 63.1386 28.6507 63.5866 28.928C64.0452 29.1947 64.5412 29.328 65.0746 29.328C65.6186 29.328 66.1306 29.1893 66.6106 28.912C67.1012 28.6347 67.4426 28.272 67.6346 27.824L68.5786 28.08C68.4079 28.4747 68.1466 28.832 67.7946 29.152C67.4426 29.472 67.0266 29.7227 66.5466 29.904C66.0772 30.0747 65.5706 30.16 65.0266 30.16ZM61.9546 25.44H68.1146C68.0719 24.832 67.9066 24.2987 67.6186 23.84C67.3412 23.3813 66.9732 23.024 66.5146 22.768C66.0666 22.5013 65.5706 22.368 65.0266 22.368C64.4826 22.368 63.9866 22.5013 63.5386 22.768C63.0906 23.024 62.7226 23.3867 62.4346 23.856C62.1572 24.3147 61.9972 24.8427 61.9546 25.44Z" fill="white"/>
<rect x="0.5" y="0.5" width="114" height="47" rx="23.5" stroke="white"/>
<path d="M77 25.9363H91M91 25.9363L84 18.9378M91 25.9363L84 32.9349" stroke="white" stroke-linecap="round" stroke-linejoin="round"/>
</svg>
