<svg width="112" height="48" viewBox="0 0 112 48" fill="none" xmlns="http://www.w3.org/2000/svg">
<rect width="112" height="48" rx="24" fill="#2D2926"/>
<path d="M22.4448 24.24C22.4448 23.5573 22.5622 22.88 22.7968 22.208C23.0422 21.536 23.3942 20.928 23.8528 20.384C24.3115 19.8293 24.8768 19.392 25.5488 19.072C26.2208 18.7413 26.9835 18.576 27.8368 18.576C28.8395 18.576 29.7035 18.8107 30.4288 19.28C31.1542 19.7387 31.6875 20.3307 32.0288 21.056L31.1488 21.6C30.9035 21.0987 30.5942 20.704 30.2208 20.416C29.8475 20.1173 29.4475 19.904 29.0208 19.776C28.6048 19.648 28.1888 19.584 27.7728 19.584C27.0902 19.584 26.4875 19.7227 25.9648 20C25.4422 20.2667 24.9995 20.6293 24.6368 21.088C24.2848 21.5467 24.0182 22.0533 23.8368 22.608C23.6555 23.1627 23.5648 23.728 23.5648 24.304C23.5648 24.9333 23.6715 25.536 23.8848 26.112C24.0982 26.6773 24.3968 27.184 24.7808 27.632C25.1648 28.08 25.6128 28.4373 26.1248 28.704C26.6475 28.96 27.2128 29.088 27.8208 29.088C28.2475 29.088 28.6848 29.0133 29.1328 28.864C29.5808 28.7147 29.9968 28.4853 30.3808 28.176C30.7648 27.8667 31.0795 27.4667 31.3248 26.976L32.2528 27.456C32.0075 28.0213 31.6395 28.5013 31.1488 28.896C30.6688 29.2907 30.1248 29.5893 29.5168 29.792C28.9195 29.9947 28.3328 30.096 27.7568 30.096C26.9782 30.096 26.2635 29.9307 25.6128 29.6C24.9622 29.2587 24.3968 28.8107 23.9168 28.256C23.4475 27.6907 23.0848 27.0613 22.8288 26.368C22.5728 25.664 22.4448 24.9547 22.4448 24.24ZM37.4936 30.16C36.6936 30.16 35.9789 29.9627 35.3496 29.568C34.7309 29.1733 34.2456 28.6507 33.8936 28C33.5416 27.3387 33.3656 26.624 33.3656 25.856C33.3656 25.0773 33.5416 24.3627 33.8936 23.712C34.2563 23.0507 34.7469 22.5227 35.3656 22.128C35.9949 21.7227 36.7043 21.52 37.4936 21.52C38.2936 21.52 39.0029 21.7227 39.6216 22.128C40.2509 22.5227 40.7416 23.0507 41.0936 23.712C41.4563 24.3627 41.6376 25.0773 41.6376 25.856C41.6376 26.624 41.4616 27.3387 41.1096 28C40.7576 28.6507 40.2669 29.1733 39.6376 29.568C39.0189 29.9627 38.3043 30.16 37.4936 30.16ZM34.4696 25.872C34.4696 26.4907 34.6029 27.056 34.8696 27.568C35.1469 28.0693 35.5149 28.4693 35.9736 28.768C36.4323 29.056 36.9389 29.2 37.4936 29.2C38.0483 29.2 38.5549 29.0507 39.0136 28.752C39.4723 28.4533 39.8403 28.048 40.1176 27.536C40.3949 27.024 40.5336 26.4587 40.5336 25.84C40.5336 25.2213 40.3949 24.656 40.1176 24.144C39.8403 23.632 39.4723 23.2267 39.0136 22.928C38.5549 22.6293 38.0483 22.48 37.4936 22.48C36.9496 22.48 36.4483 22.6347 35.9896 22.944C35.5309 23.2427 35.1629 23.648 34.8856 24.16C34.6083 24.672 34.4696 25.2427 34.4696 25.872ZM43.5052 18.32H44.5932V28.112C44.5932 28.528 44.6625 28.8 44.8012 28.928C44.9505 29.056 45.1372 29.12 45.3612 29.12C45.5532 29.12 45.7452 29.0987 45.9372 29.056C46.1399 29.0133 46.3052 28.9707 46.4332 28.928L46.6252 29.808C46.4225 29.8933 46.1719 29.9627 45.8732 30.016C45.5852 30.0693 45.3345 30.096 45.1212 30.096C44.6305 30.096 44.2359 29.952 43.9372 29.664C43.6492 29.376 43.5052 28.9813 43.5052 28.48V18.32ZM47.1446 27.6C47.1446 27.088 47.2939 26.6453 47.5926 26.272C47.8913 25.888 48.3019 25.5893 48.8246 25.376C49.3579 25.1627 49.9713 25.056 50.6646 25.056C51.0699 25.056 51.4913 25.0933 51.9286 25.168C52.3659 25.232 52.7553 25.3227 53.0966 25.44V24.736C53.0966 24.032 52.8886 23.472 52.4726 23.056C52.0566 22.64 51.4806 22.432 50.7446 22.432C50.3073 22.432 49.8699 22.5173 49.4326 22.688C48.9953 22.848 48.5419 23.088 48.0726 23.408L47.6566 22.64C48.2006 22.2667 48.7339 21.9893 49.2566 21.808C49.7793 21.616 50.3126 21.52 50.8566 21.52C51.8806 21.52 52.6913 21.8133 53.2886 22.4C53.8859 22.9867 54.1846 23.7973 54.1846 24.832V28.688C54.1846 28.976 54.3179 29.1253 54.5846 29.136V30C54.3499 30.032 54.1846 30.0427 54.0886 30.032C53.8219 30.0213 53.6193 29.936 53.4806 29.776C53.3419 29.616 53.2673 29.4453 53.2566 29.264L53.2406 28.656C52.8673 29.136 52.3819 29.5093 51.7846 29.776C51.1873 30.032 50.5793 30.16 49.9606 30.16C49.4166 30.16 48.9313 30.048 48.5046 29.824C48.0779 29.5893 47.7419 29.28 47.4966 28.896C47.2619 28.5013 47.1446 28.0693 47.1446 27.6ZM52.7286 28.24C52.9739 27.952 53.0966 27.6853 53.0966 27.44V26.224C52.3606 25.936 51.5926 25.792 50.7926 25.792C50.0139 25.792 49.3846 25.9467 48.9046 26.256C48.4246 26.5653 48.1846 26.9867 48.1846 27.52C48.1846 27.9787 48.3606 28.3947 48.7126 28.768C49.0753 29.1413 49.5766 29.328 50.2166 29.328C50.7393 29.328 51.2246 29.2267 51.6726 29.024C52.1313 28.8213 52.4833 28.56 52.7286 28.24ZM60.6153 30.16C59.9647 30.16 59.362 29.9947 58.8073 29.664C58.2527 29.3227 57.8207 28.896 57.5113 28.384V30H56.5353V18.32H57.6233V23.408C57.9967 22.8427 58.4447 22.3893 58.9673 22.048C59.49 21.696 60.098 21.52 60.7913 21.52C61.378 21.52 61.9007 21.6427 62.3593 21.888C62.8287 22.1333 63.2287 22.464 63.5593 22.88C63.89 23.2853 64.1407 23.7493 64.3113 24.272C64.482 24.784 64.5673 25.312 64.5673 25.856C64.5673 26.6347 64.3913 27.3493 64.0393 28C63.698 28.6507 63.2287 29.1733 62.6313 29.568C62.034 29.9627 61.362 30.16 60.6153 30.16ZM60.3593 29.2C60.9673 29.2 61.5007 29.04 61.9593 28.72C62.4287 28.4 62.7967 27.9893 63.0633 27.488C63.33 26.976 63.4633 26.432 63.4633 25.856C63.4633 25.2693 63.3353 24.72 63.0793 24.208C62.834 23.696 62.4873 23.28 62.0393 22.96C61.5913 22.64 61.074 22.48 60.4873 22.48C59.8367 22.48 59.2607 22.688 58.7593 23.104C58.2687 23.52 57.89 24.0053 57.6233 24.56V27.152C57.6767 27.536 57.8527 27.8827 58.1513 28.192C58.45 28.5013 58.802 28.7467 59.2073 28.928C59.6127 29.1093 59.9967 29.2 60.3593 29.2ZM69.9623 30.16C69.1623 30.16 68.4477 29.9627 67.8183 29.568C67.1997 29.1733 66.7143 28.6507 66.3623 28C66.0103 27.3387 65.8343 26.624 65.8343 25.856C65.8343 25.0773 66.0103 24.3627 66.3623 23.712C66.725 23.0507 67.2157 22.5227 67.8343 22.128C68.4637 21.7227 69.173 21.52 69.9623 21.52C70.7623 21.52 71.4717 21.7227 72.0903 22.128C72.7197 22.5227 73.2103 23.0507 73.5623 23.712C73.925 24.3627 74.1063 25.0773 74.1063 25.856C74.1063 26.624 73.9303 27.3387 73.5783 28C73.2263 28.6507 72.7357 29.1733 72.1063 29.568C71.4877 29.9627 70.773 30.16 69.9623 30.16ZM66.9383 25.872C66.9383 26.4907 67.0717 27.056 67.3383 27.568C67.6157 28.0693 67.9837 28.4693 68.4423 28.768C68.901 29.056 69.4077 29.2 69.9623 29.2C70.517 29.2 71.0237 29.0507 71.4823 28.752C71.941 28.4533 72.309 28.048 72.5863 27.536C72.8637 27.024 73.0023 26.4587 73.0023 25.84C73.0023 25.2213 72.8637 24.656 72.5863 24.144C72.309 23.632 71.941 23.2267 71.4823 22.928C71.0237 22.6293 70.517 22.48 69.9623 22.48C69.4183 22.48 68.917 22.6347 68.4583 22.944C67.9997 23.2427 67.6317 23.648 67.3543 24.16C67.077 24.672 66.9383 25.2427 66.9383 25.872ZM80.086 22.624C79.3606 22.6453 78.7206 22.848 78.166 23.232C77.622 23.616 77.238 24.144 77.014 24.816V30H75.926V21.664H76.95V23.664C77.238 23.0773 77.6166 22.6027 78.086 22.24C78.566 21.8773 79.0726 21.6747 79.606 21.632C79.7126 21.6213 79.8033 21.616 79.878 21.616C79.9526 21.616 80.022 21.6213 80.086 21.632V22.624ZM80.8321 27.6C80.8321 27.088 80.9814 26.6453 81.2801 26.272C81.5788 25.888 81.9894 25.5893 82.5121 25.376C83.0454 25.1627 83.6588 25.056 84.3521 25.056C84.7574 25.056 85.1788 25.0933 85.6161 25.168C86.0534 25.232 86.4428 25.3227 86.7841 25.44V24.736C86.7841 24.032 86.5761 23.472 86.1601 23.056C85.7441 22.64 85.1681 22.432 84.4321 22.432C83.9948 22.432 83.5574 22.5173 83.1201 22.688C82.6828 22.848 82.2294 23.088 81.7601 23.408L81.3441 22.64C81.8881 22.2667 82.4214 21.9893 82.9441 21.808C83.4668 21.616 84.0001 21.52 84.5441 21.52C85.5681 21.52 86.3788 21.8133 86.9761 22.4C87.5734 22.9867 87.8721 23.7973 87.8721 24.832V28.688C87.8721 28.976 88.0054 29.1253 88.2721 29.136V30C88.0374 30.032 87.8721 30.0427 87.7761 30.032C87.5094 30.0213 87.3068 29.936 87.1681 29.776C87.0294 29.616 86.9548 29.4453 86.9441 29.264L86.9281 28.656C86.5548 29.136 86.0694 29.5093 85.4721 29.776C84.8748 30.032 84.2668 30.16 83.6481 30.16C83.1041 30.16 82.6188 30.048 82.1921 29.824C81.7654 29.5893 81.4294 29.28 81.1841 28.896C80.9494 28.5013 80.8321 28.0693 80.8321 27.6ZM86.4161 28.24C86.6614 27.952 86.7841 27.6853 86.7841 27.44V26.224C86.0481 25.936 85.2801 25.792 84.4801 25.792C83.7014 25.792 83.0721 25.9467 82.5921 26.256C82.1121 26.5653 81.8721 26.9867 81.8721 27.52C81.8721 27.9787 82.0481 28.3947 82.4001 28.768C82.7628 29.1413 83.2641 29.328 83.9041 29.328C84.4268 29.328 84.9121 29.2267 85.3601 29.024C85.8188 28.8213 86.1708 28.56 86.4161 28.24Z" fill="white"/>
</svg>
