<svg width="93" height="48" viewBox="0 0 93 48" fill="none" xmlns="http://www.w3.org/2000/svg">
<path d="M0 24C0 10.7452 10.7452 0 24 0H69C82.2548 0 93 10.7452 93 24C93 37.2548 82.2548 48 69 48H24C10.7452 48 0 37.2548 0 24Z" fill="#2D2926"/>
<path d="M25.6193 30V18.64H29.4753C30.6806 18.64 31.6833 18.896 32.4833 19.408C33.294 19.9093 33.902 20.592 34.3073 21.456C34.7126 22.3093 34.9153 23.2587 34.9153 24.304C34.9153 25.456 34.6913 26.4587 34.2433 27.312C33.7953 28.1653 33.166 28.8267 32.3553 29.296C31.5446 29.7653 30.5846 30 29.4753 30H25.6193ZM33.7953 24.304C33.7953 23.3973 33.6246 22.592 33.2833 21.888C32.9526 21.184 32.462 20.6347 31.8113 20.24C31.1713 19.8347 30.3926 19.632 29.4753 19.632H26.7393V29.008H29.4753C30.414 29.008 31.2033 28.8 31.8433 28.384C32.4833 27.968 32.9686 27.408 33.2993 26.704C33.63 26 33.7953 25.2 33.7953 24.304ZM40.3848 30.16C39.5848 30.16 38.8701 29.9627 38.2408 29.568C37.6221 29.1733 37.1368 28.6507 36.7848 28C36.4328 27.3387 36.2568 26.624 36.2568 25.856C36.2568 25.0773 36.4328 24.3627 36.7848 23.712C37.1475 23.0507 37.6381 22.5227 38.2568 22.128C38.8861 21.7227 39.5955 21.52 40.3848 21.52C41.1848 21.52 41.8941 21.7227 42.5128 22.128C43.1421 22.5227 43.6328 23.0507 43.9848 23.712C44.3475 24.3627 44.5288 25.0773 44.5288 25.856C44.5288 26.624 44.3528 27.3387 44.0008 28C43.6488 28.6507 43.1581 29.1733 42.5288 29.568C41.9101 29.9627 41.1955 30.16 40.3848 30.16ZM37.3608 25.872C37.3608 26.4907 37.4941 27.056 37.7608 27.568C38.0381 28.0693 38.4061 28.4693 38.8648 28.768C39.3235 29.056 39.8301 29.2 40.3848 29.2C40.9395 29.2 41.4461 29.0507 41.9048 28.752C42.3635 28.4533 42.7315 28.048 43.0088 27.536C43.2861 27.024 43.4248 26.4587 43.4248 25.84C43.4248 25.2213 43.2861 24.656 43.0088 24.144C42.7315 23.632 42.3635 23.2267 41.9048 22.928C41.4461 22.6293 40.9395 22.48 40.3848 22.48C39.8408 22.48 39.3395 22.6347 38.8808 22.944C38.4221 23.2427 38.0541 23.648 37.7768 24.16C37.4995 24.672 37.3608 25.2427 37.3608 25.872ZM53.3564 30H52.2684V25.344C52.2684 24.3627 52.1191 23.648 51.8204 23.2C51.5324 22.7413 51.0844 22.512 50.4764 22.512C50.0498 22.512 49.6284 22.6187 49.2124 22.832C48.7964 23.0347 48.4284 23.3173 48.1084 23.68C47.7991 24.032 47.5751 24.4373 47.4364 24.896V30H46.3484V21.664H47.3404V23.552C47.6711 22.944 48.1564 22.4533 48.7964 22.08C49.4364 21.7067 50.1298 21.52 50.8764 21.52C51.4951 21.52 51.9858 21.6693 52.3484 21.968C52.7111 22.256 52.9671 22.672 53.1164 23.216C53.2764 23.7493 53.3564 24.384 53.3564 25.12V30ZM55.0046 27.6C55.0046 27.088 55.1539 26.6453 55.4526 26.272C55.7512 25.888 56.1619 25.5893 56.6846 25.376C57.2179 25.1627 57.8312 25.056 58.5246 25.056C58.9299 25.056 59.3512 25.0933 59.7886 25.168C60.2259 25.232 60.6152 25.3227 60.9566 25.44V24.736C60.9566 24.032 60.7486 23.472 60.3326 23.056C59.9166 22.64 59.3406 22.432 58.6046 22.432C58.1672 22.432 57.7299 22.5173 57.2926 22.688C56.8552 22.848 56.4019 23.088 55.9326 23.408L55.5166 22.64C56.0606 22.2667 56.5939 21.9893 57.1166 21.808C57.6392 21.616 58.1726 21.52 58.7166 21.52C59.7406 21.52 60.5512 21.8133 61.1486 22.4C61.7459 22.9867 62.0446 23.7973 62.0446 24.832V28.688C62.0446 28.976 62.1779 29.1253 62.4446 29.136V30C62.2099 30.032 62.0446 30.0427 61.9486 30.032C61.6819 30.0213 61.4792 29.936 61.3406 29.776C61.2019 29.616 61.1272 29.4453 61.1166 29.264L61.1006 28.656C60.7272 29.136 60.2419 29.5093 59.6446 29.776C59.0472 30.032 58.4392 30.16 57.8206 30.16C57.2766 30.16 56.7912 30.048 56.3646 29.824C55.9379 29.5893 55.6019 29.28 55.3566 28.896C55.1219 28.5013 55.0046 28.0693 55.0046 27.6ZM60.5886 28.24C60.8339 27.952 60.9566 27.6853 60.9566 27.44V26.224C60.2206 25.936 59.4526 25.792 58.6526 25.792C57.8739 25.792 57.2446 25.9467 56.7646 26.256C56.2846 26.5653 56.0446 26.9867 56.0446 27.52C56.0446 27.9787 56.2206 28.3947 56.5726 28.768C56.9352 29.1413 57.4366 29.328 58.0766 29.328C58.5992 29.328 59.0846 29.2267 59.5326 29.024C59.9912 28.8213 60.3432 28.56 60.5886 28.24ZM68.5553 22.624C67.83 22.6453 67.19 22.848 66.6353 23.232C66.0913 23.616 65.7073 24.144 65.4833 24.816V30H64.3953V21.664H65.4193V23.664C65.7073 23.0773 66.086 22.6027 66.5553 22.24C67.0353 21.8773 67.542 21.6747 68.0753 21.632C68.182 21.6213 68.2726 21.616 68.3473 21.616C68.422 21.616 68.4913 21.6213 68.5553 21.632V22.624Z" fill="white"/>
</svg>
