<svg width="24" height="23" viewBox="0 0 24 23" fill="none" xmlns="http://www.w3.org/2000/svg">
<mask id="path-1-inside-1" fill="white">
<path d="M11.9998 4.12207L10.9243 3.01657C8.39984 0.421573 3.77084 1.31707 2.09984 4.57957C1.31534 6.11407 1.13834 8.32957 2.57084 11.1571C3.95084 13.8796 6.82184 17.1406 11.9998 20.6926C17.1778 17.1406 20.0473 13.8796 21.4288 11.1571C22.8613 8.32807 22.6858 6.11407 21.8998 4.57957C20.2288 1.31707 15.5998 0.420073 13.0753 3.01507L11.9998 4.12207ZM11.9998 22.5001C-10.9997 7.30207 4.91834 -4.55993 11.7358 1.71457C11.8258 1.79707 11.9143 1.88257 11.9998 1.97107C12.0845 1.88265 12.1725 1.79759 12.2638 1.71607C19.0798 -4.56293 34.9993 7.30057 11.9998 22.5001Z"/>
</mask>
<path d="M11.9998 4.12207L10.9243 3.01657C8.39984 0.421573 3.77084 1.31707 2.09984 4.57957C1.31534 6.11407 1.13834 8.32957 2.57084 11.1571C3.95084 13.8796 6.82184 17.1406 11.9998 20.6926C17.1778 17.1406 20.0473 13.8796 21.4288 11.1571C22.8613 8.32807 22.6858 6.11407 21.8998 4.57957C20.2288 1.31707 15.5998 0.420073 13.0753 3.01507L11.9998 4.12207ZM11.9998 22.5001C-10.9997 7.30207 4.91834 -4.55993 11.7358 1.71457C11.8258 1.79707 11.9143 1.88257 11.9998 1.97107C12.0845 1.88265 12.1725 1.79759 12.2638 1.71607C19.0798 -4.56293 34.9993 7.30057 11.9998 22.5001Z" fill="#1CABE2"/>
<path d="M11.9998 4.12207L9.84955 6.21402L12.0013 8.42579L14.1516 6.21256L11.9998 4.12207ZM10.9243 3.01657L8.77401 5.10848L8.77405 5.10852L10.9243 3.01657ZM2.09984 4.57957L-0.570301 3.21197L-0.571321 3.21396L2.09984 4.57957ZM2.57084 11.1571L-0.105303 12.5129L-0.105027 12.5134L2.57084 11.1571ZM11.9998 20.6926L10.3028 23.1665L11.9998 24.3306L13.6969 23.1665L11.9998 20.6926ZM21.4288 11.1571L24.1041 12.5146L24.1053 12.5123L21.4288 11.1571ZM21.8998 4.57957L19.2297 5.94718L19.2297 5.94725L21.8998 4.57957ZM13.0753 3.01507L10.925 0.923163L10.9236 0.924587L13.0753 3.01507ZM11.9998 22.5001L10.3459 25.003L11.9999 26.0959L13.6539 25.0029L11.9998 22.5001ZM11.7358 1.71457L9.70425 3.92198L9.70867 3.92604L11.7358 1.71457ZM11.9998 1.97107L9.84227 4.05551L12.0099 6.29919L14.1671 4.04546L11.9998 1.97107ZM12.2638 1.71607L14.2618 3.95393L14.2793 3.93836L14.2965 3.92253L12.2638 1.71607ZM14.1501 2.03013L13.0746 0.924629L8.77405 5.10852L9.84955 6.21402L14.1501 2.03013ZM13.0747 0.924663C8.96928 -3.29537 1.93656 -1.68249 -0.5703 3.21197L4.76998 5.94718C5.60512 4.31663 7.8304 4.13852 8.77401 5.10848L13.0747 0.924663ZM-0.571321 3.21396C-1.86202 5.73861 -1.89739 8.97564 -0.105303 12.5129L5.24699 9.80125C4.17407 7.68351 4.49271 6.48954 4.77101 5.94518L-0.571321 3.21396ZM-0.105027 12.5134C1.58093 15.8395 4.88175 19.4477 10.3028 23.1665L13.6969 18.2187C8.76194 14.8334 6.32076 11.9196 5.24671 9.80071L-0.105027 12.5134ZM13.6969 23.1665C19.1187 19.4472 22.417 15.8393 24.1041 12.5146L18.7536 9.79954C17.6776 11.9198 15.237 14.8339 10.3028 18.2187L13.6969 23.1665ZM24.1053 12.5123C25.896 8.97585 25.8645 5.73919 24.5699 3.21189L19.2297 5.94725C19.5072 6.48896 19.8267 7.6803 18.7524 9.80183L24.1053 12.5123ZM24.57 3.21197C22.0638 -1.68114 15.0314 -3.29791 10.925 0.923163L15.2257 5.10698C16.1683 4.13805 18.3939 4.31529 19.2297 5.94718L24.57 3.21197ZM10.9236 0.924587L9.84813 2.03159L14.1516 6.21256L15.2271 5.10556L10.9236 0.924587ZM13.6538 19.9972C8.1469 16.3582 5.276 13.1126 3.95972 10.5764C2.67893 8.10854 2.89011 6.39804 3.39158 5.3522C4.56437 2.90627 7.9253 2.28472 9.70425 3.92198L13.7674 -0.492833C8.72889 -5.13007 0.722069 -2.95787 -2.01864 2.75807C-3.47393 5.79317 -3.35593 9.50563 -1.36578 13.3403C0.588875 17.1065 4.35304 21.0429 10.3459 25.003L13.6538 19.9972ZM9.70867 3.92604C9.76006 3.97314 9.80435 4.01626 9.84227 4.05551L14.1574 -0.113363C14.0243 -0.251115 13.8916 -0.378999 13.763 -0.49689L9.70867 3.92604ZM14.1671 4.04546C14.1975 4.01372 14.2291 3.98318 14.2618 3.95393L10.2658 -0.52178C10.116 -0.388008 9.97149 -0.248413 9.83261 -0.103319L14.1671 4.04546ZM14.2965 3.92253C16.0747 2.28439 19.4347 2.90499 20.6076 5.3508C21.1091 6.39668 21.3204 8.1074 20.0397 10.5755C18.7235 13.112 15.8526 16.358 10.3458 19.9972L13.6539 25.0029C19.6468 21.0424 23.4108 17.1056 25.3653 13.3391C27.3553 9.50416 27.4731 5.79153 26.0177 2.75647C23.2767 -2.9596 15.269 -5.13124 10.2312 -0.490384L14.2965 3.92253Z" fill="#1CABE2" mask="url(#path-1-inside-1)"/>
</svg>
