<svg width="24" height="18" viewBox="0 0 24 18" fill="none" xmlns="http://www.w3.org/2000/svg">
<path d="M14.8397 0.000394026C14.364 0.00381114 13.8917 0.0268769 13.3929 0.160144C12.8494 0.30717 12.3338 0.541775 11.8663 0.854673C11.2097 0.470248 10.5737 0.154164 9.96429 0.0798419C9.20743 -0.0132745 8.50457 0.0371282 7.68771 0.0542138C6.71914 0.0738622 6.08743 0.566781 5.06229 0.961458C4.038 1.35443 2.71886 1.73544 0.857143 1.73544H0V9.95787L0.482571 10.1979L2.06229 10.9728L7.68771 17.2192L7.71429 17.2457C8.35714 17.8796 9.22457 18.0368 9.99086 17.9932C10.758 17.9505 11.478 17.7267 12.0531 17.3799C13.3191 16.6187 16.7674 14.2293 16.7674 14.2293L16.848 14.1755L16.902 14.1225C17.31 13.7184 17.5149 13.2255 17.652 12.7078L20.946 11.0522L23.4103 10.2253L24 10.0373V1.73544H23.1429C21.702 1.74525 20.2733 1.473 18.9377 0.934122C17.9126 0.535173 17.2903 0.0473795 16.3114 0.0268768C15.7886 0.0166255 15.3137 -0.00302309 14.8389 0.000394026H14.8397ZM14.8654 1.70895C15.2511 1.70554 15.6969 1.72604 16.2591 1.73544C16.3491 1.73885 17.1729 2.08911 18.3214 2.53675C19.2926 2.9169 20.6417 3.25434 22.2857 3.36369V8.80972L20.3031 9.47777H20.25L20.196 9.5034L17.5989 10.8122C17.461 10.4157 17.2421 10.0521 16.956 9.7443L16.902 9.664L13.2591 5.20637L12.7234 4.53833L12.0531 5.07225L9.75 6.94141C8.97686 7.47534 8.35029 7.32157 7.71429 7.02172C7.53 6.93458 7.54029 6.9081 7.39286 6.80815L11.304 3.57726L11.3571 3.5243C12.5186 2.37614 13.2326 1.97891 13.848 1.81574C14.1566 1.73202 14.4814 1.71237 14.8663 1.70895H14.8654ZM8.89371 1.73544C9.1797 1.72469 9.46609 1.73354 9.75086 1.76192C9.97543 1.7884 10.23 1.97891 10.4477 2.05579C10.3603 2.13609 10.2969 2.18222 10.206 2.26936L10.1529 2.32318L5.46514 6.19307L4.74171 6.78081L5.38457 7.448C5.38457 7.448 6.00429 8.11605 6.96514 8.56967C7.926 9.02329 9.40971 9.28043 10.7417 8.3561L10.7957 8.30228L12.456 6.94141L15.6171 10.8122L15.6437 10.866L15.6703 10.8916C16.236 11.4494 16.2231 12.3268 15.6703 12.8949C15.6634 12.9009 15.6771 12.9145 15.6703 12.9205C15.6634 12.9248 15.5503 12.9914 15.5366 13.0017L14.4111 11.4793L13.0183 12.4942L14.1171 13.9619C13.6714 14.2626 13.4709 14.4198 12.9917 14.7367L11.8406 13.1879L10.4469 14.2028L11.5457 15.6704C11.448 15.7302 11.2474 15.8644 11.1703 15.9113C10.8994 16.0745 10.3766 16.2582 9.91114 16.2847C9.47314 16.3086 9.138 16.2078 8.97429 16.0711L8.94771 16.0446L3.21514 9.71782L3.108 9.5837L1.71429 8.89003V3.36369C3.35143 3.25691 4.71086 2.93314 5.67857 2.56323C6.82371 2.12584 7.64143 1.76534 7.74086 1.76192L8.89286 1.73544H8.89371Z" fill="#1CABE2"/>
</svg>
