<svg width="24" height="22" viewBox="0 0 24 22" fill="none" xmlns="http://www.w3.org/2000/svg">
<path d="M12.7184 11.9989C13.5139 11.9989 14.2769 12.3149 14.8395 12.8775C15.402 13.4401 15.7181 14.2031 15.7181 14.9986L15.7161 16.4945C15.9221 20.1682 13.0923 22 7.8468 22C2.61928 21.998 -0.272461 20.1922 -0.272461 16.5485V14.9986C-0.272461 14.2031 0.0435809 13.4401 0.606139 12.8775C1.1687 12.3149 1.93169 11.9989 2.72727 11.9989H12.7184ZM20.7176 11.9989C21.5132 11.9989 22.2762 12.3149 22.8388 12.8775C23.4013 13.4401 23.7174 14.2031 23.7174 14.9986V16.0525C23.8973 19.3462 21.3976 20.9981 16.83 20.9981C16.21 20.9981 15.6261 20.9681 15.0821 20.9081C15.6621 20.3721 16.0961 19.7342 16.372 18.9923L16.83 18.9983C20.3977 18.9983 21.8235 18.0564 21.7175 16.1065V14.9986C21.7175 14.7334 21.6122 14.4791 21.4247 14.2916C21.2372 14.1041 20.9828 13.9987 20.7176 13.9987H16.592C16.3913 13.2241 15.9629 12.5275 15.3621 11.9989H20.7176ZM12.7184 13.9987H2.72727C2.46207 13.9987 2.20774 14.1041 2.02022 14.2916C1.8327 14.4791 1.72736 14.7334 1.72736 14.9986V16.5485C1.72736 18.8383 3.58319 19.9982 7.8468 19.9982C12.0944 19.9982 13.8463 18.8643 13.7183 16.5485V14.9986C13.7183 14.7334 13.6129 14.4791 13.4254 14.2916C13.2379 14.1041 12.9836 13.9987 12.7184 13.9987ZM7.72681 0C9.05277 0 10.3244 0.526736 11.262 1.46433C12.1996 2.40193 12.7264 3.67358 12.7264 4.99955C12.7264 6.32551 12.1996 7.59716 11.262 8.53476C10.3244 9.47235 9.05277 9.99909 7.72681 9.99909C6.40085 9.99909 5.1292 9.47235 4.1916 8.53476C3.254 7.59716 2.72727 6.32551 2.72727 4.99955C2.72727 3.67358 3.254 2.40193 4.1916 1.46433C5.1292 0.526736 6.40085 0 7.72681 0ZM17.7259 1.99982C18.7867 1.99982 19.804 2.42121 20.5541 3.17128C21.3041 3.92136 21.7255 4.93868 21.7255 5.99945C21.7255 7.06022 21.3041 8.07755 20.5541 8.82762C19.804 9.5777 18.7867 9.99909 17.7259 9.99909C16.6651 9.99909 15.6478 9.5777 14.8977 8.82762C14.1477 8.07755 13.7263 7.06022 13.7263 5.99945C13.7263 4.93868 14.1477 3.92136 14.8977 3.17128C15.6478 2.42121 16.6651 1.99982 17.7259 1.99982ZM7.72681 1.99982C6.93123 1.99982 6.16824 2.31586 5.60568 2.87842C5.04313 3.44098 4.72708 4.20397 4.72708 4.99955C4.72708 5.79512 5.04313 6.55812 5.60568 7.12067C6.16824 7.68323 6.93123 7.99927 7.72681 7.99927C8.52239 7.99927 9.28538 7.68323 9.84794 7.12067C10.4105 6.55812 10.7265 5.79512 10.7265 4.99955C10.7265 4.20397 10.4105 3.44098 9.84794 2.87842C9.28538 2.31586 8.52239 1.99982 7.72681 1.99982ZM17.7259 3.99964C17.1955 3.99964 16.6869 4.21033 16.3118 4.58537C15.9368 4.96041 15.7261 5.46907 15.7261 5.99945C15.7261 6.52984 15.9368 7.0385 16.3118 7.41354C16.6869 7.78858 17.1955 7.99927 17.7259 7.99927C18.2563 7.99927 18.7649 7.78858 19.14 7.41354C19.515 7.0385 19.7257 6.52984 19.7257 5.99945C19.7257 5.46907 19.515 4.96041 19.14 4.58537C18.7649 4.21033 18.2563 3.99964 17.7259 3.99964Z" fill="#1CABE2"/>
</svg>
