<svg width="12" height="12" viewBox="0 0 12 12" fill="none" xmlns="http://www.w3.org/2000/svg">
<path d="M2.89356 1.39853C2.87686 0.604658 2.33501 0 1.45513 0C0.575239 0 0 0.604658 0 1.39853C0 2.17595 0.558237 2.79802 1.42174 2.79802H1.43817C2.33501 2.79802 2.89356 2.17595 2.89356 1.39853Z" fill="#777779"/>
<path d="M2.72416 3.90318H0.152096V11.9998H2.72416V3.90318Z" fill="#777779"/>
<path d="M9.03859 3.71303C10.7311 3.71303 12 4.87049 12 7.35742L11.9999 11.9998H9.42794V7.66808C9.42794 6.58005 9.05575 5.83761 8.12465 5.83761C7.41406 5.83761 6.99081 6.33812 6.80492 6.82155C6.73692 6.9948 6.72022 7.23619 6.72022 7.47817V12H4.14785C4.14785 12 4.18175 4.66312 4.14785 3.90337H6.72022V5.05019C7.0616 4.49889 7.673 3.71303 9.03859 3.71303Z" fill="#777779"/>
</svg>
