<svg width="148" height="52" viewBox="0 0 148 52" fill="none" xmlns="http://www.w3.org/2000/svg">
<path d="M21.2221 26.24C21.2221 25.5573 21.3394 24.88 21.5741 24.208C21.8194 23.536 22.1714 22.928 22.6301 22.384C23.0887 21.8293 23.6541 21.392 24.3261 21.072C24.9981 20.7413 25.7607 20.576 26.6141 20.576C27.6167 20.576 28.4807 20.8107 29.2061 21.28C29.9314 21.7387 30.4647 22.3307 30.8061 23.056L29.9261 23.6C29.6807 23.0987 29.3714 22.704 28.9981 22.416C28.6247 22.1173 28.2247 21.904 27.7981 21.776C27.3821 21.648 26.9661 21.584 26.5501 21.584C25.8674 21.584 25.2647 21.7227 24.7421 22C24.2194 22.2667 23.7767 22.6293 23.4141 23.088C23.0621 23.5467 22.7954 24.0533 22.6141 24.608C22.4327 25.1627 22.3421 25.728 22.3421 26.304C22.3421 26.9333 22.4487 27.536 22.6621 28.112C22.8754 28.6773 23.1741 29.184 23.5581 29.632C23.9421 30.08 24.3901 30.4373 24.9021 30.704C25.4247 30.96 25.9901 31.088 26.5981 31.088C27.0247 31.088 27.4621 31.0133 27.9101 30.864C28.3581 30.7147 28.7741 30.4853 29.1581 30.176C29.5421 29.8667 29.8567 29.4667 30.1021 28.976L31.0301 29.456C30.7847 30.0213 30.4167 30.5013 29.9261 30.896C29.4461 31.2907 28.9021 31.5893 28.2941 31.792C27.6967 31.9947 27.1101 32.096 26.5341 32.096C25.7554 32.096 25.0407 31.9307 24.3901 31.6C23.7394 31.2587 23.1741 30.8107 22.6941 30.256C22.2247 29.6907 21.8621 29.0613 21.6061 28.368C21.3501 27.664 21.2221 26.9547 21.2221 26.24ZM36.2708 32.16C35.4708 32.16 34.7561 31.9627 34.1268 31.568C33.5081 31.1733 33.0228 30.6507 32.6708 30C32.3188 29.3387 32.1428 28.624 32.1428 27.856C32.1428 27.0773 32.3188 26.3627 32.6708 25.712C33.0335 25.0507 33.5241 24.5227 34.1428 24.128C34.7721 23.7227 35.4815 23.52 36.2708 23.52C37.0708 23.52 37.7801 23.7227 38.3988 24.128C39.0281 24.5227 39.5188 25.0507 39.8708 25.712C40.2335 26.3627 40.4148 27.0773 40.4148 27.856C40.4148 28.624 40.2388 29.3387 39.8868 30C39.5348 30.6507 39.0441 31.1733 38.4148 31.568C37.7961 31.9627 37.0815 32.16 36.2708 32.16ZM33.2468 27.872C33.2468 28.4907 33.3801 29.056 33.6468 29.568C33.9241 30.0693 34.2921 30.4693 34.7508 30.768C35.2095 31.056 35.7161 31.2 36.2708 31.2C36.8255 31.2 37.3321 31.0507 37.7908 30.752C38.2495 30.4533 38.6175 30.048 38.8948 29.536C39.1721 29.024 39.3108 28.4587 39.3108 27.84C39.3108 27.2213 39.1721 26.656 38.8948 26.144C38.6175 25.632 38.2495 25.2267 37.7908 24.928C37.3321 24.6293 36.8255 24.48 36.2708 24.48C35.7268 24.48 35.2255 24.6347 34.7668 24.944C34.3081 25.2427 33.9401 25.648 33.6628 26.16C33.3855 26.672 33.2468 27.2427 33.2468 27.872ZM49.2424 32H48.1544V27.344C48.1544 26.3627 48.0051 25.648 47.7064 25.2C47.4184 24.7413 46.9704 24.512 46.3624 24.512C45.9358 24.512 45.5144 24.6187 45.0984 24.832C44.6824 25.0347 44.3144 25.3173 43.9944 25.68C43.6851 26.032 43.4611 26.4373 43.3224 26.896V32H42.2344V23.664H43.2264V25.552C43.5571 24.944 44.0424 24.4533 44.6824 24.08C45.3224 23.7067 46.0158 23.52 46.7624 23.52C47.3811 23.52 47.8718 23.6693 48.2344 23.968C48.5971 24.256 48.8531 24.672 49.0024 25.216C49.1624 25.7493 49.2424 26.384 49.2424 27.12V32ZM55.4844 31.6C55.3564 31.6533 55.1218 31.7493 54.7804 31.888C54.4391 32.0267 54.0444 32.096 53.5964 32.096C53.1271 32.096 52.7164 31.9627 52.3644 31.696C52.0124 31.4293 51.8364 31.0293 51.8364 30.496V24.528H50.6844V23.664H51.8364V20.848H52.9244V23.664H54.8444V24.528H52.9244V30.192C52.9458 30.5013 53.0524 30.7307 53.2444 30.88C53.4471 31.0187 53.6764 31.088 53.9324 31.088C54.2311 31.088 54.4978 31.04 54.7324 30.944C54.9778 30.8373 55.1324 30.7627 55.1964 30.72L55.4844 31.6ZM56.1718 29.6C56.1718 29.088 56.3211 28.6453 56.6198 28.272C56.9185 27.888 57.3291 27.5893 57.8518 27.376C58.3851 27.1627 58.9985 27.056 59.6918 27.056C60.0971 27.056 60.5185 27.0933 60.9558 27.168C61.3931 27.232 61.7825 27.3227 62.1238 27.44V26.736C62.1238 26.032 61.9158 25.472 61.4998 25.056C61.0838 24.64 60.5078 24.432 59.7718 24.432C59.3345 24.432 58.8971 24.5173 58.4598 24.688C58.0225 24.848 57.5691 25.088 57.0998 25.408L56.6838 24.64C57.2278 24.2667 57.7611 23.9893 58.2838 23.808C58.8065 23.616 59.3398 23.52 59.8838 23.52C60.9078 23.52 61.7185 23.8133 62.3158 24.4C62.9131 24.9867 63.2118 25.7973 63.2118 26.832V30.688C63.2118 30.976 63.3451 31.1253 63.6118 31.136V32C63.3771 32.032 63.2118 32.0427 63.1158 32.032C62.8491 32.0213 62.6465 31.936 62.5078 31.776C62.3691 31.616 62.2945 31.4453 62.2838 31.264L62.2678 30.656C61.8945 31.136 61.4091 31.5093 60.8118 31.776C60.2145 32.032 59.6065 32.16 58.9878 32.16C58.4438 32.16 57.9585 32.048 57.5318 31.824C57.1051 31.5893 56.7691 31.28 56.5238 30.896C56.2891 30.5013 56.1718 30.0693 56.1718 29.6ZM61.7558 30.24C62.0011 29.952 62.1238 29.6853 62.1238 29.44V28.224C61.3878 27.936 60.6198 27.792 59.8198 27.792C59.0411 27.792 58.4118 27.9467 57.9318 28.256C57.4518 28.5653 57.2118 28.9867 57.2118 29.52C57.2118 29.9787 57.3878 30.3947 57.7398 30.768C58.1025 31.1413 58.6038 31.328 59.2438 31.328C59.7665 31.328 60.2518 31.2267 60.6998 31.024C61.1585 30.8213 61.5105 30.56 61.7558 30.24ZM69.1786 32.16C68.3679 32.16 67.6479 31.9627 67.0186 31.568C66.3892 31.1627 65.8932 30.6347 65.5306 29.984C65.1679 29.3227 64.9866 28.5973 64.9866 27.808C64.9866 27.0187 65.1626 26.304 65.5146 25.664C65.8666 25.0133 66.3572 24.496 66.9866 24.112C67.6159 23.7173 68.3412 23.52 69.1626 23.52C69.9412 23.52 70.6239 23.7013 71.2106 24.064C71.8079 24.416 72.2559 24.896 72.5546 25.504L71.4986 25.84C71.2639 25.4133 70.9332 25.0827 70.5066 24.848C70.0906 24.6027 69.6266 24.48 69.1146 24.48C68.5492 24.48 68.0372 24.624 67.5786 24.912C67.1306 25.2 66.7679 25.6 66.4906 26.112C66.2239 26.6133 66.0906 27.1787 66.0906 27.808C66.0906 28.4373 66.2292 29.008 66.5066 29.52C66.7839 30.032 67.1519 30.4427 67.6106 30.752C68.0692 31.0507 68.5759 31.2 69.1306 31.2C69.4932 31.2 69.8452 31.136 70.1866 31.008C70.5279 30.88 70.8212 30.7093 71.0666 30.496C71.3119 30.272 71.4772 30.032 71.5626 29.776L72.6346 30.096C72.4852 30.4907 72.2399 30.848 71.8986 31.168C71.5572 31.4773 71.1519 31.7227 70.6826 31.904C70.2132 32.0747 69.7119 32.16 69.1786 32.16ZM78.3438 31.6C78.2158 31.6533 77.9811 31.7493 77.6398 31.888C77.2985 32.0267 76.9038 32.096 76.4558 32.096C75.9865 32.096 75.5758 31.9627 75.2238 31.696C74.8718 31.4293 74.6958 31.0293 74.6958 30.496V24.528H73.5438V23.664H74.6958V20.848H75.7838V23.664H77.7038V24.528H75.7838V30.192C75.8051 30.5013 75.9118 30.7307 76.1038 30.88C76.3065 31.0187 76.5358 31.088 76.7918 31.088C77.0905 31.088 77.3571 31.04 77.5918 30.944C77.8371 30.8373 77.9918 30.7627 78.0558 30.72L78.3438 31.6ZM79.0312 29.6C79.0312 29.088 79.1805 28.6453 79.4792 28.272C79.7778 27.888 80.1885 27.5893 80.7112 27.376C81.2445 27.1627 81.8578 27.056 82.5512 27.056C82.9565 27.056 83.3778 27.0933 83.8152 27.168C84.2525 27.232 84.6418 27.3227 84.9832 27.44V26.736C84.9832 26.032 84.7752 25.472 84.3592 25.056C83.9432 24.64 83.3672 24.432 82.6312 24.432C82.1938 24.432 81.7565 24.5173 81.3192 24.688C80.8818 24.848 80.4285 25.088 79.9592 25.408L79.5432 24.64C80.0872 24.2667 80.6205 23.9893 81.1432 23.808C81.6658 23.616 82.1992 23.52 82.7432 23.52C83.7672 23.52 84.5778 23.8133 85.1752 24.4C85.7725 24.9867 86.0712 25.7973 86.0712 26.832V30.688C86.0712 30.976 86.2045 31.1253 86.4712 31.136V32C86.2365 32.032 86.0712 32.0427 85.9752 32.032C85.7085 32.0213 85.5058 31.936 85.3672 31.776C85.2285 31.616 85.1538 31.4453 85.1432 31.264L85.1272 30.656C84.7538 31.136 84.2685 31.5093 83.6712 31.776C83.0738 32.032 82.4658 32.16 81.8472 32.16C81.3032 32.16 80.8178 32.048 80.3912 31.824C79.9645 31.5893 79.6285 31.28 79.3832 30.896C79.1485 30.5013 79.0312 30.0693 79.0312 29.6ZM84.6152 30.24C84.8605 29.952 84.9832 29.6853 84.9832 29.44V28.224C84.2472 27.936 83.4792 27.792 82.6792 27.792C81.9005 27.792 81.2712 27.9467 80.7912 28.256C80.3112 28.5653 80.0712 28.9867 80.0712 29.52C80.0712 29.9787 80.2472 30.3947 80.5992 30.768C80.9618 31.1413 81.4632 31.328 82.1032 31.328C82.6258 31.328 83.1112 31.2267 83.5592 31.024C84.0178 30.8213 84.3698 30.56 84.6152 30.24Z" fill="white"/>
<path d="M107.517 26H122.096M122.096 26L114.806 19M122.096 26L114.806 33" stroke="white" stroke-linecap="round" stroke-linejoin="round"/>
<rect x="0.5" y="0.5" width="147" height="51" rx="25.5" stroke="white"/>
</svg>
