<svg width="166" height="52" viewBox="0 0 166 52" fill="none" xmlns="http://www.w3.org/2000/svg">
<path d="M25.047 26.24C25.047 25.5467 25.1643 24.8693 25.399 24.208C25.6443 23.536 25.9963 22.928 26.455 22.384C26.9137 21.8293 27.479 21.392 28.151 21.072C28.823 20.7413 29.5857 20.576 30.439 20.576C31.4523 20.576 32.3163 20.8107 33.031 21.28C33.7563 21.7387 34.2897 22.3307 34.631 23.056L33.751 23.6C33.5057 23.0987 33.1963 22.704 32.823 22.416C32.4497 22.1173 32.0497 21.904 31.623 21.776C31.207 21.648 30.791 21.584 30.375 21.584C29.6923 21.584 29.0897 21.7227 28.567 22C28.0443 22.2667 27.6017 22.6293 27.239 23.088C26.887 23.536 26.6203 24.0427 26.439 24.608C26.2577 25.1627 26.167 25.728 26.167 26.304C26.167 26.9333 26.2737 27.536 26.487 28.112C26.7003 28.688 26.999 29.2 27.383 29.648C27.767 30.0853 28.215 30.4373 28.727 30.704C29.2497 30.96 29.815 31.088 30.423 31.088C30.8497 31.088 31.287 31.0133 31.735 30.864C32.183 30.7147 32.599 30.4853 32.983 30.176C33.3777 29.8667 33.6923 29.4667 33.927 28.976L34.855 29.456C34.6203 30.0213 34.2577 30.5013 33.767 30.896C33.2763 31.2907 32.727 31.5893 32.119 31.792C31.5217 31.9947 30.935 32.096 30.359 32.096C29.5803 32.096 28.8657 31.9307 28.215 31.6C27.5643 31.2587 26.999 30.8107 26.519 30.256C26.0497 29.6907 25.687 29.0613 25.431 28.368C25.175 27.664 25.047 26.9547 25.047 26.24ZM40.0958 32.16C39.4984 32.16 38.9438 32.048 38.4318 31.824C37.9304 31.5893 37.4931 31.2747 37.1198 30.88C36.7571 30.4747 36.4744 30.016 36.2718 29.504C36.0691 28.9813 35.9678 28.432 35.9678 27.856C35.9678 27.2587 36.0691 26.704 36.2718 26.192C36.4744 25.6693 36.7624 25.2107 37.1358 24.816C37.5091 24.4107 37.9464 24.096 38.4478 23.872C38.9598 23.6373 39.5144 23.52 40.1118 23.52C40.7091 23.52 41.2584 23.6373 41.7598 23.872C42.2611 24.096 42.6984 24.4107 43.0718 24.816C43.4451 25.2107 43.7331 25.6693 43.9358 26.192C44.1384 26.704 44.2398 27.2587 44.2398 27.856C44.2398 28.432 44.1384 28.9813 43.9358 29.504C43.7331 30.016 43.4451 30.4747 43.0718 30.88C42.7091 31.2747 42.2718 31.5893 41.7598 31.824C41.2584 32.048 40.7038 32.16 40.0958 32.16ZM37.0718 27.872C37.0718 28.4907 37.2051 29.056 37.4718 29.568C37.7491 30.0693 38.1171 30.4693 38.5758 30.768C39.0344 31.056 39.5411 31.2 40.0958 31.2C40.6504 31.2 41.1571 31.0507 41.6158 30.752C42.0744 30.4533 42.4424 30.048 42.7198 29.536C42.9971 29.0133 43.1358 28.448 43.1358 27.84C43.1358 27.2213 42.9971 26.656 42.7198 26.144C42.4424 25.632 42.0744 25.2267 41.6158 24.928C41.1571 24.6293 40.6504 24.48 40.0958 24.48C39.5411 24.48 39.0344 24.6347 38.5758 24.944C38.1278 25.2533 37.7651 25.664 37.4878 26.176C37.2104 26.6773 37.0718 27.2427 37.0718 27.872ZM53.0674 32H51.9794V27.344C51.9794 26.3627 51.8354 25.648 51.5474 25.2C51.2594 24.7413 50.806 24.512 50.1874 24.512C49.7607 24.512 49.3394 24.6187 48.9234 24.832C48.5074 25.0347 48.1394 25.3173 47.8194 25.68C47.51 26.032 47.286 26.4373 47.1474 26.896V32H46.0594V23.664H47.0514V25.552C47.2754 25.1467 47.5687 24.7947 47.9314 24.496C48.294 24.1867 48.7047 23.9467 49.1634 23.776C49.622 23.6053 50.0967 23.52 50.5874 23.52C51.046 23.52 51.4354 23.6053 51.7554 23.776C52.0754 23.9467 52.3314 24.192 52.5234 24.512C52.7154 24.8213 52.854 25.2 52.9394 25.648C53.0247 26.0853 53.0674 26.576 53.0674 27.12V32ZM59.3094 31.6C59.224 31.632 59.0907 31.6907 58.9094 31.776C58.728 31.8613 58.5094 31.936 58.2534 32C57.9974 32.064 57.72 32.096 57.4214 32.096C57.112 32.096 56.8187 32.0373 56.5414 31.92C56.2747 31.8027 56.0614 31.6267 55.9014 31.392C55.7414 31.1467 55.6614 30.848 55.6614 30.496V24.528H54.5094V23.664H55.6614V20.848H56.7494V23.664H58.6694V24.528H56.7494V30.192C56.7707 30.4907 56.8774 30.7147 57.0694 30.864C57.272 31.0133 57.5014 31.088 57.7574 31.088C58.056 31.088 58.328 31.04 58.5734 30.944C58.8187 30.8373 58.968 30.7627 59.0214 30.72L59.3094 31.6ZM59.9967 29.6C59.9967 29.0773 60.1461 28.6293 60.4448 28.256C60.7434 27.872 61.1541 27.5787 61.6768 27.376C62.2101 27.1627 62.8234 27.056 63.5168 27.056C63.9221 27.056 64.3434 27.088 64.7808 27.152C65.2181 27.216 65.6074 27.312 65.9488 27.44V26.736C65.9488 26.032 65.7408 25.472 65.3248 25.056C64.9088 24.64 64.3328 24.432 63.5968 24.432C63.1488 24.432 62.7061 24.5173 62.2688 24.688C61.8421 24.848 61.3941 25.088 60.9248 25.408L60.5088 24.64C61.0528 24.2667 61.5861 23.9893 62.1088 23.808C62.6314 23.616 63.1648 23.52 63.7088 23.52C64.7328 23.52 65.5434 23.8133 66.1408 24.4C66.7381 24.9867 67.0368 25.7973 67.0368 26.832V30.688C67.0368 30.8373 67.0688 30.9493 67.1328 31.024C67.1968 31.088 67.2981 31.1253 67.4368 31.136V32C67.3194 32.0107 67.2181 32.0213 67.1328 32.032C67.0474 32.0427 66.9834 32.0427 66.9408 32.032C66.6741 32.0213 66.4714 31.936 66.3328 31.776C66.1941 31.616 66.1194 31.4453 66.1088 31.264L66.0928 30.656C65.7194 31.136 65.2341 31.5093 64.6368 31.776C64.0394 32.032 63.4314 32.16 62.8128 32.16C62.2794 32.16 61.7941 32.048 61.3568 31.824C60.9301 31.5893 60.5941 31.28 60.3488 30.896C60.1141 30.5013 59.9967 30.0693 59.9967 29.6ZM65.5808 30.24C65.6981 30.0907 65.7888 29.9467 65.8528 29.808C65.9168 29.6693 65.9488 29.5467 65.9488 29.44V28.224C65.5861 28.0853 65.2074 27.9787 64.8128 27.904C64.4288 27.8293 64.0394 27.792 63.6448 27.792C62.8661 27.792 62.2368 27.9467 61.7568 28.256C61.2768 28.5653 61.0368 28.9867 61.0368 29.52C61.0368 29.8293 61.1168 30.1227 61.2768 30.4C61.4368 30.6667 61.6714 30.8907 61.9808 31.072C62.2901 31.2427 62.6528 31.328 63.0688 31.328C63.5914 31.328 64.0768 31.2267 64.5248 31.024C64.9834 30.8213 65.3354 30.56 65.5808 30.24ZM64.0608 22.08L63.3408 21.808L64.2848 20.32H65.4368L64.0608 22.08ZM73.0035 32.16C72.3955 32.16 71.8355 32.048 71.3235 31.824C70.8222 31.5893 70.3795 31.2693 69.9955 30.864C69.6222 30.4587 69.3288 29.9947 69.1155 29.472C68.9128 28.9493 68.8115 28.3947 68.8115 27.808C68.8115 27.0187 68.9875 26.2987 69.3395 25.648C69.6915 24.9973 70.1822 24.48 70.8115 24.096C71.4408 23.712 72.1662 23.52 72.9875 23.52C73.7662 23.52 74.4542 23.7013 75.0515 24.064C75.6488 24.416 76.0915 24.896 76.3795 25.504L75.3235 25.84C75.0888 25.4133 74.7582 25.0827 74.3315 24.848C73.9155 24.6027 73.4515 24.48 72.9395 24.48C72.3848 24.48 71.8782 24.624 71.4195 24.912C70.9608 25.2 70.5928 25.5947 70.3155 26.096C70.0488 26.5973 69.9155 27.168 69.9155 27.808C69.9155 28.4373 70.0542 29.008 70.3315 29.52C70.6088 30.032 70.9768 30.4427 71.4355 30.752C71.8942 31.0507 72.4008 31.2 72.9555 31.2C73.3182 31.2 73.6648 31.136 73.9955 31.008C74.3368 30.88 74.6302 30.7093 74.8755 30.496C75.1315 30.272 75.3022 30.032 75.3875 29.776L76.4595 30.096C76.3102 30.4907 76.0595 30.848 75.7075 31.168C75.3662 31.4773 74.9608 31.7227 74.4915 31.904C74.0328 32.0747 73.5368 32.16 73.0035 32.16ZM82.1688 31.6C82.0834 31.632 81.9501 31.6907 81.7688 31.776C81.5874 31.8613 81.3688 31.936 81.1128 32C80.8568 32.064 80.5794 32.096 80.2808 32.096C79.9714 32.096 79.6781 32.0373 79.4008 31.92C79.1341 31.8027 78.9208 31.6267 78.7608 31.392C78.6008 31.1467 78.5208 30.848 78.5208 30.496V24.528H77.3688V23.664H78.5208V20.848H79.6088V23.664H81.5288V24.528H79.6088V30.192C79.6301 30.4907 79.7368 30.7147 79.9288 30.864C80.1314 31.0133 80.3608 31.088 80.6168 31.088C80.9154 31.088 81.1874 31.04 81.4328 30.944C81.6781 30.8373 81.8274 30.7627 81.8808 30.72L82.1688 31.6ZM82.8561 29.6C82.8561 29.0773 83.0055 28.6293 83.3041 28.256C83.6028 27.872 84.0135 27.5787 84.5361 27.376C85.0695 27.1627 85.6828 27.056 86.3761 27.056C86.7815 27.056 87.2028 27.088 87.6401 27.152C88.0775 27.216 88.4668 27.312 88.8081 27.44V26.736C88.8081 26.032 88.6001 25.472 88.1841 25.056C87.7681 24.64 87.1921 24.432 86.4561 24.432C86.0081 24.432 85.5655 24.5173 85.1281 24.688C84.7015 24.848 84.2535 25.088 83.7841 25.408L83.3681 24.64C83.9121 24.2667 84.4455 23.9893 84.9681 23.808C85.4908 23.616 86.0241 23.52 86.5681 23.52C87.5921 23.52 88.4028 23.8133 89.0001 24.4C89.5975 24.9867 89.8961 25.7973 89.8961 26.832V30.688C89.8961 30.8373 89.9281 30.9493 89.9921 31.024C90.0561 31.088 90.1575 31.1253 90.2961 31.136V32C90.1788 32.0107 90.0775 32.0213 89.9921 32.032C89.9068 32.0427 89.8428 32.0427 89.8001 32.032C89.5335 32.0213 89.3308 31.936 89.1921 31.776C89.0535 31.616 88.9788 31.4453 88.9681 31.264L88.9521 30.656C88.5788 31.136 88.0935 31.5093 87.4961 31.776C86.8988 32.032 86.2908 32.16 85.6721 32.16C85.1388 32.16 84.6535 32.048 84.2161 31.824C83.7895 31.5893 83.4535 31.28 83.2081 30.896C82.9735 30.5013 82.8561 30.0693 82.8561 29.6ZM88.4401 30.24C88.5575 30.0907 88.6481 29.9467 88.7121 29.808C88.7761 29.6693 88.8081 29.5467 88.8081 29.44V28.224C88.4455 28.0853 88.0668 27.9787 87.6721 27.904C87.2881 27.8293 86.8988 27.792 86.5041 27.792C85.7255 27.792 85.0961 27.9467 84.6161 28.256C84.1361 28.5653 83.8961 28.9867 83.8961 29.52C83.8961 29.8293 83.9761 30.1227 84.1361 30.4C84.2961 30.6667 84.5308 30.8907 84.8401 31.072C85.1495 31.2427 85.5121 31.328 85.9281 31.328C86.4508 31.328 86.9361 31.2267 87.3841 31.024C87.8428 30.8213 88.1948 30.56 88.4401 30.24ZM99.2549 32H98.1669V27.344C98.1669 26.3627 98.0229 25.648 97.7349 25.2C97.4469 24.7413 96.9935 24.512 96.3749 24.512C95.9482 24.512 95.5269 24.6187 95.1109 24.832C94.6949 25.0347 94.3269 25.3173 94.0069 25.68C93.6975 26.032 93.4735 26.4373 93.3349 26.896V32H92.2469V23.664H93.2389V25.552C93.4629 25.1467 93.7562 24.7947 94.1189 24.496C94.4815 24.1867 94.8922 23.9467 95.3509 23.776C95.8095 23.6053 96.2842 23.52 96.7749 23.52C97.2335 23.52 97.6229 23.6053 97.9429 23.776C98.2629 23.9467 98.5189 24.192 98.7109 24.512C98.9029 24.8213 99.0415 25.2 99.1269 25.648C99.2122 26.0853 99.2549 26.576 99.2549 27.12V32ZM105.127 32.16C104.53 32.16 103.975 32.048 103.463 31.824C102.962 31.5893 102.524 31.2747 102.151 30.88C101.788 30.4747 101.506 30.016 101.303 29.504C101.1 28.9813 100.999 28.432 100.999 27.856C100.999 27.2587 101.1 26.704 101.303 26.192C101.506 25.6693 101.794 25.2107 102.167 24.816C102.54 24.4107 102.978 24.096 103.479 23.872C103.991 23.6373 104.546 23.52 105.143 23.52C105.74 23.52 106.29 23.6373 106.791 23.872C107.292 24.096 107.73 24.4107 108.103 24.816C108.476 25.2107 108.764 25.6693 108.967 26.192C109.17 26.704 109.271 27.2587 109.271 27.856C109.271 28.432 109.17 28.9813 108.967 29.504C108.764 30.016 108.476 30.4747 108.103 30.88C107.74 31.2747 107.303 31.5893 106.791 31.824C106.29 32.048 105.735 32.16 105.127 32.16ZM102.103 27.872C102.103 28.4907 102.236 29.056 102.503 29.568C102.78 30.0693 103.148 30.4693 103.607 30.768C104.066 31.056 104.572 31.2 105.127 31.2C105.682 31.2 106.188 31.0507 106.647 30.752C107.106 30.4533 107.474 30.048 107.751 29.536C108.028 29.0133 108.167 28.448 108.167 27.84C108.167 27.2213 108.028 26.656 107.751 26.144C107.474 25.632 107.106 25.2267 106.647 24.928C106.188 24.6293 105.682 24.48 105.127 24.48C104.572 24.48 104.066 24.6347 103.607 24.944C103.159 25.2533 102.796 25.664 102.519 26.176C102.242 26.6773 102.103 27.2427 102.103 27.872ZM113.827 32.16C113.144 32.16 112.509 32.048 111.923 31.824C111.336 31.6 110.829 31.2587 110.403 30.8L110.851 30.032C111.32 30.4693 111.789 30.7893 112.259 30.992C112.739 31.184 113.245 31.28 113.779 31.28C114.429 31.28 114.957 31.152 115.363 30.896C115.768 30.6293 115.971 30.2507 115.971 29.76C115.971 29.4293 115.869 29.1787 115.667 29.008C115.475 28.8267 115.192 28.6827 114.819 28.576C114.456 28.4587 114.019 28.336 113.507 28.208C112.931 28.048 112.445 27.8827 112.051 27.712C111.667 27.5307 111.373 27.3067 111.171 27.04C110.979 26.7627 110.883 26.4053 110.883 25.968C110.883 25.424 111.016 24.976 111.283 24.624C111.56 24.2613 111.933 23.9893 112.403 23.808C112.883 23.616 113.416 23.52 114.003 23.52C114.643 23.52 115.208 23.6213 115.699 23.824C116.189 24.0267 116.589 24.3093 116.899 24.672L116.371 25.408C116.072 25.0667 115.715 24.816 115.299 24.656C114.893 24.4853 114.44 24.4 113.939 24.4C113.597 24.4 113.272 24.448 112.963 24.544C112.653 24.6293 112.397 24.7787 112.195 24.992C112.003 25.1947 111.907 25.4773 111.907 25.84C111.907 26.1387 111.981 26.3733 112.131 26.544C112.28 26.704 112.504 26.8427 112.803 26.96C113.101 27.0667 113.469 27.184 113.907 27.312C114.536 27.4827 115.085 27.6587 115.555 27.84C116.024 28.0107 116.387 28.2347 116.643 28.512C116.899 28.7893 117.027 29.1787 117.027 29.68C117.027 30.4587 116.733 31.0667 116.147 31.504C115.56 31.9413 114.787 32.16 113.827 32.16Z" fill="white"/>
<path d="M128 26H142M142 26L135 19M142 26L135 33" stroke="white" stroke-linecap="round" stroke-linejoin="round"/>
<rect x="0.5" y="0.5" width="165" height="51" rx="25.5" stroke="white"/>
</svg>
