<svg width="390" height="238" viewBox="0 0 390 238" fill="none" xmlns="http://www.w3.org/2000/svg">
<path d="M55.2965 191.584C55.2965 193.066 55.3435 193.358 55.7398 193.903C56.1838 194.527 57.0241 194.897 57.9819 194.897C59.0331 194.897 59.9439 194.488 60.3638 193.844C60.7137 193.338 60.7842 192.947 60.7842 191.584V184.55H64.8239V192.052C64.8239 193.962 64.4269 194.994 63.3065 196.047C61.9987 197.274 60.2234 197.879 57.8657 197.879C55.5537 197.879 53.4513 197.118 52.3772 195.93C51.5604 195.034 51.2568 193.962 51.2568 192.052V184.55H55.2965V191.584Z" fill="#393B42"/>
<path d="M68.093 184.55H72.1326L79.5825 192.5V184.55H83.6221V197.547H79.5825L72.1326 189.597V197.547H68.093V184.55Z" fill="#393B42"/>
<path d="M90.9317 184.551H86.8915V197.547H90.9317V184.551Z" fill="#393B42"/>
<path d="M100.716 192.461L104.499 184.55H108.89L102.257 197.547H99.1042L92.5665 184.55H96.979L100.716 192.461Z" fill="#393B42"/>
<path d="M114.564 187.415V189.578H119.118V192.442H114.564V194.683H119.375V197.548H110.524V184.55H119.375V187.415H114.564Z" fill="#393B42"/>
<path d="M134.88 197.547H129.836L125.983 192.559V197.547H121.943V184.551H128.225C130 184.551 131.144 184.901 132.054 185.7C132.895 186.44 133.386 187.493 133.386 188.564C133.386 190.513 132.195 191.799 129.976 192.228L134.88 197.547ZM126.73 190.376C128.318 190.376 129.229 189.773 129.229 188.759C129.229 187.746 128.295 187.142 126.73 187.142H125.983V190.376H126.73Z" fill="#393B42"/>
<path d="M145.132 187.921C144.221 187.318 143.404 187.045 142.47 187.045C141.513 187.045 140.742 187.532 140.742 188.156C140.742 188.565 141.092 188.895 141.793 189.168C142.003 189.247 142.166 189.286 143.544 189.636C146.253 190.298 147.374 191.37 147.374 193.241C147.374 196.163 145.132 197.878 141.302 197.878C139.41 197.878 137.519 197.372 135.885 196.416L137.612 193.688C138.85 194.585 139.994 195.014 141.186 195.014C142.376 195.014 143.147 194.507 143.147 193.747C143.147 193.045 142.61 192.714 140.718 192.247C138.943 191.818 138.266 191.565 137.683 191.156C136.912 190.59 136.515 189.752 136.515 188.622C136.515 186.011 138.663 184.238 141.816 184.238C143.451 184.238 145.178 184.608 146.743 185.29L145.132 187.921Z" fill="#393B42"/>
<path d="M153.959 184.551H149.919V197.547H153.959V184.551Z" fill="#393B42"/>
<path d="M157.228 184.55H163.206C167.316 184.55 170.866 187.551 170.866 191.039C170.866 194.546 167.316 197.547 163.206 197.547H157.228V184.55ZM162.202 194.683C164.887 194.683 166.639 193.241 166.639 191.039C166.639 188.856 164.887 187.415 162.202 187.415H161.268V194.683H162.202Z" fill="#393B42"/>
<path d="M176.678 195.286L175.604 197.547H171.331L177.309 184.55H181.722L187.584 197.547H183.264L182.26 195.286H176.678ZM179.504 188.564L177.8 192.715H181.162L179.504 188.564Z" fill="#393B42"/>
<path d="M189.382 184.55H195.36C199.471 184.55 203.019 187.551 203.019 191.039C203.019 194.546 199.471 197.547 195.36 197.547H189.382V184.55ZM194.356 194.683C197.042 194.683 198.793 193.241 198.793 191.039C198.793 188.856 197.041 187.415 194.356 187.415H193.422V194.683H194.356Z" fill="#393B42"/>
<path d="M218.084 197.547H214.044V184.551H220.466C222.287 184.551 223.361 184.843 224.366 185.642C225.37 186.421 225.884 187.493 225.884 188.818C225.884 191.702 224.062 193.222 220.606 193.222H218.084V197.547ZM219.415 190.513C220.979 190.513 221.657 190.006 221.657 188.856C221.657 187.804 220.909 187.258 219.439 187.258H218.084V190.513H219.415Z" fill="#393B42"/>
<path d="M244.991 191.077C244.991 195.034 241.302 198.015 236.374 198.015C231.447 198.015 227.758 195.033 227.758 191.077C227.758 187.142 231.447 184.161 236.374 184.161C241.301 184.161 244.991 187.122 244.991 191.077ZM231.984 191.077C231.984 193.105 233.945 194.742 236.374 194.742C238.803 194.742 240.764 193.105 240.764 191.077C240.764 189.07 238.803 187.434 236.374 187.434C233.945 187.434 231.984 189.07 231.984 191.077Z" fill="#393B42"/>
<path d="M247.134 184.55H251.174L258.624 192.5V184.55H262.663V197.547H258.624L251.174 189.597V197.547H247.134V184.55Z" fill="#393B42"/>
<path d="M271.795 197.547H267.755V187.415H264.461V184.551H275.156V187.415H271.795V197.547Z" fill="#393B42"/>
<path d="M280.972 184.551H276.932V197.547H280.972V184.551Z" fill="#393B42"/>
<path d="M288.281 187.415V189.578H292.717V192.442H288.281V197.548H284.241V184.55H293.161V187.415H288.281Z" fill="#393B42"/>
<path d="M300.031 184.551H295.991V197.547H300.031V184.551Z" fill="#393B42"/>
<path d="M314.085 188.974C313.127 188.019 311.982 187.552 310.582 187.552C308.153 187.552 306.403 189.053 306.403 191.138C306.403 193.144 308.177 194.625 310.582 194.625C311.913 194.625 313.034 194.196 314.085 193.261V197.255C312.193 197.781 311.563 197.898 310.511 197.898C305.818 197.898 302.174 194.936 302.174 191.118C302.174 187.318 305.84 184.278 310.418 184.278C311.632 184.278 312.613 184.453 314.084 184.941V188.974H314.085Z" fill="#393B42"/>
<path d="M320.693 184.551H316.653V197.547H320.693V184.551Z" fill="#393B42"/>
<path d="M327.838 195.286L326.763 197.547H322.49L328.468 184.55H332.882L338.743 197.547H334.424L333.419 195.286H327.838ZM330.665 188.564L328.96 192.715H332.322L330.665 188.564Z" fill="#393B42"/>
<path d="M57.5228 142.059C54.6115 139.488 50.2082 137.945 45.7343 137.945C35.7205 137.945 29.9676 144.631 29.9676 151.315C29.9676 157.847 35.934 164.377 45.6632 164.377C50.137 164.377 54.6115 162.681 57.5228 160.263V169.263C53.6171 170.599 49.7113 171.577 45.3792 171.577C30.3228 171.577 19.1742 162.166 19.1742 151.47C19.1742 140.466 29.8965 130.747 45.592 130.747C49.7825 130.747 53.9011 131.57 57.5228 133.01V142.059Z" fill="#393B42"/>
<path d="M64.8944 150.853C64.8944 140.003 75.7597 130.49 91.3841 130.49C107.007 130.49 117.873 140.003 117.873 150.853C117.873 161.961 107.007 171.32 91.3841 171.32C75.7597 171.32 64.8944 161.96 64.8944 150.853ZM75.6885 150.544C75.6885 156.407 82.5069 163.863 91.3841 163.863C100.261 163.863 107.078 156.406 107.078 150.544C107.078 144.27 100.545 137.945 91.3841 137.945C82.2229 137.945 75.6885 144.271 75.6885 150.544Z" fill="#393B42"/>
<path d="M167.031 146.739H166.89L154.745 171.319H151.124L139.405 146.739H139.263L134.506 170.805H123.995L133.014 131.003H140.4L153.609 156.561L166.251 131.003H173.778L181.803 170.805H171.292L167.031 146.739Z" fill="#393B42"/>
<path d="M202.807 131.003H192.367V170.805H202.807V131.003Z" fill="#393B42"/>
<path d="M225.484 164.223H240.256V170.805H215.044V131.003H225.484V164.223Z" fill="#393B42"/>
<path d="M258.729 164.223H273.501V170.805H248.289V131.003H258.729V164.223Z" fill="#393B42"/>
<path d="M295.784 162.629L291.38 170.805H280.373L301.253 131.004H309.348L329.658 170.805H318.509L314.391 162.629H295.784V162.629ZM304.802 142.368H304.66L298.766 156.458H311.478L304.802 142.368Z" fill="#393B42"/>
<path d="M363.855 140.053C361.777 138.1 359.107 136.865 355.473 136.865C351.987 136.865 348.65 138.716 348.65 141.236C348.65 147.766 370.826 145.041 370.826 158.051C370.826 165.816 363.855 171.319 352.433 171.319C344.72 171.319 339.083 168.234 335.226 163.76L342.271 158.977C343.755 161.96 347.685 164.634 352.358 164.634C356.808 164.634 359.553 162.011 359.553 159.029C359.553 155.019 354.213 153.887 349.837 152.705C342.642 150.647 337.376 148.127 337.376 142.111C337.376 135.683 344.274 130.49 353.693 130.49C358.662 130.49 365.56 132.187 368.972 134.809L363.855 140.053Z" fill="#393B42"/>
<path d="M163.45 60.0875C163.777 61.0191 164.91 61.5672 166.067 61.4675C172.763 60.8911 175.059 65.6762 179.12 63.5634C184.434 60.7984 187.494 54.3336 187.494 54.3336C187.494 54.3336 185.167 53.8972 182.04 56.1724C178.912 58.4481 171.089 57.4314 170.605 53.1448C169.974 47.544 166.081 47.2329 166.081 47.2329C167.722 50.9916 166.567 51.9238 166.567 51.9238C165.897 51.178 164.613 51.318 164.613 51.318C165.562 52.6692 165.45 56.1173 165.45 56.1173C164.78 55.3252 163.664 54.9988 163.664 54.9988C163.664 54.9988 164.947 56.9558 163.719 58.4939C163.284 59.0392 163.277 59.596 163.45 60.0875Z" fill="#F8BC00"/>
<path d="M194.383 74.9147C177.183 73.2726 178.917 85.256 180.253 87.4783C181.59 89.7007 179.207 91.5444 179.207 91.5444L178.836 91.5051C177.661 91.3809 176.503 91.1532 175.401 90.792C167.736 88.2792 164.672 92.3289 164.672 92.3289C164.672 92.3289 168.171 92.1802 170.552 93.3532C170.552 93.3532 169.289 93.6588 168.6 95.2415C168.6 95.2415 172.198 94.0337 174.922 95.3243C174.922 95.3243 173.94 96.3007 174.577 97.8153C174.577 97.8153 175.621 95.7362 182.465 98.9665C186.326 100.789 186.165 97.076 186.165 97.076C186.327 93.0274 187.727 91.3482 188.504 90.7233C189.177 90.1818 189.828 89.6206 190.386 88.9951C196.642 81.9833 194.383 74.9147 194.383 74.9147Z" fill="#F8BC00"/>
<path d="M225.763 64.6067C225.048 61.9899 223.202 59.7039 220.735 57.9817C219.54 57.1481 218.464 56.12 218.021 55.318C216.866 53.2259 217.363 50.4669 219.099 49.8867C221.814 48.9806 222.254 51.9434 222.254 51.9434C222.254 51.9434 222.249 51.9505 222.246 51.9532C221.729 51.7647 220.588 51.2923 220.352 50.7257C220.352 50.7257 219.936 52.868 221.511 54.0219C221.511 54.0219 221.173 54.3793 220.34 53.8982C220.34 53.8982 220.424 55.0554 221.712 56.1413C223.002 57.2282 226.112 58.9346 226.112 58.9346C226.112 58.9346 224.953 57.5175 225.287 54.5128C225.642 51.3185 223.591 47.7335 219.723 47.9776C216.743 48.1661 215.432 50.498 215.352 52.5868C215.287 54.3068 216.172 56.2344 217.578 57.4941C218.827 58.6148 221.209 60.0732 220.974 60.5434C220.974 60.5434 219.389 59.335 217.121 60.0384C217.121 60.0384 220.565 61.432 220.969 63.2299C220.969 63.2299 219.668 62.9679 219.13 63.6402C219.13 63.6402 223.134 64.5473 223.283 67.7128C223.484 71.9754 218.454 74.7606 215.651 75.4694C211.003 76.644 206.774 73.7499 207.644 60.1773L204.793 63.3019L201.701 58.8468C199.225 60.9722 194.867 63.0267 192.384 63.7661L191.47 59.0838C187.085 57.9947 181.569 64.7467 177.38 67.5281C174.74 69.2818 170.417 69.8332 167.581 70.0016C166.588 70.0604 165.775 70.0729 165.284 70.0729C164.987 70.0735 164.733 69.8926 164.686 69.6474L163.954 65.941C163.835 65.3384 163.629 64.7467 163.299 64.2019C161.734 61.6205 159.14 62.021 159.14 62.021C160.463 63.2218 160.04 65.4278 160.04 65.4278C159.03 64.641 157.751 64.8661 157.751 64.8661C159.03 65.7645 159.367 68.9675 159.367 68.9675C158.896 68.2369 157.145 68.1246 157.145 68.1246C158.29 69.1358 158.626 72.1138 158.626 72.1138C157.953 71.271 156.674 71.046 156.674 71.046C157.238 71.7259 157.043 73.6317 157.013 73.8932C156.982 73.8731 156.983 73.8905 157.009 73.9254C157.009 73.9254 157.01 73.9128 157.013 73.8932C157.139 73.9766 157.821 74.7175 159.714 77.6765C161.835 80.9912 164.428 79.0658 166.082 77.5637C166.36 77.3109 166.883 77.0717 167.581 76.8429C171.038 75.7097 178.869 74.8401 183.46 73.9815C188.979 72.9485 189.96 69.8174 189.96 69.8174C189.96 69.8174 197.878 71.9809 197.036 79.2728C197.036 79.2728 202.065 73.0264 206.139 74.0158C201.115 74.1858 189.865 90.9288 204.582 88.1709C206.08 87.8886 205.5 88.7342 205.252 89.5781C203.845 93.3102 204.509 95.01 195.727 97.9417C193.287 98.7606 194.072 102.446 194.012 102.752C194.012 102.752 196.518 100.132 198.828 99.7947C198.828 99.7947 198.354 101.138 199.894 102.126C199.894 102.126 201.433 98.9633 203.685 98.8151C203.685 98.8151 204.091 99.92 206.139 100.801C206.139 100.801 205.877 97.9254 208.008 97.7772C210.141 97.6284 211.705 97.902 212.421 94.7703C212.515 94.3639 213.798 86.8404 217.35 82.3854C218.479 80.9667 216.673 81.0054 216.673 81.0054C216.673 81.0054 214.401 81.0124 215.674 79.1905C216.029 78.6817 216.836 78.0306 217.441 77.7271C220.317 76.2795 228.023 72.8946 225.763 64.6067Z" fill="#F8BC00"/>
<path d="M179.98 43.4301L182.488 43.4274C184.129 43.4252 187.159 43.7216 186.777 46.5514C186.682 47.2782 185.754 47.1223 181.73 47.1273L180.759 47.1283L180.761 48.6598C180.763 49.4553 181.588 50.0753 182.537 49.9936C183.671 49.8966 185.039 49.7647 185.643 49.6498C193.054 48.242 188.525 55.6608 187.335 57.2272C187.155 57.4555 186.306 58.6595 186.172 58.8578C186.172 58.8578 190.445 57.8205 192.476 57.6358L193.432 61.9764C193.432 61.9764 198.587 60.1703 201.982 57.3547L205.016 60.9516L207.173 56.848C207.96 57.128 210.336 56.848 210.336 56.848C207.034 54.7542 207.185 52.4692 207.185 52.4692C208.838 53.0075 210.87 52.2726 210.87 52.2726C208.276 50.0704 208.066 48.9955 207.723 47.4601C208.778 47.1278 209.398 46.8548 209.398 46.8548C207.523 45.9946 207.029 45.5778 206.686 44.8483C206.56 44.5807 206.474 44.3013 206.409 44.019L206.216 43.1664C206.159 42.9152 206.118 42.6613 206.073 42.408C205.758 40.5638 204.919 39.3434 203.922 38.5354C200.414 35.4446 193.14 36.0085 188.902 38.2194C185.846 39.813 183.528 40.2963 182.163 40.433L179.215 40.4368C178.839 40.4374 178.586 40.7594 178.736 41.047L179.98 43.4301ZM191.326 40.6466H196.204C192.929 43.2552 191.47 42.4243 191.326 40.6466Z" fill="#F8BC00"/>
<path d="M144.182 16.0515L140.953 18.8361L145.164 22.2363L143.127 23.9928L141.022 22.2935L133.657 28.6456L140.159 33.8945L143.601 30.9257L139.976 27.9989L142.013 26.2419L145.638 29.1687L147.371 27.6742L147.524 27.5424L149.629 29.2422L149.476 29.3746L147.744 30.8685L151.369 33.7948L149.332 35.5518L145.706 32.6256L142.264 35.5948L148.767 40.8437L155.979 34.6234L156.132 34.4916L158.169 32.7345L168.608 41.2615C169.813 40.4296 171.341 39.8085 172.483 39.596L144.182 16.0515Z" fill="#F8BC00"/>
<path d="M249.84 33.8954L256.343 28.6461L248.978 22.294L246.872 23.9938L244.835 22.2368L249.047 18.8371L245.818 16.0525L211.015 44.064C211.015 44.064 212.502 46.4874 212.884 47.9666L231.831 32.7355L233.867 34.492L234.021 34.6244L241.232 40.8441L247.735 35.5953L244.293 32.626L240.668 35.5528L238.63 33.7957L242.255 30.869L240.523 29.375L240.37 29.2427L242.477 27.5428L242.63 27.6752L244.362 29.1691L247.987 26.2429L250.024 27.9999L246.4 30.9262L249.84 33.8954Z" fill="#F8BC00"/>
<path d="M169.203 79.0853L156.098 89.8433C156.278 85.6863 152.681 81.9815 147.645 81.3615C142.243 80.6958 137.203 83.8274 136.409 88.3407C135.962 90.8839 136.957 93.3318 138.877 95.103C138.525 95.7753 138.281 96.4842 138.15 97.2246C137.766 99.4109 138.423 101.592 140 103.365C141.579 105.139 143.889 106.293 146.505 106.615C147.28 106.71 148.051 106.731 148.814 106.675C149.089 106.655 149.362 106.622 149.635 106.582C151.133 108.491 153.561 109.879 156.47 110.237C157.249 110.333 158.02 110.349 158.773 110.294C163.237 109.969 167.026 107.12 167.706 103.257C168.5 98.7441 164.751 94.5315 159.35 93.8668C158.782 93.7965 158.219 93.7709 157.663 93.7824L177.4 77.8425L169.203 79.0853ZM152.329 90.3004C151.832 93.1221 148.68 95.0801 145.304 94.6639C141.927 94.2482 139.583 91.614 140.08 88.7924C140.505 86.3777 142.874 84.5961 145.665 84.3924C146.135 84.3581 146.618 84.369 147.105 84.4289C150.482 84.8446 152.825 87.4788 152.329 90.3004ZM148.115 100.846C147.95 101.787 147.984 102.714 148.187 103.6C147.809 103.611 147.428 103.595 147.045 103.548C145.409 103.347 143.965 102.625 142.978 101.516C141.991 100.407 141.581 99.0437 141.821 97.6762C141.86 97.4561 141.919 97.242 141.99 97.0312C142.848 97.3695 143.778 97.6098 144.764 97.7313C145.544 97.8271 146.315 97.844 147.067 97.7895C148.041 97.7182 148.983 97.5269 149.867 97.2311C148.973 98.2701 148.353 99.4954 148.115 100.846ZM158.81 96.9342C162.188 97.3493 164.531 99.9836 164.034 102.806C163.538 105.627 160.386 107.585 157.01 107.17C153.632 106.754 151.289 104.119 151.786 101.298C152.211 98.883 154.58 97.1014 157.371 96.8982C157.842 96.8639 158.324 96.8737 158.81 96.9342Z" fill="#F8BC00"/>
<path d="M219.768 84.1998L231.528 93.8394C230.973 93.8279 230.41 93.8541 229.842 93.9238C224.441 94.5885 220.692 98.8016 221.486 103.315C222.166 107.177 225.956 110.026 230.42 110.352C231.172 110.407 231.943 110.39 232.722 110.294C235.631 109.936 238.059 108.548 239.557 106.639C239.829 106.679 240.103 106.712 240.378 106.732C241.141 106.788 241.913 106.768 242.687 106.673C245.304 106.351 247.613 105.196 249.192 103.423C250.769 101.649 251.427 99.4679 251.042 97.2816C250.912 96.5417 250.668 95.8323 250.315 95.1606C252.236 93.3893 253.231 90.9415 252.783 88.3982C251.989 83.8849 246.95 80.7533 241.547 81.4185C236.511 82.0385 232.913 85.7438 233.095 89.9008L221.815 80.616C221.814 80.6165 221.038 82.902 219.768 84.1998ZM242.087 84.4864C242.574 84.4265 243.056 84.4161 243.527 84.4504C246.318 84.6537 248.687 86.4358 249.112 88.8504C249.609 91.6721 247.266 94.3063 243.888 94.722C240.512 95.1377 237.36 93.1801 236.863 90.358C236.366 87.5358 238.71 84.9015 242.087 84.4864ZM230.382 96.9917C230.867 96.9312 231.351 96.9209 231.821 96.9552C234.612 97.1584 236.981 98.94 237.406 101.355C237.903 104.177 235.56 106.811 232.182 107.227C228.806 107.642 225.655 105.685 225.157 102.863C224.66 100.042 227.004 97.4074 230.382 96.9917ZM239.324 97.2892C240.208 97.585 241.15 97.7763 242.124 97.8471C242.877 97.9021 243.648 97.8852 244.427 97.7888C245.414 97.6678 246.344 97.427 247.202 97.0887C247.271 97.3001 247.332 97.5142 247.37 97.7338C247.611 99.1013 247.2 100.465 246.214 101.574C245.227 102.682 243.782 103.404 242.147 103.605C241.763 103.653 241.383 103.669 241.005 103.657C241.208 102.772 241.242 101.844 241.077 100.904C240.839 99.5529 240.219 98.3276 239.324 97.2892Z" fill="#F8BC00"/>
<path d="M183.482 45.2206C183.482 45.1399 183.404 45.074 183.307 45.074C183.293 45.074 183.28 45.0778 183.268 45.0811L183.264 45.0756C183.264 45.0756 182.591 45.1999 181.676 45.0974C181.219 45.0375 180.66 44.9247 179.988 44.7237C179.86 44.6834 179.726 44.6409 179.586 44.5962C179.547 44.5831 179.511 44.5728 179.472 44.5592H179.47C179.079 44.4344 178.643 44.2955 178.139 44.1386C175.027 43.1699 172.525 45.5665 172.525 45.5665L172.531 45.5638C172.502 45.59 172.483 45.6248 172.483 45.6635C172.483 45.7442 172.561 45.8101 172.658 45.8101C172.711 45.8101 172.756 45.7894 172.788 45.7589C172.79 45.7583 172.79 45.7594 172.791 45.7594C172.967 45.6161 173.189 45.5126 173.311 45.4608C173.808 45.2642 174.709 45.0533 176.173 45.1803C176.195 45.1819 176.218 45.1841 176.24 45.1862C176.377 45.1988 176.52 45.2151 176.667 45.2336C177.182 45.3012 177.732 45.4053 178.322 45.5665C181.436 46.4186 183.178 45.5753 183.428 45.3252C183.46 45.299 183.482 45.262 183.482 45.2206Z" fill="#F8BC00"/>
<path d="M200.51 6.17957C199.734 6.04936 198.993 5.91533 198.346 5.73717C198.353 5.68923 198.36 5.6451 198.36 5.59661C198.36 4.9608 197.443 4.42197 196.175 4.22257V3.17106H197.604V1.90435H196.143V0.896973H195.42H194.231V1.90435H192.745V3.17106H194.168V4.20622C192.83 4.38329 191.848 4.93901 191.848 5.59661C191.848 5.62876 191.854 5.66635 191.861 5.69849C191.137 5.89899 190.31 6.03901 189.49 6.17957C187.268 6.55059 169.769 7.36456 183.031 31.5503L183.605 32.5953C187.209 31.4953 191.099 30.8982 195.155 30.8982C199.217 30.8982 202.906 31.3885 206.51 32.488L206.969 31.5503C220.231 7.36456 202.733 6.55005 200.51 6.17957ZM195.013 7.4343C209.83 7.44519 209.398 13.4072 209.398 13.4072C209.055 15.471 202.603 13.6556 202.965 10.7065L202.531 10.6526C201.498 14.28 194.941 13.3369 195.36 9.79011H195.013H194.749C195.167 13.3369 188.605 14.28 187.578 10.6526L187.145 10.7065C187.506 13.6556 181.047 15.471 180.705 13.4072C180.705 13.4066 180.194 7.44519 195.013 7.4343ZM204.004 29.523C202.44 29.523 201.188 28.3969 201.344 27.0544L201.001 27.0109C200.194 29.8407 195.078 29.097 195.407 26.3315H194.839C195.162 29.1024 190.04 29.8407 189.232 27.0054L188.896 27.0485C189.22 29.6799 184.368 30.7031 183.257 27.7284L181.996 24.9999L182.391 24.8501C190.343 21.7615 200.014 22.0415 207.971 24.9198C207.357 26.5919 206.808 29.523 204.004 29.523ZM205.994 22.0366C204.106 22.0099 202.377 20.6294 202.571 19.0134L202.158 18.9535C201.188 22.382 194.993 21.4809 195.387 18.1401H194.704C195.103 21.4864 188.902 22.382 187.939 18.9535L187.525 19.0069C187.907 22.1875 182.049 23.4216 180.705 19.8263L180.291 17.0782C189.896 13.3478 200.232 13.6556 209.857 17.137C209.302 19.1147 209.766 22.0895 205.994 22.0366Z" fill="#F8BC00"/>
<path d="M130 217.295H0V237.576H130V217.295Z" fill="#004997"/>
<path d="M390 217.295H260.001V237.576H390V217.295Z" fill="#7AA5D5"/>
<path d="M49.4627 222.759H46.5631V232.089H49.4627V222.759Z" fill="white"/>
<path d="M61.2153 225.934C60.5278 225.248 59.7064 224.913 58.7009 224.913C56.9576 224.913 55.7001 225.991 55.7001 227.487C55.7001 228.928 56.9746 229.991 58.7009 229.991C59.6568 229.991 60.4612 229.684 61.2153 229.011V231.879C59.8572 232.257 59.4054 232.341 58.6506 232.341C55.2816 232.341 52.6666 230.215 52.6666 227.473C52.6666 224.745 55.2979 222.563 58.584 222.563C59.455 222.563 60.1589 222.689 61.2153 223.039V225.934Z" fill="white"/>
<path d="M68.6095 230.467L67.8384 232.089H64.7704L69.062 222.76H72.2293L76.4374 232.089H73.336L72.6152 230.467H68.6095ZM70.6375 225.641L69.4133 228.62H71.8278L70.6375 225.641Z" fill="white"/>
<path d="M83.4367 222.759H80.5371V232.089H83.4367V222.759Z" fill="white"/>
<path d="M313.38 225.9C312.692 225.214 311.871 224.879 310.866 224.879C309.122 224.879 307.865 225.957 307.865 227.454C307.865 228.894 309.139 229.957 310.866 229.957C311.821 229.957 312.625 229.65 313.38 228.978V231.845C312.023 232.223 311.57 232.307 310.815 232.307C307.446 232.307 304.831 230.182 304.831 227.439C304.831 224.712 307.462 222.53 310.749 222.53C311.62 222.53 312.324 222.655 313.38 223.006V225.9Z" fill="white"/>
<path d="M320.119 222.763H317.219V232.092H320.119V222.763Z" fill="white"/>
<path d="M330.624 226.382V222.773H333.524V232.103H330.624V228.27H326.417V232.103H323.516V222.773H326.417V226.382H330.624Z" fill="white"/>
<path d="M343.559 225.193C342.906 224.759 342.32 224.564 341.648 224.564C340.961 224.564 340.408 224.914 340.408 225.362C340.408 225.655 340.66 225.892 341.163 226.088C341.313 226.144 341.431 226.172 342.42 226.424C344.365 226.9 345.169 227.669 345.169 229.012C345.169 231.11 343.559 232.341 340.811 232.341C339.453 232.341 338.095 231.977 336.922 231.291L338.162 229.333C339.05 229.976 339.872 230.285 340.726 230.285C341.582 230.285 342.135 229.921 342.135 229.375C342.135 228.871 341.749 228.633 340.391 228.298C339.118 227.99 338.631 227.808 338.212 227.514C337.658 227.109 337.374 226.507 337.374 225.695C337.374 223.821 338.916 222.549 341.178 222.549C342.353 222.549 343.593 222.814 344.715 223.304L343.559 225.193Z" fill="white"/>
<path d="M259.979 217.295H129.979V237.576H259.979V217.295Z" fill="#B3144D"/>
<path d="M171.958 222.759H169.058V232.089H171.958V222.759Z" fill="white"/>
<path d="M183.71 225.934C183.023 225.248 182.201 224.913 181.195 224.913C179.452 224.913 178.195 225.991 178.195 227.487C178.195 228.928 179.469 229.991 181.195 229.991C182.151 229.991 182.956 229.684 183.71 229.011V231.879C182.352 232.257 181.9 232.341 181.145 232.341C177.776 232.341 175.161 230.215 175.161 227.473C175.161 224.745 177.792 222.563 181.078 222.563C181.95 222.563 182.654 222.689 183.71 223.039V225.934V225.934Z" fill="white"/>
<path d="M191.104 230.467L190.333 232.089H187.265L191.556 222.76H194.724L198.932 232.089H195.831L195.11 230.467H191.104ZM193.132 225.641L191.908 228.62H194.322L193.132 225.641Z" fill="white"/>
<path d="M201.804 222.759H206.094C209.045 222.759 211.593 224.913 211.593 227.417C211.593 229.935 209.045 232.089 206.094 232.089H201.804V222.759ZM205.374 230.032C207.302 230.032 208.56 228.999 208.56 227.417C208.56 225.85 207.302 224.816 205.374 224.816H204.704V230.032H205.374Z" fill="white"/>
<path d="M217.446 224.816V226.369H220.715V228.425H217.446V230.033H220.9V232.089H214.547V222.76H220.9V224.816H217.446Z" fill="white"/>
</svg>
