<svg width="879" height="187" viewBox="0 0 879 187" fill="none" xmlns="http://www.w3.org/2000/svg">
<path d="M466.456 76.1688L467.311 69.1337L476.704 67.7482L477.238 62.6315C478.519 50.3726 494.638 38.0071 508.408 38.0071C512.572 38.0071 517.375 38.6466 520.257 39.6063L520.684 40.7791L514.385 54.7427L512.251 55.0625C507.874 51.6515 505.419 50.4787 502.858 50.4787C498.267 50.4787 496.346 52.8244 495.492 59.4332L494.531 67.9608H507.874L508.622 68.7069L507.341 76.7017L494.317 76.5956L493.464 77.1285L489.087 117.741C487.806 129.787 474.142 142.898 463.254 142.898C456.422 142.898 450.337 140.02 448.949 136.29C450.23 132.132 453.967 125.203 456.422 122.218H458.556C459.091 128.401 461.119 130.639 466.243 130.639C470.299 130.639 473.181 127.762 473.181 122.006C473.181 119.98 473.075 117.422 473.181 116.249L475.85 77.7675L474.676 76.7017H466.776L466.456 76.1688Z" fill="black"/>
<path d="M532.212 88.6405C532.212 80.9654 531.144 78.3015 528.156 78.3015C524.74 78.3015 522.604 85.2295 522.604 96.3156C522.604 103.671 523.885 106.975 526.767 106.975C530.61 106.975 532.212 101.539 532.212 88.6405ZM503.604 97.4879C503.604 78.1944 515.025 65.5087 532.426 65.5087C544.808 65.5087 551.534 72.6509 551.534 85.6563C551.534 105.376 540.112 118.381 522.711 118.381C510.542 118.381 503.604 110.813 503.604 97.4879" fill="black"/>
<path d="M563.169 80.2198C563.169 77.7676 562.102 76.7018 559.647 76.7018H556.658L557.939 67.961C567.439 67.961 581.743 66.6815 581.743 66.6815L583.238 68.9202C583.238 68.9202 581.21 76.0623 580.249 82.7782L580.997 82.6711C584.199 73.7176 590.497 65.5087 594.02 65.5087C598.396 68.4939 600.531 72.9706 600.531 79.1531C600.531 81.1786 599.998 83.5238 598.716 86.9352L596.688 87.8949C596.688 87.8949 594.553 85.7624 591.03 85.7624C585.693 85.7624 580.89 91.9454 576.299 104.95L575.445 112.305C575.019 115.289 567.759 117.848 559.647 117.848L557.512 115.396C557.512 115.396 563.169 83.9506 563.169 80.2198Z" fill="black"/>
<path d="M623.908 98.1279C624.335 102.392 628.178 105.803 632.661 105.803C635.437 105.803 636.931 104.843 636.931 103.138C636.931 100.792 633.622 99.5139 629.993 97.8081C625.296 95.57 619.852 92.5848 619.852 85.0168C619.852 73.7176 629.993 65.5087 643.763 65.5087C649.954 65.5087 656.146 67.2144 659.775 69.9864C657.427 75.7421 655.185 80.2198 653.05 83.6308H650.382C648.887 80.5396 646.432 78.6207 643.977 78.6207C641.949 78.6207 640.347 79.9001 640.347 81.6053C640.347 83.0979 641.628 84.0571 643.55 85.0168C648.46 87.5752 657.107 90.0265 657.107 99.1941C657.107 110.28 646.325 118.381 631.701 118.381C623.161 118.381 616.009 115.503 614.621 111.453C615.261 107.508 618.25 101.112 621.026 97.9142L623.908 98.1279Z" fill="black"/>
<path d="M689.878 88.6405C689.878 80.9654 688.81 78.3015 685.822 78.3015C682.406 78.3015 680.271 85.2295 680.271 96.3156C680.271 103.671 681.552 106.975 684.434 106.975C688.276 106.975 689.878 101.539 689.878 88.6405ZM661.27 97.4879C661.27 78.1944 672.691 65.5087 690.092 65.5087C702.474 65.5087 709.2 72.6509 709.2 85.6563C709.2 105.376 697.778 118.381 680.377 118.381C668.208 118.381 661.27 110.813 661.27 97.4879" fill="black"/>
<path d="M732.151 95.143C732.151 100.579 733.965 103.458 737.275 103.458C740.05 103.458 742.932 100.686 745.28 95.5698L747.522 95.8895L753.073 102.072C749.657 111.026 739.516 118.381 730.762 118.381C720.195 118.381 713.469 110.92 713.469 99.301C713.469 80.7525 727.027 65.616 743.465 65.616C747.736 65.616 752.219 66.5752 755.101 68.1739L755.528 70.0928L750.084 83.8438L745.494 83.9508C743.679 80.1131 741.758 78.4073 739.089 78.4073C735.032 78.4073 732.151 85.4424 732.151 95.143Z" fill="black"/>
<path d="M766.096 50.4788C766.096 42.6976 771.006 38.0072 778.478 38.0072C783.71 38.0072 786.591 40.7792 786.591 46.002C786.591 53.8902 781.681 58.7933 774.423 58.7933C768.978 58.7933 766.096 55.7026 766.096 50.4788ZM778.051 100.686C778.692 100.686 779.012 100.367 783.602 96.3156L786.058 96.7424L788.193 101.859C776.877 114.757 771.646 118.381 765.776 118.381C761.079 118.381 758.73 116.036 758.73 111.239C758.73 111.239 763.534 83.3111 763.534 80.2199C763.534 77.7676 762.467 76.7018 760.011 76.7018H757.022L758.303 67.961C767.804 67.961 782.108 66.6815 782.108 66.6815L783.816 68.8136C783.816 68.8136 779.867 84.2698 777.625 100.367L778.051 100.686Z" fill="black"/>
<path d="M821.177 80.7525C818.294 78.9402 815.519 77.9815 813.278 77.9815C811.25 77.9815 808.901 87.0416 808.901 94.8228C808.901 98.9808 809.541 101.859 810.395 101.859C812.744 101.859 818.294 90.986 821.177 80.7525V80.7525ZM836.015 100.686C836.656 100.686 837.936 99.7268 841.566 96.3153L844.021 96.7421L846.156 101.859C834.413 114.863 829.61 118.381 823.526 118.381C819.896 118.381 818.081 116.675 818.081 113.264C818.081 111.772 818.615 109.107 820.75 100.259H819.682C813.917 110.279 809.968 115.29 805.485 118.381C795.344 118.381 789.366 112.198 789.366 101.645C789.366 84.8035 803.349 66.7884 816.479 66.7884L824.165 68.92L824.7 66.7884L826.727 65.5085L841.032 66.7884L841.886 69.2397C841.886 69.2397 837.829 86.7219 835.588 100.366L836.015 100.686Z" fill="black"/>
<path d="M867.4 100.686C868.04 100.686 868.36 100.367 872.95 96.3156L875.406 96.7424L877.541 101.859C866.225 114.756 860.994 118.381 855.124 118.381C850.427 118.381 848.078 116.036 848.078 111.239C848.078 107.508 857.472 54.4236 857.472 51.5451C857.472 49.0933 856.404 48.0275 853.949 48.0275H850.961L852.241 39.2866C861.955 39.2866 876.473 38.0067 876.473 38.0067L878.181 40.1393C878.181 40.1393 869.214 84.2698 866.972 100.367L867.4 100.686Z" fill="black"/>
<path d="M231.238 105.687C236.255 96.3076 239.564 89.3785 241.273 84.0487L239.137 69.9779L240.098 68.4848L250.986 65.8209C253.014 67.6322 254.296 71.0432 254.296 74.881C254.296 77.013 253.975 78.7183 252.695 82.3429L254.829 105.687H256.217C262.943 93.429 266.678 84.4745 266.678 79.678C266.678 75.2012 263.049 72.4297 261.341 71.8963L262.089 68.4848L276.286 65.8209C278.314 67.7393 279.595 71.3634 279.595 75.3073C279.595 82.8758 272.657 96.5202 258.566 116.987L247.997 117.52L246.289 115.921L244.474 98.0133H243.514C240.952 103.236 237.323 110.058 233.053 116.987L221.524 117.52L219.71 115.921C219.175 103.982 217.361 87.7799 215.653 78.2925C215.12 75.5209 214.265 74.5613 212.023 74.5613C210.742 74.5613 207.54 74.881 207.54 74.881L207.967 68.699C215.653 67.8459 226.861 66.5664 226.861 66.5664L228.035 67.5261C229.21 78.3986 229.957 91.7237 229.851 105.687H231.238Z" fill="black"/>
<path d="M312.474 88.3122C312.474 79.6775 310.232 75.3068 305.963 75.3068C300.731 75.3068 297.103 83.4087 297.103 95.1347C297.103 103.875 299.557 109.098 303.507 109.098C309.058 109.098 312.474 101.424 312.474 88.3122ZM283.972 98.5456C283.972 80.1038 295.287 65.8204 310.338 65.8204C320.266 65.8204 325.924 72.3227 325.924 83.8345C325.924 103.022 314.609 117.625 299.344 117.625C289.843 117.625 283.972 110.484 283.972 98.5456" fill="black"/>
<path d="M340.227 78.5052C340.227 75.521 339.16 74.3482 336.171 74.3482H332.435L333.502 68.0592C341.402 68.0592 353.891 67.099 353.891 67.099L355.065 68.8047C355.065 68.8047 352.183 78.2921 350.689 86.9263H351.222C355.812 75.7342 363.392 66.0337 367.555 66.0337C370.757 68.485 372.252 71.8959 372.252 76.4798C372.252 78.0789 371.932 79.7846 371.184 82.1293L369.69 82.7693C369.69 82.7693 368.088 81.4904 365.42 81.4904C359.762 81.4904 353.465 89.3781 348.127 103.449L346.953 113.256C346.632 115.068 340.655 117.2 335.85 117.2L334.463 115.494C334.463 115.494 340.227 82.4491 340.227 78.5052Z" fill="black"/>
<path d="M395.309 96.3075L396.056 94.4947C401.18 91.9369 407.478 88.0986 407.478 82.6631C407.478 80.6377 406.411 79.4648 404.703 79.4648C401.073 79.4648 394.241 90.3372 388.05 105.687L387.089 113.256C386.769 115.069 380.791 117.2 375.987 117.2L374.6 115.494C374.6 115.494 384.847 52.8155 384.847 48.8711C384.847 46.2067 383.673 45.0343 380.791 45.0343H377.055L378.015 38.7448C386.022 38.7448 398.618 37.7851 398.618 37.7851L399.898 39.4908C399.898 39.4908 393.708 66.5665 390.185 89.6982L390.825 89.8043C396.697 77.4394 402.781 69.0187 408.119 65.8209C415.484 65.8209 420.394 70.1906 420.394 76.5867C420.394 83.196 415.484 89.9114 406.197 95.9873C411.108 104.728 417.085 113.682 417.085 113.682L416.978 115.494L405.343 118.373L403.956 117.626L395.309 96.3075Z" fill="black"/>
<path d="M228.758 153.528L229.019 159.053H228.358C228.23 158.08 228.056 157.386 227.836 156.968C227.476 156.297 226.998 155.801 226.401 155.483C225.803 155.165 225.018 155.005 224.044 155.005H220.721V173.003C220.721 174.45 220.877 175.354 221.19 175.713C221.631 176.2 222.309 176.443 223.225 176.443H224.044V177.085H214.04V176.443H214.876C215.872 176.443 216.58 176.141 216.997 175.539C217.253 175.169 217.38 174.323 217.38 173.003V155.005H214.545C213.443 155.005 212.66 155.087 212.196 155.248C211.593 155.468 211.076 155.892 210.648 156.516C210.219 157.142 209.963 157.987 209.882 159.053H209.221L209.499 153.528H228.758Z" fill="black"/>
<path d="M234.751 160.703V164.282C236.084 161.896 237.453 160.703 238.857 160.703C239.494 160.703 240.022 160.897 240.44 161.285C240.857 161.674 241.066 162.122 241.066 162.632C241.066 163.084 240.915 163.465 240.613 163.778C240.312 164.091 239.952 164.248 239.535 164.248C239.129 164.248 238.674 164.048 238.169 163.648C237.665 163.248 237.29 163.048 237.047 163.048C236.839 163.048 236.612 163.165 236.369 163.397C235.847 163.871 235.308 164.653 234.751 165.742V173.368C234.751 174.248 234.861 174.914 235.081 175.366C235.232 175.678 235.499 175.939 235.882 176.147C236.264 176.356 236.815 176.46 237.534 176.46V177.085H229.375V176.46C230.187 176.46 230.79 176.333 231.184 176.078C231.474 175.893 231.677 175.598 231.793 175.192C231.851 174.995 231.88 174.434 231.88 173.507V167.339C231.88 165.487 231.842 164.384 231.767 164.03C231.692 163.677 231.552 163.419 231.349 163.257C231.146 163.095 230.894 163.014 230.593 163.014C230.233 163.014 229.827 163.1 229.375 163.275L229.201 162.649L234.02 160.703H234.751Z" fill="black"/>
<path d="M251.302 173.664V167.6C249.552 168.296 248.42 168.787 247.91 169.077C246.994 169.587 246.338 170.119 245.944 170.675C245.55 171.231 245.352 171.84 245.352 172.5C245.352 173.333 245.602 174.025 246.101 174.575C246.599 175.125 247.173 175.401 247.823 175.401C248.704 175.401 249.864 174.821 251.302 173.664V173.664ZM251.302 174.793C249.668 176.055 248.64 176.785 248.223 176.982C247.597 177.271 246.93 177.416 246.223 177.416C245.121 177.416 244.214 177.039 243.5 176.286C242.787 175.534 242.43 174.544 242.43 173.315C242.43 172.54 242.604 171.868 242.952 171.3C243.427 170.513 244.253 169.772 245.431 169.077C246.608 168.382 248.566 167.537 251.302 166.54V165.915C251.302 164.328 251.051 163.24 250.546 162.649C250.042 162.059 249.308 161.763 248.345 161.763C247.614 161.763 247.035 161.961 246.605 162.354C246.164 162.748 245.944 163.199 245.944 163.709L245.979 164.716C245.979 165.249 245.843 165.66 245.57 165.95C245.298 166.239 244.941 166.384 244.5 166.384C244.071 166.384 243.72 166.234 243.448 165.933C243.175 165.632 243.039 165.22 243.039 164.699C243.039 163.703 243.549 162.788 244.57 161.954C245.59 161.12 247.023 160.703 248.867 160.703C250.282 160.703 251.442 160.941 252.347 161.415C253.031 161.775 253.535 162.337 253.86 163.101C254.068 163.599 254.173 164.618 254.173 166.158V171.561C254.173 173.078 254.202 174.008 254.26 174.349C254.318 174.691 254.413 174.92 254.547 175.036C254.68 175.152 254.834 175.209 255.008 175.209C255.194 175.209 255.356 175.169 255.495 175.087C255.739 174.937 256.208 174.515 256.905 173.82V174.793C255.605 176.529 254.365 177.398 253.181 177.398C252.613 177.398 252.161 177.201 251.824 176.808C251.488 176.414 251.314 175.742 251.302 174.793" fill="black"/>
<path d="M262.775 165.029V174.549C263.366 175.129 263.978 175.566 264.61 175.861C265.242 176.156 265.889 176.304 266.549 176.304C267.605 176.304 268.588 175.725 269.498 174.567C270.409 173.408 270.864 171.723 270.864 169.511C270.864 167.473 270.409 165.907 269.498 164.812C268.588 163.718 267.553 163.17 266.393 163.17C265.778 163.17 265.163 163.327 264.55 163.639C264.085 163.871 263.494 164.335 262.775 165.029ZM262.775 163.918C264.316 161.775 265.981 160.703 267.768 160.703C269.403 160.703 270.83 161.401 272.047 162.797C273.265 164.192 273.874 166.1 273.874 168.521C273.874 171.347 272.934 173.623 271.056 175.348C269.444 176.832 267.646 177.572 265.662 177.572C264.735 177.572 263.792 177.404 262.836 177.068C261.879 176.732 260.902 176.228 259.904 175.557V159.07C259.904 157.264 259.861 156.152 259.774 155.735C259.687 155.319 259.55 155.034 259.365 154.883C259.179 154.733 258.947 154.658 258.669 154.658C258.344 154.658 257.938 154.751 257.451 154.935L257.207 154.328L261.991 152.382H262.775V163.918Z" fill="black"/>
<path d="M285.572 173.664V167.6C283.822 168.296 282.69 168.787 282.18 169.077C281.264 169.587 280.609 170.119 280.214 170.675C279.82 171.231 279.623 171.84 279.623 172.5C279.623 173.333 279.872 174.025 280.371 174.575C280.869 175.125 281.443 175.401 282.093 175.401C282.974 175.401 284.135 174.821 285.572 173.664V173.664ZM285.572 174.793C283.938 176.055 282.911 176.785 282.493 176.982C281.867 177.271 281.2 177.416 280.493 177.416C279.391 177.416 278.484 177.039 277.77 176.286C277.057 175.534 276.7 174.544 276.7 173.315C276.7 172.54 276.874 171.868 277.222 171.3C277.697 170.513 278.523 169.772 279.701 169.077C280.878 168.382 282.836 167.537 285.572 166.54V165.915C285.572 164.328 285.321 163.24 284.816 162.649C284.312 162.059 283.578 161.763 282.615 161.763C281.884 161.763 281.305 161.961 280.875 162.354C280.434 162.748 280.214 163.199 280.214 163.709L280.249 164.716C280.249 165.249 280.113 165.66 279.84 165.95C279.568 166.239 279.211 166.384 278.77 166.384C278.341 166.384 277.99 166.234 277.718 165.933C277.445 165.632 277.309 165.22 277.309 164.699C277.309 163.703 277.819 162.788 278.84 161.954C279.86 161.12 281.293 160.703 283.137 160.703C284.552 160.703 285.712 160.941 286.617 161.415C287.301 161.775 287.805 162.337 288.13 163.101C288.339 163.599 288.443 164.618 288.443 166.158V171.561C288.443 173.078 288.472 174.008 288.53 174.349C288.588 174.691 288.683 174.92 288.817 175.036C288.951 175.152 289.104 175.209 289.278 175.209C289.464 175.209 289.626 175.169 289.765 175.087C290.009 174.937 290.479 174.515 291.174 173.82V174.793C289.875 176.529 288.635 177.398 287.451 177.398C286.883 177.398 286.431 177.201 286.094 176.808C285.758 176.414 285.584 175.742 285.572 174.793" fill="black"/>
<path d="M296.714 152.365C297.212 152.365 297.636 152.538 297.984 152.885C298.332 153.233 298.505 153.656 298.505 154.154C298.505 154.64 298.332 155.057 297.984 155.405C297.636 155.752 297.212 155.926 296.714 155.926C296.227 155.926 295.809 155.752 295.461 155.405C295.113 155.057 294.939 154.64 294.939 154.154C294.939 153.656 295.113 153.233 295.461 152.885C295.809 152.538 296.227 152.365 296.714 152.365ZM298.21 160.703V176.72C298.21 179.442 297.63 181.464 296.47 182.784C295.31 184.103 293.802 184.764 291.947 184.764C290.892 184.764 290.109 184.573 289.598 184.191C289.088 183.809 288.832 183.415 288.832 183.009C288.832 182.604 288.975 182.257 289.259 181.967C289.544 181.677 289.877 181.533 290.259 181.533C290.561 181.533 290.868 181.608 291.181 181.758C291.379 181.839 291.759 182.132 292.321 182.636C292.883 183.139 293.357 183.392 293.739 183.392C294.017 183.392 294.289 183.284 294.556 183.07C294.823 182.856 295.02 182.497 295.148 181.993C295.276 181.489 295.34 180.398 295.34 178.718V167.391C295.34 165.642 295.287 164.519 295.183 164.021C295.101 163.64 294.974 163.376 294.8 163.231C294.626 163.087 294.389 163.013 294.087 163.013C293.762 163.013 293.368 163.1 292.904 163.274L292.66 162.649L297.462 160.703H298.21Z" fill="black"/>
<path d="M311.926 173.664V167.6C310.176 168.296 309.044 168.787 308.534 169.077C307.618 169.587 306.963 170.119 306.568 170.675C306.174 171.231 305.977 171.84 305.977 172.5C305.977 173.333 306.226 174.025 306.725 174.575C307.224 175.125 307.797 175.401 308.447 175.401C309.328 175.401 310.489 174.821 311.926 173.664V173.664ZM311.926 174.793C310.292 176.055 309.265 176.785 308.847 176.982C308.221 177.271 307.554 177.416 306.847 177.416C305.745 177.416 304.838 177.039 304.124 176.286C303.411 175.534 303.054 174.544 303.054 173.315C303.054 172.54 303.228 171.868 303.576 171.3C304.051 170.513 304.878 169.772 306.055 169.077C307.232 168.382 309.19 167.537 311.926 166.54V165.915C311.926 164.328 311.675 163.24 311.17 162.649C310.666 162.059 309.932 161.763 308.969 161.763C308.238 161.763 307.659 161.961 307.229 162.354C306.788 162.748 306.568 163.199 306.568 163.709L306.603 164.716C306.603 165.249 306.467 165.66 306.194 165.95C305.922 166.239 305.565 166.384 305.124 166.384C304.695 166.384 304.344 166.234 304.072 165.933C303.799 165.632 303.663 165.22 303.663 164.699C303.663 163.703 304.173 162.788 305.194 161.954C306.214 161.12 307.647 160.703 309.491 160.703C310.906 160.703 312.066 160.941 312.971 161.415C313.655 161.775 314.159 162.337 314.484 163.101C314.693 163.599 314.797 164.618 314.797 166.158V171.561C314.797 173.078 314.826 174.008 314.884 174.349C314.942 174.691 315.037 174.92 315.171 175.036C315.305 175.152 315.458 175.209 315.633 175.209C315.818 175.209 315.98 175.169 316.12 175.087C316.363 174.937 316.833 174.515 317.529 173.82V174.793C316.23 176.529 314.989 177.398 313.805 177.398C313.238 177.398 312.785 177.201 312.448 176.808C312.112 176.414 311.938 175.742 311.926 174.793" fill="black"/>
<path d="M332.679 165.515V171.456C332.679 172.742 332.731 173.588 332.835 173.994C332.998 174.665 333.395 175.255 334.027 175.766C334.659 176.275 335.457 176.529 336.42 176.529C337.579 176.529 338.519 176.078 339.238 175.174C340.178 173.994 340.647 172.331 340.647 170.189C340.647 167.757 340.113 165.886 339.047 164.578C338.304 163.674 337.423 163.222 336.402 163.222C335.845 163.222 335.295 163.362 334.75 163.639C334.331 163.848 333.642 164.473 332.679 165.515ZM327.112 162.754L332.018 160.773H332.679V164.491C333.503 163.089 334.329 162.108 335.158 161.546C335.987 160.984 336.861 160.703 337.777 160.703C339.378 160.703 340.711 161.329 341.778 162.579C343.089 164.108 343.744 166.1 343.744 168.556C343.744 171.3 342.955 173.571 341.378 175.366C340.079 176.836 338.443 177.572 336.472 177.572C335.614 177.572 334.871 177.45 334.245 177.207C333.781 177.033 333.259 176.686 332.679 176.165V181.012C332.679 182.1 332.746 182.793 332.879 183.087C333.013 183.383 333.245 183.617 333.575 183.791C333.906 183.965 334.506 184.052 335.376 184.052V184.695H327.025V184.052H327.46C328.098 184.063 328.643 183.941 329.095 183.687C329.316 183.56 329.487 183.354 329.608 183.07C329.73 182.787 329.792 182.066 329.792 180.907V165.863C329.792 164.832 329.745 164.178 329.652 163.899C329.559 163.622 329.412 163.413 329.208 163.275C329.006 163.135 328.73 163.066 328.382 163.066C328.103 163.066 327.75 163.147 327.321 163.309L327.112 162.754Z" fill="black"/>
<path d="M355.425 173.664V167.6C353.674 168.296 352.542 168.787 352.032 169.077C351.116 169.587 350.461 170.119 350.067 170.675C349.672 171.231 349.475 171.84 349.475 172.5C349.475 173.333 349.724 174.025 350.223 174.575C350.722 175.125 351.295 175.401 351.945 175.401C352.826 175.401 353.987 174.821 355.425 173.664V173.664ZM355.425 174.793C353.79 176.055 352.763 176.785 352.345 176.982C351.719 177.271 351.052 177.416 350.345 177.416C349.243 177.416 348.336 177.039 347.622 176.286C346.909 175.534 346.552 174.544 346.552 173.315C346.552 172.54 346.726 171.868 347.074 171.3C347.55 170.513 348.375 169.772 349.553 169.077C350.73 168.382 352.688 167.537 355.425 166.54V165.915C355.425 164.328 355.173 163.24 354.668 162.649C354.164 162.059 353.43 161.763 352.467 161.763C351.736 161.763 351.157 161.961 350.727 162.354C350.286 162.748 350.067 163.199 350.067 163.709L350.101 164.716C350.101 165.249 349.965 165.66 349.692 165.95C349.42 166.239 349.063 166.384 348.622 166.384C348.193 166.384 347.842 166.234 347.57 165.933C347.297 165.632 347.161 165.22 347.161 164.699C347.161 163.703 347.671 162.788 348.692 161.954C349.713 161.12 351.145 160.703 352.989 160.703C354.404 160.703 355.564 160.941 356.469 161.415C357.153 161.775 357.658 162.337 357.982 163.101C358.191 163.599 358.295 164.618 358.295 166.158V171.561C358.295 173.078 358.324 174.008 358.382 174.349C358.44 174.691 358.535 174.92 358.669 175.036C358.803 175.152 358.956 175.209 359.131 175.209C359.316 175.209 359.478 175.169 359.617 175.087C359.861 174.937 360.331 174.515 361.027 173.82V174.793C359.728 176.529 358.487 177.398 357.304 177.398C356.735 177.398 356.283 177.201 355.946 176.808C355.611 176.414 355.436 175.742 355.425 174.793" fill="black"/>
<path d="M367.192 160.703V164.282C368.526 161.896 369.894 160.703 371.298 160.703C371.936 160.703 372.464 160.897 372.881 161.285C373.299 161.674 373.507 162.122 373.507 162.632C373.507 163.084 373.357 163.465 373.055 163.778C372.754 164.091 372.394 164.248 371.976 164.248C371.57 164.248 371.115 164.048 370.611 163.648C370.106 163.248 369.732 163.048 369.489 163.048C369.28 163.048 369.053 163.165 368.81 163.397C368.288 163.871 367.75 164.653 367.192 165.742V173.368C367.192 174.248 367.302 174.914 367.523 175.366C367.673 175.678 367.941 175.939 368.323 176.147C368.706 176.356 369.257 176.46 369.976 176.46V177.085H361.816V176.46C362.629 176.46 363.231 176.333 363.625 176.078C363.916 175.893 364.119 175.598 364.234 175.192C364.293 174.995 364.322 174.434 364.322 173.507V167.339C364.322 165.487 364.284 164.384 364.208 164.03C364.133 163.677 363.994 163.419 363.791 163.257C363.588 163.095 363.336 163.014 363.034 163.014C362.675 163.014 362.269 163.1 361.816 163.275L361.643 162.649L366.462 160.703H367.192Z" fill="black"/>
<path d="M383.745 173.664V167.6C381.994 168.296 380.863 168.787 380.353 169.077C379.437 169.587 378.781 170.119 378.387 170.675C377.992 171.231 377.795 171.84 377.795 172.5C377.795 173.333 378.044 174.025 378.543 174.575C379.041 175.125 379.616 175.401 380.265 175.401C381.147 175.401 382.307 174.821 383.745 173.664V173.664ZM383.745 174.793C382.11 176.055 381.083 176.785 380.665 176.982C380.04 177.271 379.372 177.416 378.665 177.416C377.563 177.416 376.656 177.039 375.942 176.286C375.229 175.534 374.873 174.544 374.873 173.315C374.873 172.54 375.046 171.868 375.394 171.3C375.87 170.513 376.696 169.772 377.873 169.077C379.051 168.382 381.008 167.537 383.745 166.54V165.915C383.745 164.328 383.493 163.24 382.988 162.649C382.484 162.059 381.75 161.763 380.787 161.763C380.056 161.763 379.477 161.961 379.047 162.354C378.607 162.748 378.387 163.199 378.387 163.709L378.422 164.716C378.422 165.249 378.285 165.66 378.013 165.95C377.74 166.239 377.383 166.384 376.942 166.384C376.513 166.384 376.162 166.234 375.89 165.933C375.617 165.632 375.482 165.22 375.482 164.699C375.482 163.703 375.992 162.788 377.013 161.954C378.033 161.12 379.465 160.703 381.31 160.703C382.724 160.703 383.884 160.941 384.789 161.415C385.474 161.775 385.978 162.337 386.303 163.101C386.511 163.599 386.615 164.618 386.615 166.158V171.561C386.615 173.078 386.644 174.008 386.703 174.349C386.761 174.691 386.856 174.92 386.989 175.036C387.123 175.152 387.277 175.209 387.451 175.209C387.636 175.209 387.799 175.169 387.938 175.087C388.182 174.937 388.651 174.515 389.347 173.82V174.793C388.048 176.529 386.807 177.398 385.624 177.398C385.056 177.398 384.603 177.201 384.267 176.808C383.931 176.414 383.757 175.742 383.745 174.793" fill="black"/>
<path d="M402.757 166.158H410.134C410.075 165.14 409.953 164.421 409.768 164.005C409.478 163.356 409.046 162.847 408.472 162.476C407.898 162.105 407.298 161.919 406.672 161.919C405.709 161.919 404.848 162.293 404.088 163.04C403.328 163.787 402.885 164.827 402.757 166.158ZM402.757 167.166C402.745 169.529 403.32 171.382 404.48 172.725C405.639 174.069 407.002 174.741 408.568 174.741C409.612 174.741 410.519 174.454 411.29 173.88C412.062 173.308 412.708 172.326 413.23 170.936L413.77 171.284C413.526 172.87 412.819 174.315 411.647 175.618C410.475 176.921 409.009 177.572 407.245 177.572C405.332 177.572 403.694 176.829 402.331 175.339C400.968 173.851 400.287 171.851 400.287 169.338C400.287 166.616 400.986 164.494 402.384 162.97C403.781 161.448 405.534 160.686 407.646 160.686C409.432 160.686 410.899 161.275 412.047 162.449C413.195 163.625 413.77 165.197 413.77 167.166H402.757Z" fill="black"/>
<path d="M421.693 152.382V173.49C421.693 174.486 421.766 175.146 421.911 175.47C422.056 175.795 422.278 176.041 422.58 176.208C422.883 176.377 423.445 176.46 424.268 176.46V177.085H416.457V176.46C417.187 176.46 417.686 176.385 417.952 176.234C418.22 176.084 418.429 175.835 418.579 175.488C418.73 175.14 418.805 174.474 418.805 173.49V159.036C418.805 157.24 418.765 156.138 418.683 155.727C418.602 155.315 418.472 155.035 418.292 154.883C418.112 154.733 417.883 154.658 417.605 154.658C417.303 154.658 416.921 154.751 416.457 154.936L416.161 154.328L420.91 152.382H421.693Z" fill="black"/>
<path d="M449.195 171.04C448.766 173.137 447.925 174.749 446.672 175.878C445.42 177.008 444.034 177.572 442.514 177.572C440.705 177.572 439.129 176.814 437.783 175.296C436.437 173.779 435.765 171.73 435.765 169.146C435.765 166.645 436.51 164.613 438.001 163.048C439.491 161.485 441.28 160.703 443.367 160.703C444.933 160.703 446.221 161.117 447.23 161.946C448.239 162.774 448.743 163.634 448.743 164.526C448.743 164.965 448.601 165.322 448.317 165.594C448.032 165.866 447.634 166.002 447.125 166.002C446.441 166.002 445.925 165.782 445.576 165.342C445.379 165.099 445.248 164.635 445.186 163.952C445.122 163.269 444.886 162.748 444.481 162.389C444.074 162.041 443.512 161.868 442.793 161.868C441.634 161.868 440.7 162.296 439.992 163.153C439.053 164.288 438.583 165.788 438.583 167.652C438.583 169.552 439.05 171.228 439.984 172.681C440.917 174.135 442.178 174.862 443.767 174.862C444.904 174.862 445.925 174.474 446.829 173.698C447.467 173.165 448.087 172.198 448.69 170.797L449.195 171.04Z" fill="black"/>
<path d="M460.823 173.664V167.6C459.073 168.296 457.941 168.787 457.431 169.077C456.515 169.587 455.86 170.119 455.466 170.675C455.071 171.231 454.873 171.84 454.873 172.5C454.873 173.333 455.123 174.025 455.622 174.575C456.12 175.125 456.694 175.401 457.344 175.401C458.225 175.401 459.385 174.821 460.823 173.664V173.664ZM460.823 174.793C459.189 176.055 458.162 176.785 457.744 176.982C457.118 177.271 456.451 177.416 455.744 177.416C454.642 177.416 453.735 177.039 453.021 176.286C452.308 175.534 451.952 174.544 451.952 173.315C451.952 172.54 452.124 171.868 452.473 171.3C452.948 170.513 453.775 169.772 454.952 169.077C456.129 168.382 458.087 167.537 460.823 166.54V165.915C460.823 164.328 460.572 163.24 460.067 162.649C459.563 162.059 458.829 161.763 457.866 161.763C457.135 161.763 456.556 161.961 456.126 162.354C455.686 162.748 455.466 163.199 455.466 163.709L455.5 164.716C455.5 165.249 455.364 165.66 455.091 165.95C454.819 166.239 454.462 166.384 454.021 166.384C453.592 166.384 453.241 166.234 452.969 165.933C452.696 165.632 452.56 165.22 452.56 164.699C452.56 163.703 453.07 162.788 454.091 161.954C455.111 161.12 456.544 160.703 458.388 160.703C459.803 160.703 460.963 160.941 461.868 161.415C462.552 161.775 463.056 162.337 463.381 163.101C463.59 163.599 463.694 164.618 463.694 166.158V171.561C463.694 173.078 463.723 174.008 463.781 174.349C463.839 174.691 463.934 174.92 464.068 175.036C464.202 175.152 464.355 175.209 464.529 175.209C464.715 175.209 464.877 175.169 465.016 175.087C465.26 174.937 465.73 174.515 466.425 173.82V174.793C465.126 176.529 463.886 177.398 462.703 177.398C462.134 177.398 461.682 177.201 461.345 176.808C461.009 176.414 460.835 175.742 460.823 174.793" fill="black"/>
<path d="M472.662 164.091C473.822 162.932 474.506 162.267 474.715 162.093C475.237 161.653 475.799 161.31 476.402 161.067C477.005 160.824 477.603 160.703 478.194 160.703C479.191 160.703 480.05 160.992 480.769 161.572C481.487 162.151 481.97 162.99 482.213 164.091C483.408 162.701 484.417 161.789 485.24 161.354C486.063 160.92 486.91 160.703 487.78 160.703C488.626 160.703 489.378 160.92 490.033 161.354C490.688 161.789 491.207 162.498 491.59 163.483C491.845 164.154 491.972 165.208 491.972 166.644V173.489C491.972 174.486 492.048 175.169 492.199 175.539C492.315 175.794 492.529 176.011 492.843 176.19C493.155 176.37 493.665 176.46 494.374 176.46V177.085H486.51V176.46H486.84C487.524 176.46 488.058 176.327 488.441 176.06C488.708 175.875 488.899 175.58 489.015 175.174C489.061 174.977 489.085 174.416 489.085 173.489V166.644C489.085 165.347 488.929 164.432 488.615 163.899C488.162 163.158 487.438 162.788 486.441 162.788C485.826 162.788 485.208 162.941 484.587 163.247C483.967 163.555 483.216 164.125 482.334 164.959L482.3 165.15L482.334 165.897V173.489C482.334 174.577 482.396 175.255 482.517 175.522C482.639 175.788 482.868 176.011 483.204 176.19C483.541 176.37 484.115 176.46 484.927 176.46V177.085H476.873V176.46C477.753 176.46 478.36 176.356 478.69 176.147C479.02 175.938 479.249 175.626 479.377 175.209C479.435 175.012 479.464 174.439 479.464 173.489V166.644C479.464 165.347 479.273 164.415 478.89 163.848C478.38 163.106 477.667 162.736 476.751 162.736C476.124 162.736 475.503 162.903 474.889 163.24C473.926 163.749 473.184 164.322 472.662 164.959V173.489C472.662 174.531 472.734 175.209 472.879 175.522C473.024 175.834 473.239 176.069 473.523 176.225C473.807 176.381 474.385 176.46 475.254 176.46V177.085H467.373V176.46C468.103 176.46 468.613 176.381 468.904 176.225C469.194 176.069 469.414 175.82 469.565 175.478C469.715 175.137 469.791 174.474 469.791 173.489V167.408C469.791 165.66 469.739 164.531 469.634 164.021C469.553 163.639 469.427 163.376 469.252 163.231C469.078 163.086 468.84 163.013 468.538 163.013C468.213 163.013 467.825 163.1 467.373 163.274L467.112 162.649L471.914 160.703H472.662V164.091Z" fill="black"/>
<path d="M500.331 165.029V174.549C500.922 175.129 501.534 175.566 502.166 175.861C502.798 176.156 503.444 176.304 504.105 176.304C505.161 176.304 506.144 175.725 507.054 174.567C507.965 173.408 508.42 171.723 508.42 169.511C508.42 167.473 507.965 165.907 507.054 164.812C506.144 163.718 505.108 163.17 503.949 163.17C503.334 163.17 502.719 163.327 502.105 163.639C501.641 163.871 501.05 164.335 500.331 165.029ZM500.331 163.918C501.872 161.775 503.537 160.703 505.323 160.703C506.959 160.703 508.386 161.401 509.602 162.797C510.821 164.192 511.429 166.1 511.429 168.521C511.429 171.347 510.49 173.623 508.611 175.348C506.999 176.832 505.201 177.572 503.218 177.572C502.29 177.572 501.348 177.404 500.391 177.068C499.435 176.732 498.458 176.228 497.46 175.557V159.07C497.46 157.264 497.417 156.152 497.33 155.735C497.242 155.319 497.106 155.034 496.921 154.883C496.735 154.733 496.503 154.658 496.225 154.658C495.9 154.658 495.494 154.751 495.007 154.935L494.763 154.328L499.547 152.382H500.331V163.918Z" fill="black"/>
<path d="M518.153 152.382C518.64 152.382 519.055 152.553 519.397 152.895C519.739 153.236 519.91 153.651 519.91 154.137C519.91 154.623 519.739 155.04 519.397 155.388C519.055 155.735 518.64 155.909 518.153 155.909C517.665 155.909 517.248 155.735 516.9 155.388C516.552 155.04 516.378 154.623 516.378 154.137C516.378 153.651 516.55 153.236 516.891 152.895C517.234 152.553 517.654 152.382 518.153 152.382ZM519.597 160.703V173.49C519.597 174.486 519.67 175.148 519.814 175.479C519.959 175.809 520.174 176.055 520.458 176.217C520.742 176.379 521.261 176.46 522.016 176.46V177.085H514.273V176.46C515.051 176.46 515.572 176.385 515.838 176.234C516.106 176.084 516.318 175.835 516.474 175.488C516.631 175.14 516.709 174.474 516.709 173.49V167.358C516.709 165.632 516.656 164.514 516.552 164.004C516.471 163.634 516.344 163.376 516.169 163.231C515.996 163.087 515.758 163.014 515.456 163.014C515.131 163.014 514.736 163.101 514.273 163.275L514.029 162.649L518.832 160.703H519.597Z" fill="black"/>
<path d="M531.573 161.833C530.958 161.833 530.34 162.015 529.72 162.38C529.099 162.745 528.598 163.385 528.215 164.299C527.833 165.215 527.641 166.39 527.641 167.826C527.641 170.143 528.102 172.141 529.024 173.82C529.946 175.499 531.161 176.338 532.669 176.338C533.794 176.338 534.722 175.876 535.452 174.949C536.183 174.022 536.549 172.43 536.549 170.171C536.549 167.345 535.939 165.122 534.722 163.5C533.898 162.389 532.849 161.833 531.573 161.833ZM532.112 160.703C534.525 160.703 536.461 161.619 537.923 163.448C539.163 165.012 539.784 166.807 539.784 168.833C539.784 170.258 539.443 171.7 538.759 173.16C538.073 174.618 537.132 175.719 535.931 176.46C534.73 177.202 533.394 177.572 531.921 177.572C529.52 177.572 527.612 176.617 526.198 174.706C525.002 173.096 524.405 171.29 524.405 169.285C524.405 167.826 524.768 166.376 525.492 164.934C526.217 163.492 527.171 162.427 528.355 161.737C529.538 161.048 530.79 160.703 532.112 160.703" fill="black"/>
<path d="M561.981 160.703V166.123H561.407C560.966 164.421 560.4 163.262 559.71 162.648C559.02 162.036 558.142 161.728 557.075 161.728C556.263 161.728 555.607 161.942 555.109 162.371C554.61 162.8 554.361 163.275 554.361 163.795C554.361 164.444 554.546 165 554.918 165.463C555.277 165.938 556.007 166.442 557.11 166.975L559.65 168.209C562.004 169.355 563.181 170.866 563.181 172.742C563.181 174.19 562.633 175.357 561.537 176.243C560.441 177.129 559.215 177.572 557.858 177.572C556.883 177.572 555.77 177.398 554.517 177.051C554.135 176.935 553.822 176.877 553.578 176.877C553.311 176.877 553.102 177.028 552.951 177.329H552.377V171.648H552.951C553.277 173.27 553.897 174.491 554.813 175.314C555.729 176.136 556.756 176.547 557.892 176.547C558.692 176.547 559.345 176.312 559.85 175.844C560.354 175.374 560.606 174.81 560.606 174.15C560.606 173.35 560.325 172.678 559.763 172.135C559.2 171.59 558.077 170.9 556.396 170.067C554.714 169.233 553.613 168.48 553.091 167.809C552.569 167.149 552.308 166.315 552.308 165.307C552.308 163.998 552.757 162.904 553.656 162.024C554.555 161.144 555.718 160.703 557.144 160.703C557.77 160.703 558.53 160.836 559.423 161.103C560.015 161.277 560.409 161.364 560.606 161.364C560.792 161.364 560.937 161.323 561.041 161.242C561.146 161.161 561.268 160.981 561.407 160.703H561.981Z" fill="black"/>
<path d="M573.122 161.833C572.507 161.833 571.889 162.015 571.269 162.38C570.649 162.745 570.148 163.385 569.765 164.299C569.382 165.215 569.19 166.39 569.19 167.826C569.19 170.143 569.651 172.141 570.574 173.82C571.496 175.499 572.71 176.338 574.218 176.338C575.343 176.338 576.271 175.876 577.001 174.949C577.732 174.022 578.098 172.43 578.098 170.171C578.098 167.345 577.489 165.122 576.271 163.5C575.447 162.389 574.398 161.833 573.122 161.833ZM573.662 160.703C576.074 160.703 578.01 161.619 579.472 163.448C580.713 165.012 581.333 166.807 581.333 168.833C581.333 170.258 580.992 171.7 580.308 173.16C579.622 174.618 578.681 175.719 577.48 176.46C576.28 177.202 574.943 177.572 573.471 177.572C571.07 177.572 569.161 176.617 567.747 174.706C566.551 173.096 565.954 171.29 565.954 169.285C565.954 167.826 566.317 166.376 567.041 164.934C567.767 163.492 568.721 162.427 569.904 161.737C571.087 161.048 572.34 160.703 573.662 160.703" fill="black"/>
<path d="M597.538 171.04C597.109 173.137 596.268 174.749 595.016 175.878C593.763 177.008 592.377 177.572 590.858 177.572C589.049 177.572 587.471 176.814 586.125 175.296C584.78 173.779 584.108 171.73 584.108 169.146C584.108 166.645 584.853 164.613 586.344 163.048C587.834 161.485 589.623 160.703 591.711 160.703C593.276 160.703 594.564 161.117 595.573 161.946C596.582 162.774 597.086 163.634 597.086 164.526C597.086 164.965 596.944 165.322 596.66 165.594C596.375 165.866 595.978 166.002 595.468 166.002C594.784 166.002 594.268 165.782 593.919 165.342C593.722 165.099 593.592 164.635 593.529 163.952C593.465 163.269 593.229 162.748 592.824 162.389C592.418 162.041 591.855 161.868 591.136 161.868C589.977 161.868 589.042 162.296 588.335 163.153C587.396 164.288 586.926 165.788 586.926 167.652C586.926 169.552 587.393 171.228 588.327 172.681C589.26 174.135 590.522 174.862 592.11 174.862C593.247 174.862 594.268 174.474 595.172 173.698C595.81 173.165 596.43 172.198 597.034 170.797L597.538 171.04Z" fill="black"/>
<path d="M604.192 152.382C604.679 152.382 605.094 152.553 605.436 152.895C605.778 153.236 605.949 153.651 605.949 154.137C605.949 154.623 605.778 155.04 605.436 155.388C605.094 155.735 604.679 155.909 604.192 155.909C603.705 155.909 603.287 155.735 602.939 155.388C602.591 155.04 602.417 154.623 602.417 154.137C602.417 153.651 602.589 153.236 602.931 152.895C603.273 152.553 603.693 152.382 604.192 152.382ZM605.636 160.703V173.49C605.636 174.486 605.709 175.148 605.853 175.479C605.998 175.809 606.213 176.055 606.497 176.217C606.781 176.379 607.3 176.46 608.055 176.46V177.085H600.312V176.46C601.09 176.46 601.611 176.385 601.877 176.234C602.145 176.084 602.357 175.835 602.513 175.488C602.67 175.14 602.748 174.474 602.748 173.49V167.358C602.748 165.632 602.696 164.514 602.591 164.004C602.51 163.634 602.383 163.376 602.208 163.231C602.035 163.087 601.797 163.014 601.496 163.014C601.17 163.014 600.776 163.101 600.312 163.275L600.069 162.649L604.871 160.703H605.636Z" fill="black"/>
<path d="M619.386 173.664V167.6C617.636 168.296 616.504 168.787 615.994 169.077C615.078 169.587 614.422 170.119 614.029 170.675C613.634 171.231 613.437 171.84 613.437 172.5C613.437 173.333 613.686 174.025 614.185 174.575C614.683 175.125 615.257 175.401 615.907 175.401C616.788 175.401 617.948 174.821 619.386 173.664V173.664ZM619.386 174.793C617.752 176.055 616.725 176.785 616.307 176.982C615.682 177.271 615.014 177.416 614.307 177.416C613.205 177.416 612.298 177.039 611.584 176.286C610.871 175.534 610.515 174.544 610.515 173.315C610.515 172.54 610.688 171.868 611.036 171.3C611.512 170.513 612.338 169.772 613.515 169.077C614.692 168.382 616.65 167.537 619.386 166.54V165.915C619.386 164.328 619.135 163.24 618.63 162.649C618.126 162.059 617.392 161.763 616.429 161.763C615.698 161.763 615.119 161.961 614.689 162.354C614.249 162.748 614.029 163.199 614.029 163.709L614.064 164.716C614.064 165.249 613.927 165.66 613.654 165.95C613.382 166.239 613.025 166.384 612.584 166.384C612.155 166.384 611.804 166.234 611.532 165.933C611.259 165.632 611.124 165.22 611.124 164.699C611.124 163.703 611.633 162.788 612.654 161.954C613.674 161.12 615.107 160.703 616.951 160.703C618.366 160.703 619.526 160.941 620.431 161.415C621.115 161.775 621.619 162.337 621.944 163.101C622.153 163.599 622.257 164.618 622.257 166.158V171.561C622.257 173.078 622.286 174.008 622.344 174.349C622.402 174.691 622.497 174.92 622.631 175.036C622.764 175.152 622.918 175.209 623.092 175.209C623.278 175.209 623.44 175.169 623.58 175.087C623.823 174.937 624.292 174.515 624.989 173.82V174.793C623.69 176.529 622.449 177.398 621.266 177.398C620.697 177.398 620.245 177.201 619.908 176.808C619.572 176.414 619.398 175.742 619.386 174.793" fill="black"/>
<path d="M631.972 152.382V173.49C631.972 174.486 632.044 175.146 632.19 175.47C632.335 175.795 632.557 176.041 632.859 176.208C633.162 176.377 633.724 176.46 634.547 176.46V177.085H626.735V176.46C627.466 176.46 627.965 176.385 628.231 176.234C628.499 176.084 628.707 175.835 628.858 175.488C629.008 175.14 629.084 174.474 629.084 173.49V159.036C629.084 157.24 629.044 156.138 628.962 155.727C628.881 155.315 628.751 155.035 628.571 154.883C628.391 154.733 628.162 154.658 627.884 154.658C627.582 154.658 627.199 154.751 626.735 154.936L626.44 154.328L631.189 152.382H631.972Z" fill="black"/>
<path d="M68.1419 58.9091C57.4019 66.3661 50.3573 78.7741 50.3573 92.7969H0.473633C0.473633 60.3733 17.5322 31.8515 43.1624 15.7152L68.1419 58.9091Z" fill="black"/>
<path d="M138.003 13.2158L113.069 56.3422C106.992 52.8251 99.9327 50.8094 92.4122 50.8094C83.6751 50.8094 75.5578 53.5345 68.8765 58.176L43.8965 14.9822C57.9549 6.12105 74.5978 0.99652 92.4122 0.99652C109.01 0.99652 124.588 5.44199 138.003 13.2158Z" fill="black"/>
<path d="M184.351 92.7974H134.467C134.467 77.5592 126.145 64.2228 113.803 57.0757L138.737 13.9494C165.985 29.7161 184.351 59.1511 184.351 92.7974Z" fill="black"/>
<path d="M68.1419 128.154C57.4019 120.698 50.3573 108.29 50.3573 94.2666H0.473633C0.473633 126.691 17.5322 155.212 43.1624 171.349L68.1419 128.154Z" fill="black"/>
<path d="M138.003 173.848L113.069 130.722C106.992 134.239 99.9327 136.254 92.4122 136.254C83.6751 136.254 75.5578 133.53 68.8765 128.888L43.8965 172.082C57.9549 180.943 74.5978 186.067 92.4122 186.067C109.01 186.067 124.588 181.622 138.003 173.848" fill="black"/>
<path d="M184.351 94.2662H134.467C134.467 109.504 126.145 122.841 113.803 129.988L138.737 173.114C165.985 157.348 184.351 127.913 184.351 94.2662Z" fill="black"/>
</svg>
