<svg width="38" height="16" viewBox="0 0 38 16" fill="none" xmlns="http://www.w3.org/2000/svg">
<g clip-path="url(#clip0)">
<path d="M6.84235 5.60258C6.99598 5.87578 7.04206 6.15656 7.07279 6.43734C7.1496 7.10515 6.89612 7.6743 6.51207 8.19792C5.98208 8.92644 5.30614 9.52595 4.60716 10.0875C4.29992 10.3379 3.97732 10.5732 3.63935 10.7933C3.5779 10.8312 3.53181 10.8616 3.455 10.8084C2.42574 10.0951 1.45025 9.32105 0.674458 8.33452C0.359534 7.93232 0.0830157 7.49976 0.0215672 6.98373C-0.124373 5.78471 0.467069 4.68435 1.89575 4.53258C2.43342 4.47946 2.92501 4.57811 3.37819 4.86648C3.47037 4.92719 3.48573 4.95754 3.39356 5.04102C3.0095 5.38251 2.55632 5.4584 2.06473 5.48875C1.02011 5.54946 0.83576 6.536 1.09692 7.12792C1.29662 7.57565 1.61923 7.93232 1.9572 8.2814C2.41806 8.75949 2.92501 9.18446 3.455 9.58666C3.51645 9.63219 3.55486 9.65496 3.63167 9.60184C4.37673 9.03268 5.09107 8.43317 5.66715 7.68189C5.77469 7.53771 5.86686 7.38593 5.95135 7.23416C6.09729 6.96855 6.1357 6.69536 6.07425 6.3994C6.05889 6.32351 6.06657 6.27798 6.14338 6.23245C6.4199 6.09585 6.65801 5.89854 6.84235 5.60258Z" fill="#008BC1"/>
<path d="M0.23339 5.66259C-0.0432706 4.96492 -0.104751 4.29758 0.21802 3.63024C0.456255 3.13731 0.80208 2.71264 1.18633 2.3183C1.8703 1.61305 2.62343 0.998788 3.43804 0.452782C3.49183 0.414864 3.53794 0.369364 3.61479 0.422448C4.67532 1.15804 5.67437 1.9543 6.46593 2.97806C6.74259 3.34207 6.98851 3.7364 7.05767 4.19141C7.22674 5.40476 6.65805 6.54227 5.20559 6.69394C4.69838 6.74702 4.20654 6.70911 3.73007 6.54985C3.72238 6.4816 3.76849 6.46644 3.79923 6.44369C3.9683 6.30719 4.14506 6.17068 4.32181 6.03418C4.51394 5.88251 4.72912 5.7991 4.99041 5.7991C5.62058 5.78393 6.05094 5.33651 6.09705 4.71467C6.12779 4.381 6.0202 4.09283 5.84344 3.81224C5.45919 3.21315 4.95198 2.72781 4.41403 2.2728C4.16811 2.06047 3.90682 1.8633 3.65322 1.65855C3.58405 1.60546 3.53794 1.58271 3.45341 1.65096C2.7925 2.15905 2.15464 2.68989 1.61669 3.3269C1.49373 3.47098 1.37846 3.63024 1.27086 3.78949C1.05568 4.11558 0.932725 4.45683 1.02494 4.85117C1.04031 4.91942 1.03263 4.96492 0.963465 4.99525C0.66375 5.14692 0.425515 5.34409 0.23339 5.66259Z" fill="#008BC1"/>
<path d="M2.18773 6.70616C1.86528 6.72227 1.55032 6.66589 1.25036 6.55314C1.10038 6.49676 1.11538 6.42428 1.18287 6.31152C1.37034 6.00548 1.6628 5.87661 1.97776 5.88467C2.49519 5.89272 2.91513 5.68332 3.32758 5.36117C3.905 4.9021 4.55741 4.64437 5.29981 4.88599C5.3598 4.9021 5.4198 4.92626 5.47979 4.95042C5.71226 5.04707 5.71975 5.06317 5.56228 5.27257C5.3523 5.55446 5.05984 5.64305 4.73739 5.65111C4.52742 5.65111 4.34744 5.72359 4.17496 5.85245C4.06248 5.94105 3.9425 6.02158 3.85251 6.13434C3.48506 6.54509 3.01262 6.66589 2.51019 6.71422C2.4052 6.72227 2.30022 6.70616 2.18773 6.70616Z" fill="#008BC1"/>
<path d="M10.5863 5.22895C9.00744 5.22895 8.0293 4.11519 8.0293 2.71738C8.0293 1.37189 9.03825 0.190857 10.5478 0.190857C11.395 0.190857 11.9188 0.430054 12.4194 0.841175L12.0574 1.25977C11.6723 0.930874 11.241 0.699151 10.5324 0.699151C9.42334 0.699151 8.62234 1.61109 8.62234 2.70243C8.62234 3.87599 9.39253 4.73561 10.6094 4.73561C11.1871 4.73561 11.7185 4.51884 12.0574 4.24974V3.0388H10.5324V2.54546H12.6042V4.48894C12.1344 4.89258 11.4335 5.22895 10.5863 5.22895Z" fill="#56575B"/>
<path d="M13.798 0.273071H14.368V4.63842H17.1946V5.14672H13.798V0.273071Z" fill="#56575B"/>
<path d="M20.1983 5.22895C18.6734 5.22895 17.6413 4.06287 17.6413 2.71738C17.6413 1.37189 18.6811 0.190857 20.2137 0.190857C21.7387 0.190857 22.7708 1.35694 22.7708 2.70243C22.7708 4.05539 21.731 5.22895 20.1983 5.22895ZM20.1983 0.699151C19.0507 0.699151 18.2343 1.58867 18.2343 2.70243C18.2343 3.81619 19.0661 4.72066 20.2137 4.72066C21.3613 4.72066 22.1777 3.83114 22.1777 2.71738C22.1777 1.60362 21.3459 0.699151 20.1983 0.699151Z" fill="#56575B"/>
<path d="M27.3688 1.49148C27.3688 2.13433 26.9683 2.46322 26.5755 2.62767C27.1685 2.79959 27.6537 3.13597 27.6537 3.80871C27.6537 4.65337 26.9298 5.14672 25.8284 5.14672H23.5948V0.273071H25.736C26.7218 0.273071 27.3688 0.743991 27.3688 1.49148ZM26.7988 1.56623C26.7988 1.08036 26.406 0.766416 25.6898 0.766416H24.1648V2.44827H25.6513C26.3213 2.44827 26.7988 2.14928 26.7988 1.56623ZM27.0761 3.77881C27.0761 3.24061 26.614 2.93414 25.7437 2.93414H24.1571V4.65337H25.8438C26.6063 4.65337 27.0761 4.32448 27.0761 3.77881Z" fill="#56575B"/>
<path d="M33.3763 5.14671H32.7678L32.1748 3.86102H29.4406L28.8475 5.14671H28.2699L30.5574 0.235687H31.0888L33.3763 5.14671ZM30.8115 0.87853L29.6639 3.36768H31.9514L30.8115 0.87853Z" fill="#56575B"/>
<path d="M34.2773 0.273071H34.8473V4.63842H37.6739V5.14672H34.2773V0.273071Z" fill="#56575B"/>
<path d="M7.9908 6.08109H9.93167C11.7185 6.08109 12.7583 7.08272 12.7583 8.48801V8.50296C12.7583 9.90824 11.7031 10.9547 9.90086 10.9547H7.98309V6.08109H7.9908ZM9.37714 7.2696V9.75874H9.94708C10.7866 9.75874 11.3411 9.31025 11.3411 8.52538V8.51043C11.3411 7.73304 10.7866 7.2696 9.94708 7.2696H9.37714Z" fill="#56575B"/>
<path d="M13.2358 6.08109H14.6298V10.9547H13.2358V6.08109Z" fill="#56575B"/>
<path d="M15.2383 8.53289V8.51795C15.2383 7.09771 16.3859 5.98395 17.9339 5.98395C18.8197 5.98395 19.4435 6.23809 19.9749 6.68659L19.1585 7.65085C18.7966 7.35933 18.45 7.19488 17.9493 7.19488C17.2254 7.19488 16.6631 7.77793 16.6631 8.52542V8.54037C16.6631 9.33271 17.2331 9.9008 18.0264 9.9008C18.373 9.9008 18.6271 9.83353 18.8274 9.69898V9.09351H17.8415V8.10682H20.1444V10.2895C19.613 10.723 18.8813 11.0519 17.9648 11.0519C16.4013 11.0519 15.2383 10.0055 15.2383 8.53289Z" fill="#56575B"/>
<path d="M20.7836 6.08109H22.0852L24.1494 8.65993V6.08109H25.528V10.9547H24.3188L22.1623 8.27871V10.9547H20.7836V6.08109Z" fill="#56575B"/>
<path d="M26.3136 6.08109H27.7076V10.9547H26.3136V6.08109Z" fill="#56575B"/>
<path d="M29.7024 7.26212H28.2006V6.08109H32.5983V7.26212H31.0888V10.9547H29.6947V7.26212H29.7024Z" fill="#56575B"/>
<path d="M34.5315 9.13085L32.6138 6.08109H34.2004L35.2324 7.86012L36.2722 6.08109H37.828L35.9179 9.10843V10.9547H34.5238V9.13085H34.5315Z" fill="#56575B"/>
</g>
<path d="M9.47314 13.4267C9.43935 13.3933 9.39992 13.3638 9.35486 13.3383C9.3098 13.3107 9.25911 13.2871 9.20279 13.2675C9.14646 13.2478 9.08563 13.2321 9.0203 13.2203C8.95722 13.2085 8.88963 13.2026 8.81753 13.2026C8.60801 13.2026 8.45368 13.238 8.35455 13.3088C8.25767 13.3776 8.20924 13.4719 8.20924 13.5918C8.20924 13.6744 8.23177 13.7393 8.27682 13.7864C8.32414 13.8336 8.39736 13.8719 8.49649 13.9014C8.59562 13.9309 8.72178 13.9614 8.87498 13.9928C9.04621 14.0243 9.19378 14.0616 9.31769 14.1049C9.4416 14.1481 9.53735 14.2071 9.60494 14.2818C9.67253 14.3545 9.70632 14.4538 9.70632 14.5796C9.70632 14.6759 9.68492 14.7595 9.64211 14.8302C9.59931 14.901 9.5396 14.96 9.463 15.0071C9.3864 15.0543 9.29516 15.0897 9.18927 15.1133C9.08338 15.1349 8.96735 15.1457 8.84119 15.1457C8.71728 15.1457 8.59787 15.1349 8.48297 15.1133C8.37032 15.0897 8.26331 15.0563 8.16192 15.013C8.06054 14.9678 7.96592 14.9108 7.87805 14.842L7.99633 14.674C8.03914 14.7133 8.08983 14.7506 8.14841 14.786C8.20924 14.8194 8.2757 14.8499 8.34779 14.8774C8.42214 14.9049 8.50099 14.9265 8.58435 14.9423C8.66996 14.956 8.75783 14.9629 8.84795 14.9629C9.03945 14.9629 9.18814 14.9324 9.29403 14.8715C9.40217 14.8106 9.45625 14.7201 9.45625 14.6002C9.45625 14.5137 9.42921 14.4449 9.37514 14.3938C9.32107 14.3408 9.23996 14.2975 9.13182 14.2641C9.02368 14.2307 8.89075 14.1983 8.73305 14.1668C8.56633 14.1334 8.42552 14.096 8.31062 14.0548C8.19572 14.0135 8.10898 13.9594 8.0504 13.8926C7.99408 13.8238 7.96592 13.7334 7.96592 13.6213C7.96592 13.4916 8.00196 13.3825 8.07406 13.294C8.14841 13.2036 8.24979 13.1358 8.37821 13.0906C8.50663 13.0434 8.65419 13.0198 8.82091 13.0198C8.9268 13.0198 9.0248 13.0296 9.11492 13.0493C9.20729 13.067 9.29178 13.0935 9.36838 13.1289C9.44723 13.1643 9.52045 13.2085 9.58804 13.2616L9.47314 13.4267Z" fill="#56565B"/>
<path d="M10.975 15.1575C10.8286 15.1575 10.6968 15.1241 10.5796 15.0573C10.4647 14.9904 10.3735 14.9079 10.3059 14.8096V15.7561H10.0761V13.5918H10.2823V13.8896C10.3521 13.7933 10.4456 13.7157 10.5627 13.6567C10.6799 13.5958 10.8049 13.5653 10.9379 13.5653C11.0595 13.5653 11.171 13.5879 11.2724 13.6331C11.3738 13.6764 11.4617 13.7353 11.536 13.81C11.6104 13.8847 11.6678 13.9702 11.7084 14.0666C11.7512 14.1609 11.7726 14.2592 11.7726 14.3614C11.7726 14.5049 11.7388 14.6376 11.6712 14.7595C11.6059 14.8794 11.5135 14.9757 11.3941 15.0484C11.2747 15.1212 11.135 15.1575 10.975 15.1575ZM10.9108 14.9806C11.0077 14.9806 11.0944 14.9639 11.171 14.9305C11.2476 14.8951 11.313 14.8479 11.367 14.7889C11.4234 14.73 11.4662 14.6641 11.4955 14.5914C11.5248 14.5167 11.5394 14.44 11.5394 14.3614C11.5394 14.2788 11.5225 14.2002 11.4887 14.1255C11.4572 14.0508 11.411 13.985 11.3502 13.928C11.2893 13.871 11.2195 13.8258 11.1406 13.7923C11.0618 13.7589 10.9762 13.7422 10.8838 13.7422C10.8252 13.7422 10.7644 13.752 10.7013 13.7717C10.6382 13.7914 10.5774 13.8199 10.5188 13.8572C10.4625 13.8926 10.4152 13.9329 10.3769 13.9781C10.3386 14.0233 10.3149 14.0715 10.3059 14.1226V14.5943C10.342 14.6671 10.3904 14.7329 10.4512 14.7919C10.5121 14.8489 10.5819 14.8951 10.6607 14.9305C10.7419 14.9639 10.8252 14.9806 10.9108 14.9806Z" fill="#56565B"/>
<path d="M12.0199 14.6857C12.0199 14.5894 12.0515 14.5069 12.1145 14.4381C12.1776 14.3673 12.2644 14.3132 12.3748 14.2759C12.4874 14.2366 12.6169 14.2169 12.7634 14.2169C12.849 14.2169 12.938 14.2228 13.0304 14.2346C13.1227 14.2464 13.205 14.2641 13.2771 14.2877V14.158C13.2771 14.0282 13.2331 13.925 13.1453 13.8484C13.0574 13.7717 12.9357 13.7334 12.7803 13.7334C12.6857 13.7334 12.5922 13.7491 12.4998 13.7805C12.4097 13.81 12.315 13.8543 12.2159 13.9132L12.1281 13.7717C12.243 13.7029 12.3556 13.6518 12.466 13.6184C12.5764 13.583 12.689 13.5653 12.8039 13.5653C13.0202 13.5653 13.1914 13.6194 13.3176 13.7275C13.4438 13.8356 13.5069 13.985 13.5069 14.1756V14.8862C13.5069 14.9138 13.5136 14.9344 13.5271 14.9482C13.5407 14.96 13.5621 14.9668 13.5913 14.9688V15.128C13.5666 15.13 13.5452 15.132 13.5271 15.1339C13.5091 15.1359 13.4956 15.1359 13.4866 15.1339C13.4303 15.132 13.3875 15.1162 13.3582 15.0868C13.3289 15.0573 13.3131 15.0258 13.3109 14.9924L13.3075 14.8804C13.2286 14.9688 13.1261 15.0376 12.9999 15.0868C12.8738 15.1339 12.7454 15.1575 12.6147 15.1575C12.502 15.1575 12.3995 15.1369 12.3072 15.0956C12.217 15.0524 12.1461 14.9953 12.0943 14.9246C12.0447 14.8518 12.0199 14.7722 12.0199 14.6857ZM13.1993 14.8037C13.2241 14.7762 13.2433 14.7496 13.2568 14.7241C13.2703 14.6985 13.2771 14.6759 13.2771 14.6563V14.4322C13.2005 14.4066 13.1205 14.387 13.0371 14.3732C12.956 14.3594 12.8738 14.3526 12.7904 14.3526C12.626 14.3526 12.493 14.3811 12.3917 14.4381C12.2903 14.4951 12.2396 14.5727 12.2396 14.671C12.2396 14.728 12.2565 14.7821 12.2903 14.8332C12.3241 14.8823 12.3736 14.9236 12.439 14.957C12.5043 14.9885 12.5809 15.0042 12.6688 15.0042C12.7792 15.0042 12.8817 14.9855 12.9763 14.9482C13.0732 14.9108 13.1475 14.8627 13.1993 14.8037Z" fill="#56565B"/>
<path d="M14.0034 15.128V13.5918H14.2332V15.128H14.0034ZM14.0034 13.2704V12.9756H14.2332V13.2704H14.0034Z" fill="#56565B"/>
<path d="M16.2195 15.128H15.9897V14.27C15.9897 14.0892 15.9593 13.9575 15.8985 13.8749C15.8376 13.7904 15.7419 13.7481 15.6112 13.7481C15.5211 13.7481 15.4321 13.7678 15.3442 13.8071C15.2564 13.8444 15.1787 13.8965 15.1111 13.9634C15.0457 14.0282 14.9984 14.1029 14.9691 14.1874V15.128H14.7393V13.5918H14.9488V13.9398C14.9962 13.8651 15.0581 13.8002 15.1347 13.7452C15.2113 13.6882 15.2981 13.6439 15.3949 13.6125C15.4918 13.581 15.5921 13.5653 15.6957 13.5653C15.7926 13.5653 15.8748 13.581 15.9424 13.6125C16.01 13.6439 16.0641 13.6891 16.1046 13.7481C16.1452 13.8051 16.1745 13.8749 16.1925 13.9575C16.2105 14.038 16.2195 14.1285 16.2195 14.2287V15.128Z" fill="#56565B"/>
<defs>
<clipPath id="clip0">
<rect width="38" height="11.122" fill="white"/>
</clipPath>
</defs>
</svg>
