<svg width="82" height="24" viewBox="0 0 82 24" fill="none" xmlns="http://www.w3.org/2000/svg">
<path d="M14.7651 12.0899C15.0966 12.6794 15.196 13.2853 15.2623 13.8912C15.4281 15.3322 14.8811 16.5604 14.0524 17.6903C12.9087 19.2624 11.4501 20.5561 9.94178 21.7679C9.27878 22.3082 8.58263 22.8159 7.85333 23.2908C7.72073 23.3727 7.62128 23.4382 7.45553 23.3235C5.23449 21.7842 3.12948 20.1139 1.45541 17.9851C0.775837 17.1172 0.179139 16.1838 0.0465398 15.0702C-0.268384 12.4829 1.00789 10.1084 4.09082 9.78089C5.25107 9.66626 6.31186 9.87914 7.28979 10.5014C7.48869 10.6324 7.52183 10.6979 7.32294 10.8781C6.49419 11.615 5.51627 11.7787 4.45547 11.8442C2.20128 11.9752 1.80348 14.1041 2.36703 15.3814C2.79798 16.3475 3.49413 17.1172 4.22342 17.8704C5.21792 18.9021 6.31186 19.8191 7.45553 20.6871C7.58813 20.7853 7.67101 20.8344 7.83676 20.7198C9.44453 19.4916 10.986 18.198 12.2291 16.5768C12.4612 16.2656 12.6601 15.9381 12.8424 15.6106C13.1573 15.0375 13.2402 14.4479 13.1076 13.8093C13.0744 13.6455 13.091 13.5473 13.2568 13.449C13.8535 13.1543 14.3673 12.7285 14.7651 12.0899Z" fill="#008BC1"/>
<path d="M0.50363 12.2192C-0.0933733 10.7137 -0.226041 9.27364 0.470463 7.83359C0.984549 6.76991 1.7308 5.85351 2.55998 5.00257C4.0359 3.4807 5.66108 2.1552 7.41892 0.976973C7.535 0.895152 7.6345 0.796967 7.80034 0.911516C10.0889 2.49885 12.2447 4.21709 13.9528 6.42626C14.5498 7.21174 15.0805 8.06269 15.2297 9.04454C15.5945 11.6628 14.3674 14.1174 11.2331 14.4447C10.1386 14.5593 9.07726 14.4775 8.04909 14.1338C8.03251 13.9865 8.13201 13.9538 8.19834 13.9047C8.56318 13.6102 8.94459 13.3156 9.32601 13.021C9.7406 12.6938 10.2049 12.5138 10.7688 12.5138C12.1286 12.481 13.0573 11.5155 13.1568 10.1737C13.2231 9.45364 12.991 8.8318 12.6095 8.22633C11.7804 6.93355 10.6859 5.88624 9.52501 4.90439C8.99434 4.44619 8.43051 4.02072 7.88326 3.57889C7.734 3.46434 7.6345 3.41524 7.45209 3.56252C6.02591 4.65892 4.64949 5.80442 3.48865 7.17902C3.22331 7.48994 2.97456 7.83359 2.74239 8.17723C2.27806 8.8809 2.01272 9.61729 2.21172 10.4682C2.24489 10.6155 2.22831 10.7137 2.07906 10.7791C1.4323 11.1064 0.918216 11.5319 0.50363 12.2192Z" fill="#008BC1"/>
<path d="M4.72089 14.4712C4.02506 14.506 3.34541 14.3843 2.69813 14.141C2.37449 14.0193 2.40686 13.8629 2.5525 13.6196C2.95705 12.9592 3.58814 12.6811 4.26779 12.6985C5.38435 12.7159 6.29054 12.264 7.18055 11.5689C8.42657 10.5782 9.8344 10.0221 11.4364 10.5435C11.5659 10.5782 11.6953 10.6304 11.8248 10.6825C12.3264 10.8911 12.3426 10.9258 12.0028 11.3777C11.5497 11.986 10.9186 12.1771 10.2228 12.1945C9.76967 12.1945 9.38131 12.3509 9.00912 12.629C8.76639 12.8202 8.50748 12.994 8.31329 13.2373C7.52037 14.1236 6.50091 14.3843 5.41671 14.4886C5.19016 14.506 4.96362 14.4712 4.72089 14.4712Z" fill="#008BC1"/>
<path d="M22.8442 11.2835C19.4371 11.2835 17.3264 8.88016 17.3264 5.86384C17.3264 2.96042 19.5036 0.411865 22.7611 0.411865C24.5893 0.411865 25.7195 0.928028 26.7997 1.81518L26.0186 2.71847C25.1876 2.00874 24.2569 1.50871 22.7279 1.50871C20.3346 1.50871 18.6061 3.47658 18.6061 5.83158C18.6061 8.364 20.2681 10.219 22.8941 10.219C24.1406 10.219 25.2873 9.75119 26.0186 9.1705V6.55743H22.7279V5.49284H27.1986V9.68667C26.1848 10.5577 24.6724 11.2835 22.8442 11.2835Z" fill="#56575B"/>
<path d="M29.7747 0.589355H31.0046V10.0093H37.1041V11.1062H29.7747V0.589355Z" fill="#56575B"/>
<path d="M43.5858 11.2835C40.2951 11.2835 38.068 8.76725 38.068 5.86384C38.068 2.96042 40.3117 0.411865 43.619 0.411865C46.9098 0.411865 49.1368 2.92816 49.1368 5.83158C49.1368 8.75112 46.8931 11.2835 43.5858 11.2835ZM43.5858 1.50871C41.1094 1.50871 39.3477 3.42819 39.3477 5.83158C39.3477 8.23496 41.1427 10.1867 43.619 10.1867C46.0954 10.1867 47.8571 8.26722 47.8571 5.86384C47.8571 3.46045 46.0622 1.50871 43.5858 1.50871Z" fill="#56575B"/>
<path d="M59.0589 3.21856C59.0589 4.60575 58.1947 5.31547 57.347 5.67033C58.6268 6.04133 59.6738 6.76718 59.6738 8.21889C59.6738 10.0416 58.1116 11.1062 55.7349 11.1062H50.9152V0.589355H55.5355C57.6628 0.589355 59.0589 1.60555 59.0589 3.21856ZM57.829 3.37986C57.829 2.33141 56.9814 1.65394 55.4358 1.65394H52.145V5.28321H55.3527C56.7986 5.28321 57.829 4.63801 57.829 3.37986ZM58.4273 8.15437C58.4273 6.993 57.4301 6.33167 55.5521 6.33167H52.1284V10.0416H55.7682C57.4135 10.0416 58.4273 9.33186 58.4273 8.15437Z" fill="#56575B"/>
<path d="M72.0224 11.106H70.7094L69.4297 8.33164H63.5296L62.2499 11.106H61.0034L65.9395 0.508545H67.0863L72.0224 11.106ZM66.488 1.89573L64.0116 7.26705H68.9477L66.488 1.89573Z" fill="#56575B"/>
<path d="M73.9669 0.589355H75.1968V10.0093H81.2963V11.1062H73.9669V0.589355Z" fill="#56575B"/>
<path d="M17.2433 13.1223H21.4315C25.2873 13.1223 27.531 15.2837 27.531 18.3162V18.3485C27.531 21.3809 25.2541 23.6391 21.365 23.6391H17.2267V13.1223H17.2433ZM20.2349 15.687V21.0583H21.4648C23.2763 21.0583 24.473 20.0905 24.473 18.3969V18.3646C24.473 16.6871 23.2763 15.687 21.4648 15.687H20.2349Z" fill="#56575B"/>
<path d="M28.5615 13.1223H31.5697V23.6391H28.5615V13.1223Z" fill="#56575B"/>
<path d="M32.8826 18.4132V18.3809C32.8826 15.3162 35.359 12.9128 38.6996 12.9128C40.6109 12.9128 41.9571 13.4613 43.1039 14.4291L41.3422 16.5099C40.561 15.8808 39.8131 15.5259 38.7328 15.5259C37.1706 15.5259 35.9573 16.7841 35.9573 18.3971V18.4293C35.9573 20.1391 37.1872 21.365 38.899 21.365C39.6469 21.365 40.1954 21.2198 40.6275 20.9295V19.623H38.5002V17.4938H43.4695V22.2038C42.3227 23.1393 40.7438 23.849 38.7661 23.849C35.3922 23.849 32.8826 21.5908 32.8826 18.4132Z" fill="#56575B"/>
<path d="M44.8489 13.1223H47.6577L52.1118 18.6872V13.1223H55.0868V23.6391H52.4775L47.8239 17.8646V23.6391H44.8489V13.1223Z" fill="#56575B"/>
<path d="M56.782 13.1223H59.7902V23.6391H56.782V13.1223Z" fill="#56575B"/>
<path d="M64.0948 15.6709H60.8539V13.1223H70.3438V15.6709H67.0863V23.6391H64.0781V15.6709H64.0948Z" fill="#56575B"/>
<path d="M74.5154 19.7034L70.3771 13.1223H73.8008L76.0278 16.9613L78.2715 13.1223H81.6287L77.507 19.655V23.6391H74.4988V19.7034H74.5154Z" fill="#56575B"/>
</svg>
