<svg width="82" height="34" viewBox="0 0 82 34" fill="none" xmlns="http://www.w3.org/2000/svg">
<path d="M14.7651 12.0899C15.0966 12.6794 15.196 13.2853 15.2623 13.8912C15.4281 15.3322 14.8811 16.5604 14.0524 17.6903C12.9087 19.2624 11.4501 20.5561 9.94178 21.7679C9.27878 22.3082 8.58263 22.8159 7.85333 23.2908C7.72073 23.3727 7.62128 23.4382 7.45553 23.3235C5.23449 21.7842 3.12948 20.1139 1.45541 17.9851C0.775837 17.1172 0.179139 16.1838 0.0465398 15.0702C-0.268384 12.4829 1.00789 10.1084 4.09082 9.78089C5.25107 9.66626 6.31186 9.87914 7.28979 10.5014C7.48869 10.6324 7.52183 10.6979 7.32294 10.8781C6.49419 11.615 5.51627 11.7787 4.45547 11.8442C2.20128 11.9752 1.80348 14.1041 2.36703 15.3814C2.79798 16.3475 3.49413 17.1172 4.22342 17.8704C5.21792 18.9021 6.31186 19.8191 7.45553 20.6871C7.58813 20.7853 7.67101 20.8344 7.83676 20.7198C9.44453 19.4916 10.986 18.198 12.2291 16.5768C12.4612 16.2656 12.6601 15.9381 12.8424 15.6106C13.1573 15.0375 13.2402 14.4479 13.1076 13.8093C13.0744 13.6455 13.091 13.5473 13.2568 13.449C13.8535 13.1543 14.3673 12.7285 14.7651 12.0899Z" fill="#008BC1"/>
<path d="M0.50363 12.2192C-0.0933733 10.7137 -0.226041 9.27364 0.470463 7.83359C0.984549 6.76991 1.7308 5.85351 2.55998 5.00257C4.0359 3.4807 5.66108 2.1552 7.41892 0.976973C7.535 0.895152 7.6345 0.796967 7.80034 0.911516C10.0889 2.49885 12.2447 4.21709 13.9528 6.42626C14.5498 7.21174 15.0805 8.06269 15.2297 9.04454C15.5945 11.6628 14.3674 14.1174 11.2331 14.4447C10.1386 14.5593 9.07726 14.4775 8.04909 14.1338C8.03251 13.9865 8.13201 13.9538 8.19834 13.9047C8.56318 13.6102 8.94459 13.3156 9.32601 13.021C9.7406 12.6938 10.2049 12.5138 10.7688 12.5138C12.1286 12.481 13.0573 11.5155 13.1568 10.1737C13.2231 9.45364 12.991 8.8318 12.6095 8.22633C11.7804 6.93355 10.6859 5.88624 9.52501 4.90439C8.99434 4.44619 8.43051 4.02072 7.88326 3.57889C7.734 3.46434 7.6345 3.41524 7.45209 3.56252C6.02591 4.65892 4.64949 5.80442 3.48865 7.17902C3.22331 7.48994 2.97456 7.83359 2.74239 8.17723C2.27806 8.8809 2.01272 9.61729 2.21172 10.4682C2.24489 10.6155 2.22831 10.7137 2.07906 10.7791C1.4323 11.1064 0.918216 11.5319 0.50363 12.2192Z" fill="#008BC1"/>
<path d="M4.72082 14.4712C4.025 14.506 3.34535 14.3843 2.69807 14.141C2.37443 14.0193 2.4068 13.8629 2.55243 13.6196C2.95699 12.9592 3.58808 12.6811 4.26773 12.6985C5.38429 12.7159 6.29048 12.264 7.18049 11.5689C8.42651 10.5782 9.83434 10.0221 11.4364 10.5435C11.5658 10.5782 11.6953 10.6304 11.8247 10.6825C12.3264 10.8911 12.3426 10.9258 12.0027 11.3777C11.5496 11.986 10.9185 12.1771 10.2227 12.1945C9.76961 12.1945 9.38124 12.3509 9.00906 12.629C8.76633 12.8202 8.50742 12.994 8.31323 13.2373C7.52031 14.1236 6.50085 14.3843 5.41665 14.4886C5.1901 14.506 4.96355 14.4712 4.72082 14.4712Z" fill="#008BC1"/>
<path d="M22.8442 11.2835C19.4371 11.2835 17.3264 8.88016 17.3264 5.86384C17.3264 2.96042 19.5036 0.411865 22.7611 0.411865C24.5893 0.411865 25.7195 0.928028 26.7997 1.81518L26.0186 2.71847C25.1876 2.00874 24.2569 1.50871 22.7279 1.50871C20.3346 1.50871 18.6061 3.47658 18.6061 5.83158C18.6061 8.364 20.2681 10.219 22.8941 10.219C24.1406 10.219 25.2873 9.75119 26.0186 9.1705V6.55743H22.7279V5.49284H27.1986V9.68667C26.1848 10.5577 24.6724 11.2835 22.8442 11.2835Z" fill="#56575B"/>
<path d="M29.7747 0.589355H31.0045V10.0093H37.104V11.1062H29.7747V0.589355Z" fill="#56575B"/>
<path d="M43.5858 11.2835C40.2951 11.2835 38.068 8.76725 38.068 5.86384C38.068 2.96042 40.3117 0.411865 43.619 0.411865C46.9098 0.411865 49.1368 2.92816 49.1368 5.83158C49.1368 8.75112 46.8931 11.2835 43.5858 11.2835ZM43.5858 1.50871C41.1094 1.50871 39.3477 3.42819 39.3477 5.83158C39.3477 8.23496 41.1427 10.1867 43.619 10.1867C46.0954 10.1867 47.8571 8.26722 47.8571 5.86384C47.8571 3.46045 46.0622 1.50871 43.5858 1.50871Z" fill="#56575B"/>
<path d="M59.0589 3.21856C59.0589 4.60575 58.1947 5.31547 57.347 5.67033C58.6268 6.04133 59.6738 6.76718 59.6738 8.21889C59.6738 10.0416 58.1116 11.1062 55.7349 11.1062H50.9152V0.589355H55.5355C57.6628 0.589355 59.0589 1.60555 59.0589 3.21856ZM57.829 3.37986C57.829 2.33141 56.9814 1.65394 55.4358 1.65394H52.145V5.28321H55.3527C56.7986 5.28321 57.829 4.63801 57.829 3.37986ZM58.4273 8.15437C58.4273 6.993 57.4301 6.33167 55.5521 6.33167H52.1284V10.0416H55.7682C57.4135 10.0416 58.4273 9.33186 58.4273 8.15437Z" fill="#56575B"/>
<path d="M72.0224 11.106H70.7094L69.4297 8.33164H63.5296L62.2499 11.106H61.0034L65.9395 0.508545H67.0863L72.0224 11.106ZM66.488 1.89573L64.0116 7.26705H68.9477L66.488 1.89573Z" fill="#56575B"/>
<path d="M73.9669 0.589355H75.1968V10.0093H81.2963V11.1062H73.9669V0.589355Z" fill="#56575B"/>
<path d="M17.2433 13.1223H21.4315C25.2873 13.1223 27.531 15.2837 27.531 18.3162V18.3485C27.531 21.3809 25.2541 23.6391 21.365 23.6391H17.2267V13.1223H17.2433ZM20.2349 15.687V21.0583H21.4648C23.2763 21.0583 24.473 20.0905 24.473 18.3969V18.3646C24.473 16.6871 23.2763 15.687 21.4648 15.687H20.2349Z" fill="#56575B"/>
<path d="M28.5614 13.1223H31.5696V23.6391H28.5614V13.1223Z" fill="#56575B"/>
<path d="M32.8826 18.4132V18.3809C32.8826 15.3162 35.3589 12.9128 38.6995 12.9128C40.6108 12.9128 41.957 13.4613 43.1038 14.4291L41.3421 16.5099C40.561 15.8808 39.8131 15.5259 38.7328 15.5259C37.1705 15.5259 35.9572 16.7841 35.9572 18.3971V18.4293C35.9572 20.1391 37.1871 21.365 38.899 21.365C39.6469 21.365 40.1953 21.2198 40.6274 20.9295V19.623H38.5001V17.4938H43.4694V22.2038C42.3227 23.1393 40.7438 23.849 38.766 23.849C35.3922 23.849 32.8826 21.5908 32.8826 18.4132Z" fill="#56575B"/>
<path d="M44.8489 13.1223H47.6576L52.1118 18.6872V13.1223H55.0867V23.6391H52.4774L47.8238 17.8646V23.6391H44.8489V13.1223Z" fill="#56575B"/>
<path d="M56.782 13.1223H59.7902V23.6391H56.782V13.1223Z" fill="#56575B"/>
<path d="M64.0948 15.6709H60.8539V13.1223H70.3438V15.6709H67.0863V23.6391H64.0781V15.6709H64.0948Z" fill="#56575B"/>
<path d="M74.5154 19.7034L70.3771 13.1223H73.8008L76.0278 16.9613L78.2715 13.1223H81.6287L77.507 19.655V23.6391H74.4988V19.7034H74.5154Z" fill="#56575B"/>
<path d="M20.442 28.9735C20.3691 28.9014 20.284 28.8378 20.1868 28.7826C20.0896 28.7232 19.9802 28.6723 19.8586 28.6299C19.7371 28.5875 19.6058 28.5536 19.4648 28.5281C19.3287 28.5027 19.1829 28.4899 19.0273 28.4899C18.5752 28.4899 18.2421 28.5663 18.0282 28.719C17.8192 28.8674 17.7147 29.071 17.7147 29.3298C17.7147 29.508 17.7633 29.6479 17.8605 29.7497C17.9626 29.8515 18.1206 29.9343 18.3345 29.9979C18.5484 30.0615 18.8207 30.1273 19.1513 30.1951C19.5208 30.263 19.8392 30.3436 20.1066 30.4369C20.374 30.5302 20.5806 30.6575 20.7264 30.8187C20.8723 30.9756 20.9452 31.1898 20.9452 31.4613C20.9452 31.6691 20.899 31.8494 20.8067 32.0021C20.7143 32.1548 20.5855 32.2821 20.4202 32.3839C20.2549 32.4857 20.058 32.562 19.8295 32.6129C19.601 32.6596 19.3506 32.6829 19.0783 32.6829C18.811 32.6829 18.5533 32.6596 18.3053 32.6129C18.0623 32.562 17.8313 32.4899 17.6126 32.3966C17.3938 32.299 17.1896 32.176 17 32.0276L17.2552 31.6649C17.3476 31.7497 17.457 31.8303 17.5834 31.9067C17.7147 31.9788 17.8581 32.0445 18.0137 32.1039C18.1741 32.1633 18.3442 32.21 18.5241 32.2439C18.7089 32.2736 18.8985 32.2884 19.0929 32.2884C19.5062 32.2884 19.827 32.2227 20.0555 32.0912C20.2889 31.9597 20.4056 31.7646 20.4056 31.5058C20.4056 31.3192 20.3472 31.1707 20.2306 31.0604C20.1139 30.9459 19.9389 30.8526 19.7055 30.7805C19.4721 30.7084 19.1853 30.6384 18.845 30.5705C18.4852 30.4984 18.1814 30.4178 17.9334 30.3287C17.6855 30.2397 17.4983 30.123 17.3719 29.9788C17.2504 29.8303 17.1896 29.6352 17.1896 29.3934C17.1896 29.1135 17.2674 28.878 17.423 28.6872C17.5834 28.492 17.8022 28.3457 18.0793 28.2481C18.3564 28.1463 18.6748 28.0954 19.0346 28.0954C19.2631 28.0954 19.4746 28.1166 19.669 28.1591C19.8684 28.1972 20.0507 28.2545 20.216 28.3309C20.3861 28.4072 20.5441 28.5027 20.69 28.6172L20.442 28.9735Z" fill="#56565B"/>
<path d="M23.683 32.7084C23.367 32.7084 23.0826 32.6363 22.8297 32.492C22.5818 32.3478 22.3849 32.1697 22.2391 31.9576V34H21.7432V29.3298H22.188V29.9724C22.3387 29.7646 22.5405 29.597 22.7933 29.4698C23.0461 29.3383 23.3159 29.2725 23.6027 29.2725C23.8653 29.2725 24.1059 29.3213 24.3247 29.4189C24.5435 29.5122 24.7331 29.6394 24.8935 29.8006C25.0539 29.9618 25.1779 30.1463 25.2654 30.3542C25.3578 30.5578 25.404 30.7699 25.404 30.9905C25.404 31.3001 25.3311 31.5864 25.1852 31.8494C25.0442 32.1082 24.8449 32.316 24.5872 32.473C24.3296 32.6299 24.0281 32.7084 23.683 32.7084ZM23.5444 32.3266C23.7535 32.3266 23.9406 32.2906 24.1059 32.2185C24.2712 32.1421 24.4122 32.0403 24.5289 31.913C24.6504 31.7858 24.7428 31.6437 24.806 31.4867C24.8692 31.3256 24.9008 31.1601 24.9008 30.9905C24.9008 30.8123 24.8643 30.6426 24.7914 30.4814C24.7234 30.3203 24.6237 30.1782 24.4924 30.0551C24.3612 29.9321 24.2105 29.8346 24.0403 29.7625C23.8701 29.6903 23.6854 29.6543 23.4861 29.6543C23.3597 29.6543 23.2284 29.6755 23.0923 29.7179C22.9562 29.7603 22.8249 29.8218 22.6985 29.9024C22.5769 29.9788 22.4748 30.0657 22.3922 30.1633C22.3096 30.2609 22.2585 30.3648 22.2391 30.4751V31.4931C22.3168 31.6501 22.4214 31.7922 22.5526 31.9194C22.6839 32.0424 22.8346 32.1421 23.0048 32.2185C23.1798 32.2906 23.3597 32.3266 23.5444 32.3266Z" fill="#56565B"/>
<path d="M25.9377 31.6903C25.9377 31.4825 26.0058 31.3043 26.1419 31.1559C26.278 31.0032 26.4652 30.8865 26.7034 30.8059C26.9465 30.7211 27.226 30.6787 27.542 30.6787C27.7268 30.6787 27.9188 30.6914 28.1181 30.7169C28.3175 30.7423 28.4949 30.7805 28.6505 30.8314V30.5514C28.6505 30.2715 28.5557 30.0488 28.3661 29.8834C28.1765 29.7179 27.914 29.6352 27.5785 29.6352C27.3743 29.6352 27.1726 29.6691 26.9732 29.737C26.7788 29.8006 26.5746 29.8961 26.3607 30.0233L26.1711 29.7179C26.419 29.5695 26.6621 29.4592 26.9003 29.3871C27.1385 29.3107 27.3816 29.2725 27.6296 29.2725C28.0963 29.2725 28.4658 29.3892 28.738 29.6225C29.0103 29.8558 29.1464 30.1782 29.1464 30.5896V32.123C29.1464 32.1824 29.161 32.2269 29.1901 32.2566C29.2193 32.2821 29.2655 32.2969 29.3287 32.3012V32.6448C29.2752 32.649 29.229 32.6532 29.1901 32.6575C29.1512 32.6617 29.1221 32.6617 29.1026 32.6575C28.9811 32.6532 28.8887 32.6193 28.8255 32.5557C28.7623 32.492 28.7283 32.4242 28.7234 32.3521L28.7161 32.1103C28.546 32.3012 28.3248 32.4496 28.0525 32.5557C27.7803 32.6575 27.5031 32.7084 27.2212 32.7084C26.9781 32.7084 26.7569 32.6638 26.5576 32.5748C26.3631 32.4814 26.21 32.3584 26.0981 32.2057C25.9912 32.0488 25.9377 31.877 25.9377 31.6903ZM28.4828 31.9449C28.5362 31.8855 28.5776 31.8282 28.6067 31.7731C28.6359 31.7179 28.6505 31.6691 28.6505 31.6267V31.1432C28.4852 31.088 28.3126 31.0456 28.1327 31.0159C27.9577 30.9862 27.7803 30.9714 27.6004 30.9714C27.2455 30.9714 26.9586 31.0329 26.7399 31.1559C26.5211 31.2789 26.4117 31.4464 26.4117 31.6585C26.4117 31.7815 26.4482 31.8982 26.5211 32.0085C26.594 32.1145 26.701 32.2036 26.842 32.2757C26.983 32.3436 27.1482 32.3775 27.3379 32.3775C27.5761 32.3775 27.7973 32.3372 28.0015 32.2566C28.2105 32.176 28.3709 32.0721 28.4828 31.9449Z" fill="#56565B"/>
<path d="M30.2178 32.6448V29.3298H30.7137V32.6448H30.2178ZM30.2178 28.6363V28H30.7137V28.6363H30.2178Z" fill="#56565B"/>
<path d="M35 32.6448H34.5041V30.7932C34.5041 30.403 34.4385 30.1188 34.3072 29.9406C34.176 29.7582 33.9693 29.667 33.6874 29.667C33.4929 29.667 33.3009 29.7094 33.1113 29.7943C32.9217 29.8749 32.7539 29.9873 32.6081 30.1315C32.4671 30.2715 32.365 30.4327 32.3018 30.6151V32.6448H31.8059V29.3298H32.258V30.0806C32.3601 29.9194 32.4938 29.7794 32.6591 29.6607C32.8244 29.5376 33.0116 29.4422 33.2206 29.3743C33.4297 29.3065 33.646 29.2725 33.8697 29.2725C34.0787 29.2725 34.2562 29.3065 34.402 29.3743C34.5479 29.4422 34.6645 29.5398 34.7521 29.667C34.8396 29.79 34.9028 29.9406 34.9417 30.1188C34.9806 30.2927 35 30.4878 35 30.7041V32.6448Z" fill="#56565B"/>
</svg>
