<svg width="32" height="32" viewBox="0 0 32 32" fill="none" xmlns="http://www.w3.org/2000/svg">
<path d="M27.2695 4.73066C25.7914 3.24271 24.0341 2.06115 22.0984 1.25372C20.1626 0.446297 18.0866 0.028883 15.9892 0.0254124C13.8919 0.0219418 11.8145 0.432483 9.87608 1.2335C7.9377 2.03451 6.17649 3.21025 4.69342 4.6933C3.21035 6.17635 2.03459 7.93754 1.23355 9.87591C0.432509 11.8143 0.0219396 13.8917 0.0253811 15.989C0.0288226 18.0864 0.446208 20.1625 1.25361 22.0982C2.06101 24.0339 3.24254 25.7912 4.73047 27.2694C6.20862 28.7574 7.96593 29.9389 9.90164 30.7463C11.8374 31.5538 13.9134 31.9712 16.0108 31.9747C18.1081 31.9781 20.1855 31.5676 22.1239 30.7666C24.0623 29.9655 25.8235 28.7898 27.3066 27.3068C28.7896 25.8237 29.9654 24.0625 30.7664 22.1242C31.5675 20.1858 31.9781 18.1084 31.9746 16.011C31.9712 13.9137 31.5538 11.8376 30.7464 9.90188C29.939 7.96615 28.7575 6.20883 27.2695 4.73066ZM13.1383 15.6875H18.8617L21.4733 21.3458C20.9299 21.2694 20.3762 21.3247 19.8587 21.5072C19.3412 21.6897 18.8752 21.9939 18.5 22.3943C18.1793 22.0527 17.792 21.7805 17.362 21.5945C16.932 21.4084 16.4685 21.3124 16 21.3124C15.5315 21.3124 15.068 21.4084 14.638 21.5945C14.208 21.7805 13.8207 22.0527 13.5 22.3943C13.1248 21.9939 12.6588 21.6897 12.1413 21.5072C11.6238 21.3247 11.0701 21.2694 10.5267 21.3458L13.1383 15.6875ZM14.0036 13.8125L16 9.48706L17.9964 13.8125H14.0036ZM19.4375 24.75C19.4375 24.3356 19.6021 23.9382 19.8951 23.6452C20.1882 23.3521 20.5856 23.1875 21 23.1875C21.4144 23.1875 21.8118 23.3521 22.1049 23.6452C22.3979 23.9382 22.5625 24.3356 22.5625 24.75V28.4435C21.573 28.9675 20.5237 29.3699 19.4375 29.6419V24.75ZM9.4375 24.75C9.4375 24.3356 9.60212 23.9382 9.89514 23.6452C10.1882 23.3521 10.5856 23.1875 11 23.1875C11.4144 23.1875 11.8118 23.3521 12.1049 23.6452C12.3979 23.9382 12.5625 24.3356 12.5625 24.75V29.6418C11.4763 29.3698 10.427 28.9674 9.4375 28.4435V24.75ZM14.4375 29.9743V24.75C14.4375 24.3356 14.6021 23.9382 14.8951 23.6452C15.1882 23.3521 15.5856 23.1875 16 23.1875C16.4144 23.1875 16.8118 23.3521 17.1049 23.6452C17.3979 23.9382 17.5625 24.3356 17.5625 24.75V29.9743C16.5242 30.092 15.4758 30.092 14.4375 29.9743ZM25.9437 25.9438C25.4728 26.4141 24.9695 26.8508 24.4375 27.2508V23.5C24.4375 23.3643 24.4081 23.2303 24.3512 23.1071L16.8512 6.85706C16.7762 6.69444 16.6562 6.55671 16.5053 6.46018C16.3544 6.36365 16.1791 6.31235 16 6.31235C15.8209 6.31235 15.6455 6.36365 15.4947 6.46018C15.3438 6.55671 15.2238 6.69444 15.1487 6.85706L7.64875 23.1071C7.59192 23.2303 7.5625 23.3643 7.5625 23.5V27.2508C7.03052 26.8508 6.5272 26.4141 6.05625 25.9438C4.08959 23.9771 2.75028 21.4714 2.20769 18.7435C1.6651 16.0157 1.9436 13.1882 3.00796 10.6186C4.07232 8.04905 5.87475 5.8528 8.18731 4.3076C10.4999 2.7624 13.2187 1.93765 16 1.93765C18.7813 1.93765 21.5001 2.7624 23.8127 4.3076C26.1252 5.8528 27.9277 8.04905 28.992 10.6186C30.0564 13.1882 30.3349 16.0157 29.7923 18.7435C29.2497 21.4714 27.9104 23.9771 25.9437 25.9438Z" fill="white"/>
</svg>
