<svg width="18" height="22" viewBox="0 0 18 22" fill="none" xmlns="http://www.w3.org/2000/svg">
<path d="M1 3V19C1 19.5304 1.21071 20.0391 1.58579 20.4142C1.96086 20.7893 2.46957 21 3 21H15C15.5304 21 16.0391 20.7893 16.4142 20.4142C16.7893 20.0391 17 19.5304 17 19V7.342C17 7.07556 16.9467 6.81181 16.8433 6.56624C16.7399 6.32068 16.5885 6.09824 16.398 5.912L11.958 1.57C11.5844 1.20466 11.0826 1.00007 10.56 1H3C2.46957 1 1.96086 1.21071 1.58579 1.58579C1.21071 1.96086 1 2.46957 1 3V3Z" stroke="white" stroke-width="2" stroke-linecap="round" stroke-linejoin="round"/>
<path d="M11 1V5C11 5.53043 11.2107 6.03914 11.5858 6.41421C11.9609 6.78929 12.4696 7 13 7H17" stroke="white" stroke-width="2" stroke-linejoin="round"/>
</svg>
