<svg width="145" height="48" viewBox="0 0 145 48" fill="none" xmlns="http://www.w3.org/2000/svg">
<path d="M25.5724 30V18.64H26.6924V30H25.5724ZM36.3252 30H35.2372V25.344C35.2372 24.3627 35.0932 23.648 34.8052 23.2C34.5172 22.7413 34.0639 22.512 33.4452 22.512C33.0185 22.512 32.5972 22.6187 32.1812 22.832C31.7652 23.0347 31.3972 23.3173 31.0772 23.68C30.7679 24.032 30.5439 24.4373 30.4052 24.896V30H29.3172V21.664H30.3092V23.552C30.5332 23.1467 30.8265 22.7947 31.1892 22.496C31.5519 22.1867 31.9625 21.9467 32.4212 21.776C32.8799 21.6053 33.3545 21.52 33.8452 21.52C34.3039 21.52 34.6932 21.6053 35.0132 21.776C35.3332 21.9467 35.5892 22.192 35.7812 22.512C35.9732 22.8213 36.1119 23.2 36.1972 23.648C36.2825 24.0853 36.3252 24.576 36.3252 25.12V30ZM41.3813 30.16C40.6986 30.16 40.064 30.048 39.4773 29.824C38.8906 29.6 38.384 29.2587 37.9573 28.8L38.4053 28.032C38.8746 28.4693 39.344 28.7893 39.8133 28.992C40.2933 29.184 40.8 29.28 41.3333 29.28C41.984 29.28 42.512 29.152 42.9173 28.896C43.3226 28.6293 43.5253 28.2507 43.5253 27.76C43.5253 27.4293 43.424 27.1787 43.2213 27.008C43.0293 26.8267 42.7466 26.6827 42.3733 26.576C42.0106 26.4587 41.5733 26.336 41.0613 26.208C40.4853 26.048 40 25.8827 39.6053 25.712C39.2213 25.5307 38.928 25.3067 38.7253 25.04C38.5333 24.7627 38.4373 24.4053 38.4373 23.968C38.4373 23.424 38.5706 22.976 38.8373 22.624C39.1146 22.2613 39.488 21.9893 39.9573 21.808C40.4373 21.616 40.9706 21.52 41.5573 21.52C42.1973 21.52 42.7626 21.6213 43.2533 21.824C43.744 22.0267 44.144 22.3093 44.4533 22.672L43.9253 23.408C43.6266 23.0667 43.2693 22.816 42.8533 22.656C42.448 22.4853 41.9946 22.4 41.4933 22.4C41.152 22.4 40.8266 22.448 40.5173 22.544C40.208 22.6293 39.952 22.7787 39.7493 22.992C39.5573 23.1947 39.4613 23.4773 39.4613 23.84C39.4613 24.1387 39.536 24.3733 39.6853 24.544C39.8346 24.704 40.0586 24.8427 40.3573 24.96C40.656 25.0667 41.024 25.184 41.4613 25.312C42.0906 25.4827 42.64 25.6587 43.1093 25.84C43.5786 26.0107 43.9413 26.2347 44.1973 26.512C44.4533 26.7893 44.5813 27.1787 44.5813 27.68C44.5813 28.4587 44.288 29.0667 43.7013 29.504C43.1146 29.9413 42.3413 30.16 41.3813 30.16ZM49.9957 30.16C49.3877 30.16 48.8277 30.048 48.3157 29.824C47.8144 29.5893 47.3717 29.2693 46.9877 28.864C46.6144 28.4587 46.321 27.9947 46.1077 27.472C45.905 26.9493 45.8037 26.3947 45.8037 25.808C45.8037 25.0187 45.9797 24.2987 46.3317 23.648C46.6837 22.9973 47.1744 22.48 47.8037 22.096C48.433 21.712 49.1584 21.52 49.9797 21.52C50.7584 21.52 51.4464 21.7013 52.0437 22.064C52.641 22.416 53.0837 22.896 53.3717 23.504L52.3157 23.84C52.081 23.4133 51.7504 23.0827 51.3237 22.848C50.9077 22.6027 50.4437 22.48 49.9317 22.48C49.377 22.48 48.8704 22.624 48.4117 22.912C47.953 23.2 47.585 23.5947 47.3077 24.096C47.041 24.5973 46.9077 25.168 46.9077 25.808C46.9077 26.4373 47.0464 27.008 47.3237 27.52C47.601 28.032 47.969 28.4427 48.4277 28.752C48.8864 29.0507 49.393 29.2 49.9477 29.2C50.3104 29.2 50.657 29.136 50.9877 29.008C51.329 28.88 51.6224 28.7093 51.8677 28.496C52.1237 28.272 52.2944 28.032 52.3797 27.776L53.4517 28.096C53.3024 28.4907 53.0517 28.848 52.6997 29.168C52.3584 29.4773 51.953 29.7227 51.4837 29.904C51.025 30.0747 50.529 30.16 49.9957 30.16ZM59.3209 22.624C58.5956 22.6453 57.9556 22.848 57.4009 23.232C56.8569 23.616 56.4729 24.144 56.2489 24.816V30H55.1609V21.664H56.1849V23.664C56.4729 23.0773 56.8516 22.6027 57.3209 22.24C57.8009 21.8773 58.3076 21.6747 58.8409 21.632C58.9476 21.6213 59.0383 21.616 59.1129 21.616C59.1983 21.616 59.2676 21.6213 59.3209 21.632V22.624ZM60.7703 30V21.664H61.8583V30H60.7703ZM61.6823 20.08L60.9623 19.808L61.9063 18.32H63.0583L61.6823 20.08ZM68.3347 30.16C67.684 30.16 67.0814 29.9947 66.5267 29.664C65.972 29.3227 65.54 28.896 65.2307 28.384V30H64.2547V18.32H65.3427V23.408C65.716 22.8427 66.164 22.3893 66.6867 22.048C67.2094 21.696 67.8174 21.52 68.5107 21.52C69.0974 21.52 69.62 21.6427 70.0787 21.888C70.548 22.1333 70.948 22.464 71.2787 22.88C71.6094 23.2853 71.86 23.7493 72.0307 24.272C72.2014 24.784 72.2867 25.312 72.2867 25.856C72.2867 26.4427 72.1854 26.992 71.9827 27.504C71.7907 28.016 71.5134 28.4747 71.1507 28.88C70.788 29.2747 70.3667 29.5893 69.8867 29.824C69.4174 30.048 68.9 30.16 68.3347 30.16ZM68.0787 29.2C68.5267 29.2 68.9427 29.1093 69.3267 28.928C69.7107 28.7467 70.0414 28.496 70.3187 28.176C70.596 27.856 70.8094 27.4987 70.9587 27.104C71.108 26.6987 71.1827 26.2827 71.1827 25.856C71.1827 25.2693 71.0547 24.72 70.7987 24.208C70.5534 23.6853 70.2067 23.2693 69.7587 22.96C69.3214 22.64 68.804 22.48 68.2067 22.48C67.78 22.48 67.38 22.576 67.0067 22.768C66.644 22.96 66.3187 23.216 66.0307 23.536C65.7534 23.8453 65.524 24.1867 65.3427 24.56V27.152C65.3854 27.44 65.4974 27.712 65.6787 27.968C65.86 28.2133 66.084 28.4267 66.3507 28.608C66.628 28.7893 66.916 28.9333 67.2147 29.04C67.5134 29.1467 67.8014 29.2 68.0787 29.2ZM77.7297 30.16C77.1324 30.16 76.5777 30.048 76.0657 29.824C75.5537 29.5893 75.111 29.2747 74.7377 28.88C74.3644 28.4747 74.071 28.0107 73.8577 27.488C73.655 26.9653 73.5537 26.4053 73.5537 25.808C73.5537 25.0293 73.7297 24.3147 74.0817 23.664C74.4444 23.0133 74.9404 22.496 75.5697 22.112C76.199 21.7173 76.9137 21.52 77.7137 21.52C78.535 21.52 79.2497 21.7173 79.8577 22.112C80.4764 22.5067 80.9617 23.0293 81.3137 23.68C81.6657 24.32 81.8417 25.024 81.8417 25.792C81.8417 25.8773 81.8417 25.9627 81.8417 26.048C81.8417 26.1227 81.8364 26.1813 81.8257 26.224H74.6897C74.743 26.8213 74.9084 27.3547 75.1857 27.824C75.4737 28.2827 75.8417 28.6507 76.2897 28.928C76.7484 29.1947 77.2444 29.328 77.7777 29.328C78.3217 29.328 78.8337 29.1893 79.3137 28.912C79.8044 28.6347 80.1457 28.272 80.3377 27.824L81.2817 28.08C81.111 28.4747 80.8497 28.832 80.4977 29.152C80.1457 29.472 79.7297 29.7227 79.2497 29.904C78.7804 30.0747 78.2737 30.16 77.7297 30.16ZM74.6577 25.44H80.8177C80.775 24.832 80.6097 24.2987 80.3217 23.84C80.0444 23.3813 79.6764 23.024 79.2177 22.768C78.7697 22.5013 78.2737 22.368 77.7297 22.368C77.1857 22.368 76.6897 22.5013 76.2417 22.768C75.7937 23.024 75.4257 23.3867 75.1377 23.856C74.8604 24.3147 74.7004 24.8427 74.6577 25.44ZM87.4422 29.6C87.3569 29.632 87.2235 29.6907 87.0422 29.776C86.8609 29.8613 86.6422 29.936 86.3862 30C86.1302 30.064 85.8529 30.096 85.5542 30.096C85.2449 30.096 84.9515 30.0373 84.6742 29.92C84.4075 29.8027 84.1942 29.6267 84.0342 29.392C83.8742 29.1467 83.7942 28.848 83.7942 28.496V22.528H82.6422V21.664H83.7942V18.848H84.8822V21.664H86.8022V22.528H84.8822V28.192C84.9035 28.4907 85.0102 28.7147 85.2022 28.864C85.4049 29.0133 85.6342 29.088 85.8902 29.088C86.1889 29.088 86.4609 29.04 86.7062 28.944C86.9515 28.8373 87.1009 28.7627 87.1542 28.72L87.4422 29.6ZM92.2609 30.16C91.6636 30.16 91.1089 30.048 90.5969 29.824C90.0849 29.5893 89.6423 29.2747 89.2689 28.88C88.8956 28.4747 88.6023 28.0107 88.3889 27.488C88.1863 26.9653 88.0849 26.4053 88.0849 25.808C88.0849 25.0293 88.2609 24.3147 88.6129 23.664C88.9756 23.0133 89.4716 22.496 90.1009 22.112C90.7303 21.7173 91.4449 21.52 92.2449 21.52C93.0663 21.52 93.7809 21.7173 94.3889 22.112C95.0076 22.5067 95.4929 23.0293 95.8449 23.68C96.1969 24.32 96.3729 25.024 96.3729 25.792C96.3729 25.8773 96.3729 25.9627 96.3729 26.048C96.3729 26.1227 96.3676 26.1813 96.3569 26.224H89.2209C89.2743 26.8213 89.4396 27.3547 89.7169 27.824C90.0049 28.2827 90.3729 28.6507 90.8209 28.928C91.2796 29.1947 91.7756 29.328 92.3089 29.328C92.8529 29.328 93.3649 29.1893 93.8449 28.912C94.3356 28.6347 94.6769 28.272 94.8689 27.824L95.8129 28.08C95.6423 28.4747 95.3809 28.832 95.0289 29.152C94.6769 29.472 94.2609 29.7227 93.7809 29.904C93.3116 30.0747 92.8049 30.16 92.2609 30.16ZM89.1889 25.44H95.3489C95.3063 24.832 95.1409 24.2987 94.8529 23.84C94.5756 23.3813 94.2076 23.024 93.7489 22.768C93.3009 22.5013 92.8049 22.368 92.2609 22.368C91.7169 22.368 91.2209 22.5013 90.7729 22.768C90.3249 23.024 89.9569 23.3867 89.6689 23.856C89.3916 24.3147 89.2316 24.8427 89.1889 25.44Z" fill="white"/>
<rect x="0.5" y="0.5" width="144" height="47" rx="23.5" stroke="white"/>
<path d="M107 26H121M121 26L114 19M121 26L114 33" stroke="white" stroke-linecap="round" stroke-linejoin="round"/>
</svg>
