<svg width="23" height="23" viewBox="0 0 23 23" fill="none" xmlns="http://www.w3.org/2000/svg">
<circle cx="11.5" cy="11.5" r="11.5" fill="#1CABE2"/>
<path d="M13.964 14.88V16H8.938V14.88H10.926V9.42C10.842 9.532 10.7113 9.65333 10.534 9.784C10.3567 9.90533 10.156 10.022 9.932 10.134C9.708 10.246 9.484 10.3393 9.26 10.414C9.036 10.4793 8.83067 10.512 8.644 10.512V9.336C8.84933 9.336 9.07333 9.28 9.316 9.168C9.568 9.04667 9.81067 8.90667 10.044 8.748C10.2773 8.58933 10.4733 8.44 10.632 8.3C10.8 8.16 10.898 8.062 10.926 8.006H12.186V14.88H13.964Z" fill="white"/>
</svg>
