<svg width="23" height="23" viewBox="0 0 23 23" fill="none" xmlns="http://www.w3.org/2000/svg">
<circle cx="11.5" cy="11.5" r="11.5" fill="#1CABE2"/>
<path d="M8.602 16C8.602 15.496 8.658 15.0387 8.77 14.628C8.89133 14.208 9.11533 13.8113 9.442 13.438C9.778 13.0647 10.2587 12.7007 10.884 12.346C11.2573 12.1407 11.6307 11.9447 12.004 11.758C12.3867 11.562 12.704 11.3473 12.956 11.114C13.2173 10.8713 13.348 10.5867 13.348 10.26C13.348 9.93333 13.2033 9.63467 12.914 9.364C12.634 9.09333 12.2233 8.958 11.682 8.958C11.318 8.958 10.9913 9.02333 10.702 9.154C10.4127 9.27533 10.1653 9.42467 9.96 9.602C9.764 9.77 9.60533 9.924 9.484 10.064L8.714 9.196C8.81667 9.084 9.008 8.92533 9.288 8.72C9.568 8.50533 9.92733 8.30933 10.366 8.132C10.8047 7.95467 11.3133 7.866 11.892 7.866C12.4707 7.866 12.9653 7.96867 13.376 8.174C13.796 8.37 14.118 8.64067 14.342 8.986C14.566 9.322 14.678 9.7 14.678 10.12C14.678 10.484 14.5987 10.8013 14.44 11.072C14.2907 11.3427 14.0947 11.5807 13.852 11.786C13.6187 11.9913 13.3713 12.1687 13.11 12.318C12.858 12.458 12.6293 12.5793 12.424 12.682C11.864 12.962 11.4113 13.2093 11.066 13.424C10.7207 13.6293 10.4593 13.844 10.282 14.068C10.1047 14.292 9.974 14.5627 9.89 14.88H14.832V16H8.602Z" fill="white"/>
</svg>
