<svg width="20" height="20" viewBox="0 0 20 20" fill="none" xmlns="http://www.w3.org/2000/svg">
<path d="M1.07605 20C1.16321 20 1.25038 19.9892 1.33646 19.9677L5.64078 18.8905C5.83017 18.8431 6.00342 18.7451 6.14116 18.6072L19.3694 5.36543C19.7762 4.95826 20 4.41752 20 3.8423C20 3.26709 19.7762 2.72634 19.3694 2.31917L17.6628 0.610761C16.8492 -0.203587 15.4331 -0.203587 14.6196 0.610761L1.39134 13.8525C1.25367 13.9905 1.15588 14.1632 1.10833 14.3523L0.0322541 18.6611C-0.00749352 18.8199 -0.0105464 18.9857 0.0233274 19.1459C0.0572012 19.3061 0.12711 19.4564 0.227741 19.5855C0.328371 19.7146 0.457075 19.819 0.60407 19.8908C0.751065 19.9627 0.912481 20 1.07605 20ZM16.1412 2.13389L17.8478 3.8423L16.1412 5.55071L14.4345 3.8423L16.1412 2.13389ZM3.12383 15.1645L12.9129 5.36543L14.6196 7.07384L4.82942 16.8729L2.55459 17.4417L3.12383 15.1645Z" fill="white"/>
</svg>
