<svg width="24" height="23" viewBox="0 0 24 23" fill="none" xmlns="http://www.w3.org/2000/svg">
<path d="M12.992 12C13.7877 12 14.5507 12.3161 15.1133 12.8787C15.6759 13.4413 15.992 14.2044 15.992 15L15.99 16.496C16.196 20.17 13.366 22.002 8.12 22.002C2.892 22 0 20.194 0 16.55V15C0 14.2044 0.316071 13.4413 0.87868 12.8787C1.44129 12.3161 2.20435 12 3 12H12.992ZM20.992 12C21.7876 12 22.5507 12.3161 23.1133 12.8787C23.6759 13.4413 23.992 14.2044 23.992 15V16.054C24.172 19.348 21.672 21 17.104 21C16.484 21 15.9 20.97 15.356 20.91C15.936 20.374 16.37 19.736 16.646 18.994L17.104 19C20.672 19 22.098 18.058 21.992 16.108V15C21.992 14.7348 21.8866 14.4804 21.6991 14.2929C21.5116 14.1054 21.2572 14 20.992 14H16.866C16.6653 13.2253 16.2368 12.5286 15.636 12H20.992ZM12.992 14H3C2.73478 14 2.48043 14.1054 2.29289 14.2929C2.10536 14.4804 2 14.7348 2 15V16.55C2 18.84 3.856 20 8.12 20C12.368 20 14.12 18.866 13.992 16.55V15C13.992 14.7348 13.8866 14.4804 13.6991 14.2929C13.5116 14.1054 13.2572 14 12.992 14ZM8 0C9.32608 0 10.5979 0.526784 11.5355 1.46447C12.4732 2.40215 13 3.67392 13 5C13 6.32608 12.4732 7.59785 11.5355 8.53553C10.5979 9.47322 9.32608 10 8 10C6.67392 10 5.40215 9.47322 4.46447 8.53553C3.52678 7.59785 3 6.32608 3 5C3 3.67392 3.52678 2.40215 4.46447 1.46447C5.40215 0.526784 6.67392 0 8 0ZM18 2C19.0609 2 20.0783 2.42143 20.8284 3.17157C21.5786 3.92172 22 4.93913 22 6C22 7.06087 21.5786 8.07828 20.8284 8.82843C20.0783 9.57857 19.0609 10 18 10C16.9391 10 15.9217 9.57857 15.1716 8.82843C14.4214 8.07828 14 7.06087 14 6C14 4.93913 14.4214 3.92172 15.1716 3.17157C15.9217 2.42143 16.9391 2 18 2ZM8 2C7.20435 2 6.44129 2.31607 5.87868 2.87868C5.31607 3.44129 5 4.20435 5 5C5 5.79565 5.31607 6.55871 5.87868 7.12132C6.44129 7.68393 7.20435 8 8 8C8.79565 8 9.55871 7.68393 10.1213 7.12132C10.6839 6.55871 11 5.79565 11 5C11 4.20435 10.6839 3.44129 10.1213 2.87868C9.55871 2.31607 8.79565 2 8 2ZM18 4C17.4696 4 16.9609 4.21071 16.5858 4.58579C16.2107 4.96086 16 5.46957 16 6C16 6.53043 16.2107 7.03914 16.5858 7.41421C16.9609 7.78929 17.4696 8 18 8C18.5304 8 19.0391 7.78929 19.4142 7.41421C19.7893 7.03914 20 6.53043 20 6C20 5.46957 19.7893 4.96086 19.4142 4.58579C19.0391 4.21071 18.5304 4 18 4Z" fill="white"/>
</svg>
