<svg width="18" height="19" viewBox="0 0 18 19" fill="none" xmlns="http://www.w3.org/2000/svg">
<path d="M8.30175e-06 7.737C-0.00247227 7.88904 0.0413156 8.03823 0.125566 8.16481C0.209817 8.29138 0.33055 8.38936 0.471758 8.44575L7.67251 11.3265L10.5533 18.528C10.6089 18.6673 10.705 18.7867 10.8292 18.8708C10.9534 18.9549 11.1 18.9998 11.25 18.9998H11.262C11.4139 18.9974 11.5615 18.9489 11.6853 18.8608C11.809 18.7726 11.9031 18.649 11.955 18.5063L17.955 2.00625C18.0041 1.87202 18.0139 1.72655 17.9831 1.58697C17.9523 1.4474 17.8822 1.31952 17.7812 1.21841C17.6802 1.1173 17.5524 1.04717 17.4128 1.01627C17.2733 0.98537 17.1278 0.994993 16.9935 1.044L0.493508 7.044C0.350683 7.09608 0.227031 7.19028 0.138911 7.31416C0.0507903 7.43804 0.00235369 7.58575 8.30175e-06 7.73775V7.737Z" fill="white"/>
</svg>
