<svg width="19" height="19" viewBox="0 0 19 19" fill="none" xmlns="http://www.w3.org/2000/svg">
<path d="M18.24 14.5592C18.1982 14.3012 18.0365 14.0807 17.7942 13.9497L14.2105 11.8382L14.181 11.8217C14.0307 11.7465 13.8648 11.7079 13.6967 11.7092C13.3965 11.7092 13.1097 11.8229 12.9107 12.0224L11.853 13.0807C11.8077 13.1237 11.6602 13.1859 11.6155 13.1882C11.6032 13.1872 10.3847 13.0994 8.1415 10.8559C5.90225 8.61719 5.80725 7.39494 5.8065 7.39494C5.80775 7.33244 5.86925 7.18544 5.913 7.13994L6.815 6.23819C7.13275 5.91969 7.228 5.39169 7.0395 4.98269L5.0475 1.23444C4.90275 0.936441 4.6215 0.752441 4.3095 0.752441C4.08875 0.752441 3.87575 0.843941 3.70925 1.01019L1.2505 3.46344C1.01475 3.69794 0.811746 4.10794 0.767496 4.43794C0.745996 4.59569 0.309746 8.36119 5.47225 13.5244C9.855 17.9067 13.2725 18.2472 14.2162 18.2472C14.3312 18.2487 14.4461 18.2427 14.5602 18.2294C14.8892 18.1854 15.2987 17.9829 15.533 17.7482L17.9897 15.2917C18.1902 15.0902 18.2817 14.8239 18.24 14.5592Z" fill="white"/>
</svg>
